<?xml version="1.0" encoding="utf-8"?>
<!-- Generator: Adobe Illustrator 21.0.2, SVG Export Plug-In . SVG Version: 6.00 Build 0)  -->
<svg version="1.1" id="Layer_1" xmlns="http://www.w3.org/2000/svg" xmlns:xlink="http://www.w3.org/1999/xlink" x="0px" y="0px"
	 viewBox="0 0 38 33.8" style="enable-background:new 0 0 38 33.8;" xml:space="preserve">
<style type="text/css">
	.st0{fill:#BB141B;}
</style>
<title>np_triangle_748528_000000</title>
<desc>Created with Sketch.</desc>
<g id="Page-1">
	<g id="Home_final" transform="translate(-1115.000000, -1534.000000)">
		
			<g id="np_triangle_748528_000000" transform="translate(1138.988404, 1556.201510) rotate(90.000000) translate(-1138.988404, -1556.201510) translate(1117.488404, 1531.701510)">
			<path id="Shape" class="st0" d="M33.1,29.4c0-0.7-0.4-1.4-1.1-1.7L2.5,10.8c-0.7-0.4-1.5-0.4-2.1,0c-0.7,0.4-1.1,1.1-1.1,1.8
				v33.8c0,0.8,0.4,1.4,1.1,1.8c0.7,0.4,1.5,0.4,2.1,0l29.6-16.9C32.8,30.9,33.2,30.2,33.1,29.4L33.1,29.4z M26.8,29.5L3.5,42.8
				V16.2L26.8,29.5z"/>
		</g>
	</g>
</g>
</svg>
