<?xml version="1.0" encoding="UTF-8" standalone="no"?>
<svg width="257px" height="99px" viewBox="0 0 257 99" version="1.1" xmlns="http://www.w3.org/2000/svg" xmlns:xlink="http://www.w3.org/1999/xlink">
    <!-- Generator: Sketch 49.3 (51167) - http://www.bohemiancoding.com/sketch -->
    <title>logo</title>
    <desc>Created with Sketch.</desc>
    <defs></defs>
    <g id="Symbols" stroke="none" stroke-width="1" fill="none" fill-rule="evenodd">
        <g id="header_new3" transform="translate(-591.000000, -20.000000)">
            <g id="header_new2-copy">
                <g id="LOGO" transform="translate(591.000000, 20.000000)">
                    <g id="logo">
                        <polygon id="Fill-1" fill="#003363" points="0 79 61 79 61 17 0 17"></polygon>
                        <polygon id="Fill-2" fill="#BB141B" points="65 79 126 79 126 17 65 17"></polygon>
                        <polygon id="Fill-3" fill="#003363" points="132 79 193 79 193 17 132 17"></polygon>
                        <polygon id="Fill-4" fill="#BB141B" points="196 79 257 79 257 17 196 17"></polygon>
                        <path d="M40,53 L32.3315095,33 L25,53 L40,53 Z M54,71 L47.2859239,71 L42.0786634,57.9211504 L23.250426,57.9211504 L18.2876751,71 L12,71 L29.2528398,28 L35.6697274,28 L54,71 Z" id="Fill-5" fill="#FEFEFE"></path>
                        <path d="M25.384315,53.1110747 L39.829808,53.1110747 L32.4328018,34.3522941 L25.384315,53.1110747 Z M24.6550602,53.6094782 L32.4220631,32.9257315 L40.4428897,53.266238 L40.1861373,53.351813 L40.1861373,53.1110747 L40.1861373,53.351813 L40.4428897,53.266238 L40.567849,53.6094782 L24.6550602,53.6094782 Z M42.0868858,57.5694353 L47.1916694,70.505358 L53.2385291,70.505358 L35.4406118,28.4918208 L29.5021152,28.4918208 L12.7429222,70.505358 L18.3690205,70.505358 L23.2443866,57.5694353 L42.0868858,57.5694353 Z M46.8538887,71 L41.7276277,58.0678389 L23.6036446,58.0678389 L18.730231,71 L12,71 L29.1477384,28 L35.7862024,28 L53.8672307,70.6558194 L53.6241458,70.7498578 L53.6241458,70.505358 L53.6241458,70.7498578 L53.8672307,70.6558194 L54,71 L46.8538887,71 Z" id="Fill-6" fill="#FEFEFE"></path>
                        <polygon id="Fill-7" fill="#FEFEFE" points="93 71 99 71 99 28 93 28"></polygon>
                        <path d="M93.4859155,70.5053688 L98.5223515,70.5053688 L98.5223515,28.4927505 L93.4859155,28.4927505 L93.4859155,70.5053688 Z M98.76485,70.748923 L98.76485,70.5053688 L98.76485,70.748923 Z M93,71 L93,28 L99,28 L99,70.748923 L99,71 L93,71 Z" id="Fill-8" fill="#FEFEFE"></path>
                        <g id="Group-69">
                            <path d="M162.670178,72.0894913 C156.567949,72.0894913 152.03781,70.7312132 149.017717,68.0012936 C146.001442,65.2646925 144.426489,61.7625684 144.268039,57.4891944 L149.760332,57.4891944 C150.063868,60.7125994 151.417374,63.0874385 153.779804,64.6251659 C156.172779,66.1695749 159.051603,66.9436884 162.431549,66.9436884 C165.627273,66.9436884 168.201606,66.2812534 170.16123,64.9707011 C172.111309,63.6591943 173.074417,61.8570656 173.074417,59.6063138 C173.074417,57.2333837 172.075992,55.5009348 170.058142,54.4223302 C168.029793,53.3523163 164.547714,52.2928021 159.614768,51.2294698 C154.683732,50.1842733 151.1377,48.7343615 148.988127,46.8549169 C146.842372,45.0002897 145.766631,42.5109085 145.766631,39.4115908 C145.766631,35.92283 147.170726,33.0621416 149.961735,30.8132987 C152.747971,28.5749556 156.473452,27.4619884 161.103815,27.4619884 C165.971854,27.4619884 169.895875,28.5835463 172.888286,30.8505249 C175.855881,33.0984132 177.443243,36.2912737 177.621738,40.4128795 L172.058811,40.4128795 C171.4861,35.1888062 167.904751,32.588701 161.346263,32.588701 C158.161993,32.588701 155.693611,33.1805017 153.944936,34.384148 C152.201987,35.5811128 151.321922,37.1656115 151.321922,39.1414624 C151.321922,40.9531363 152.03781,42.3095054 153.445723,43.2096152 C154.847909,44.1106796 157.463286,44.9850174 161.305219,45.8269017 C165.140469,46.6859673 168.178698,47.5116248 170.431359,48.3315552 C172.700246,49.1495765 174.627417,50.4362659 176.232915,52.1706238 C177.843186,53.9135725 178.64498,56.2397312 178.64498,59.1605542 C178.64498,62.8803082 177.170251,65.957672 174.214111,68.4165087 C171.247471,70.8638911 167.401721,72.0894913 162.670178,72.0894913 Z" id="Fill-9" fill="#FEFEFE"></path>
                            <path d="M162.670178,72.3392885 L162.670178,72.089205 L162.670178,71.8391214 C167.368313,71.8391214 171.163474,70.6364296 174.049934,68.2205463 C176.958348,65.7922542 178.395851,62.8055695 178.395851,59.1602678 C178.395851,56.2852617 177.610284,54.0230556 176.044875,52.3459687 C174.476603,50.6354736 172.571387,49.3841014 170.347361,48.5613075 C168.117609,47.7499678 165.066017,46.9233558 161.232675,46.0757444 C157.383107,45.2252694 154.762002,44.3642948 153.305409,43.4212317 C151.827816,42.4819867 151.074702,41.0187116 151.074702,39.1564483 C151.074702,37.0851457 151.998675,35.4032862 153.801758,34.177686 C155.619159,32.9387225 158.124767,32.3316494 161.346263,32.3316494 C167.878979,32.3116046 171.634051,34.9642082 172.276441,40.1606005 L177.355427,40.1606005 C177.124434,36.2279892 175.595297,33.2031238 172.726018,31.0516417 C169.791832,28.8295254 165.938446,27.7136946 161.103815,27.7136946 C156.508769,27.7136946 152.854877,28.8247528 150.126866,31.0086884 C147.378811,33.2031238 146.029123,35.9893598 146.018624,39.4113044 C146.018624,42.4571692 147.059048,44.8472806 149.15994,46.6799538 C151.249379,48.4954458 154.762002,49.9396305 159.668221,50.9819634 C164.610712,52.0405231 168.117609,53.108628 170.183184,54.208232 C172.264032,55.3040178 173.350273,57.1653266 173.337864,59.6060274 C173.337864,61.9369587 172.29744,63.8288121 170.296772,65.1746815 C168.277968,66.5253235 165.664499,67.1925311 162.431549,67.1925311 C159.014377,67.1925311 156.085918,66.413645 153.654762,64.8291462 C151.258924,63.2914188 149.877737,60.9013074 149.537929,57.738037 L144.524804,57.738037 C144.74148,61.8520067 146.279207,65.1746815 149.185712,67.8101038 C152.140898,70.4770252 156.610902,71.8391214 162.670178,71.8391214 L162.670178,72.089205 L162.670178,72.3392885 C156.557449,72.3392885 151.931859,70.9724197 148.849722,68.1804565 C145.779994,65.4123563 144.176405,61.8338709 144.012228,57.4917716 L144.002683,57.2311883 L149.998961,57.2311883 L150.024733,57.4659996 C150.312043,60.6283155 151.614959,62.9115209 153.913437,64.4129767 C156.273958,65.9239776 159.08692,66.6809098 162.431549,66.6809098 C165.590047,66.6809098 168.130972,66.0347016 170.019007,64.7556484 C171.907997,63.4680045 172.82147,61.788054 172.837697,59.6060274 C172.82147,57.3104133 171.886998,55.6915519 169.933101,54.653037 C167.951523,53.5849322 164.499034,52.5177818 159.566088,51.4744944 C154.605462,50.4216617 151.027931,48.9641138 148.825859,47.0627153 C146.620924,45.1441355 145.50223,42.5736203 145.516548,39.4113044 C145.50223,35.8471367 146.957869,32.8929056 149.808058,30.6221089 C152.655383,28.3331764 156.436226,27.2173456 161.103815,27.2173456 C165.999535,27.2173456 169.981781,28.3455851 173.026691,30.6440628 C176.068738,32.9387225 177.694281,36.2279892 177.869912,40.3973208 L177.883276,40.6607676 L171.835454,40.6607676 L171.814454,40.4393196 C171.221699,35.3536513 167.853207,32.8594975 161.346263,32.8365891 C158.18872,32.8365891 155.785245,33.437935 154.089068,34.5871739 C152.397663,35.7564576 151.587278,37.240732 151.587278,39.1564483 C151.587278,40.8984424 152.239213,42.1335878 153.58031,42.9983805 C154.920452,43.8669913 157.524376,44.7518288 161.353899,45.5813044 C165.187241,46.4298703 168.24456,47.2679365 170.522992,48.0945485 C172.813834,48.9316602 174.785867,50.2403035 176.420955,52.0118876 C178.071315,53.7911079 178.908427,56.1993551 178.900791,59.1602678 C178.908427,62.94302 177.381199,66.1062904 174.380197,68.6013987 C171.374422,71.0974615 167.454219,72.3392885 162.670178,72.3392885" id="Fill-11" fill="#FEFEFE"></path>
                            <path d="M227.174645,72.0894913 C220.977919,72.0894913 215.949522,70.061142 212.092317,65.9929892 C208.225568,61.9362906 206.302215,56.5279954 206.302215,49.7795579 C206.302215,42.9977124 208.209341,37.5789175 212.015956,33.5441728 C215.817798,29.4922468 220.806106,27.4619884 226.999014,27.4619884 C232.203043,27.4619884 236.522234,28.7057245 239.96136,31.2161051 C243.412894,33.721713 245.330519,37.0625237 245.754325,41.271945 L239.839181,41.271945 C239.594825,38.4847545 238.345362,36.3027279 236.060247,34.7230017 C233.785632,33.1394575 230.793221,32.3548442 227.061058,32.3548442 C222.597735,32.3548442 219.022113,33.8763448 216.287421,36.9164825 C213.576592,39.947075 212.219268,44.2433575 212.219268,49.7795579 C212.219268,55.2880774 213.598546,59.566224 216.34851,62.6264066 C219.096565,65.6770439 222.68746,67.2004536 227.111647,67.2004536 C233.336055,67.2004536 237.961646,65.1520594 240.97792,61.0524075 L240.97792,54.4891464 L229.580984,54.4891464 L229.580984,49.3337984 L246.511257,49.3337984 L246.511257,71.3506949 L242.484149,71.3506949 L240.97792,66.8215102 C238.06187,70.3284069 233.457279,72.0894913 227.174645,72.0894913" id="Fill-13" fill="#FEFEFE"></path>
                            <path d="M227.174645,72.3392885 L227.174645,72.089205 L227.174645,71.8391214 C233.410507,71.8391214 237.92442,70.0914002 240.789881,66.6580014 L241.081963,66.3019664 L242.657871,71.1079612 L246.263083,71.1079612 L246.263083,49.5778684 L229.840612,49.5778684 L229.840612,54.2235042 L241.234686,54.2235042 L241.234686,61.1380277 L241.177415,61.2010259 C238.114369,65.3665395 233.386644,67.463614 227.111647,67.4512053 C222.621598,67.463614 218.947661,65.8886604 216.154743,62.7893427 C213.349417,59.6823888 211.971094,55.3307443 211.971094,49.7792716 C211.971094,44.2029814 213.337962,39.8456098 216.107972,36.7415195 C218.86939,33.6479288 222.540464,32.1006563 227.061058,32.1006563 C230.817084,32.1006563 233.882039,32.8929056 236.214879,34.5079489 C238.47804,36.0790845 239.77332,38.2773379 240.054902,41.0187116 L245.468924,41.0187116 C245.006938,37.0106934 243.129403,33.8302416 239.818182,31.422949 C236.4306,28.9545672 232.166771,27.7136946 227.00665,27.7136946 C220.882467,27.7222853 215.962885,29.7200901 212.193496,33.7185631 C208.440334,37.7218088 206.557071,43.0537425 206.557071,49.7792716 C206.557071,56.4694835 208.459424,61.8109624 212.271767,65.8199352 C216.078382,69.8260444 221.02469,71.8391214 227.174645,71.8391214 L227.174645,72.089205 L227.174645,72.3392885 C220.917784,72.3392885 215.812071,70.2899398 211.904277,66.1692885 C207.992665,62.0534098 206.050223,56.5706623 206.050223,49.7792716 C206.050223,42.9668815 207.970711,37.4784069 211.833643,33.3663462 C215.688939,29.2686034 220.759335,27.2173456 227.00665,27.2173456 C232.236451,27.2173456 236.620549,28.4744449 240.111219,31.0086884 C243.60857,33.54675 245.595875,36.9830124 245.992955,41.2449322 L246.026363,41.5141061 L239.602461,41.5141061 L239.58528,41.2878855 C239.344741,38.5684656 238.13155,36.4713911 235.927569,34.9136188 C233.705453,33.3749369 230.74454,32.5912782 227.061058,32.5912782 C222.659779,32.6046414 219.161473,34.0927339 216.494551,37.0803731 C213.824766,40.0641943 212.475079,44.2802973 212.475079,49.7792716 C212.475079,55.2572465 213.837175,59.4638043 216.529868,62.4562161 C219.23497,65.4553096 222.724686,66.9539018 227.111647,66.9539018 C233.259693,66.9539018 237.754515,64.9513244 240.720201,60.9671691 L240.720201,54.73608 L229.331855,54.73608 L229.331855,49.0834285 L246.761341,49.0834285 L246.761341,71.6004921 L242.305654,71.6004921 L240.88056,67.3185274 C237.892921,70.6727013 233.29692,72.3392885 227.178464,72.3392885 L227.174645,72.3392885 Z" id="Fill-15" fill="#FEFEFE"></path>
                            <path d="M5.96010161,91.7661978 L4.65145836,88.2631192 L3.3752687,91.7661978 L5.96010161,91.7661978 Z M9.46318019,95.4869063 L7.38519598,95.4869063 L6.56144753,93.3535601 L2.79492217,93.3535601 L2.01508152,95.4869063 L9.54517322e-05,95.4869063 L3.67021456,86.0534116 L5.68997321,86.0534116 L9.46318019,95.4869063 Z" id="Fill-17" fill="#003363"></path>
                            <path d="M10.1100566,88.6583848 L11.7814164,88.6583848 L11.7814164,89.5890392 C12.3827623,88.8693331 13.0948322,88.505662 13.908081,88.505662 C14.3500225,88.505662 14.7194207,88.5934776 15.0449111,88.778654 C15.3684925,88.9476036 15.6414845,89.2253681 15.8304789,89.5890392 C16.1445151,89.2253681 16.4623694,88.9476036 16.8231769,88.778654 C17.1582125,88.5934776 17.5304742,88.505662 17.9409167,88.505662 C18.424857,88.505662 18.8572533,88.6116135 19.198016,88.8149257 C19.55596,89.0182378 19.8165432,89.3275015 19.9874018,89.717899 C20.1009894,90.0042542 20.1697146,90.4757858 20.1697146,91.1305847 L20.1697146,95.4898653 L18.3551772,95.4898653 L18.3551772,91.586844 C18.3551772,90.9139092 18.2988607,90.4757858 18.175728,90.2686555 C17.9991422,90.0157084 17.7500132,89.8963938 17.4006599,89.8963938 C17.1391221,89.8963938 16.9071744,89.965119 16.68859,90.1245234 C16.4623694,90.2686555 16.2953288,90.5072849 16.1998771,90.8003217 C16.1025163,91.1009946 16.0519269,91.5706172 16.0519269,92.2168254 L16.0519269,95.4898653 L14.2478892,95.4898653 L14.2478892,91.7472029 C14.2478892,91.0799953 14.2058904,90.6475989 14.1438468,90.4671951 C14.0903938,90.2638829 13.9844424,90.127387 13.8460374,90.0290717 C13.7104959,89.9317109 13.5320012,89.8963938 13.301008,89.8963938 C13.0203799,89.8963938 12.7741144,89.965119 12.5488483,90.1044786 C12.3274003,90.2638829 12.1651324,90.4757858 12.0668171,90.7716862 C11.9646837,91.0589959 11.9207759,91.5152552 11.9207759,92.1729176 L11.9207759,95.4898653 L10.1100566,95.4898653 L10.1100566,88.6583848 Z" id="Fill-19" fill="#003363"></path>
                            <path d="M25.3160902,91.4958785 C25.3017725,90.9708939 25.16814,90.5728602 24.9094659,90.3027318 C24.6660639,90.0278308 24.33771,89.8961074 23.9702208,89.8961074 C23.5740961,89.8961074 23.2505147,90.0287853 22.9851589,90.3227767 C22.7312573,90.6119954 22.6081246,91.000484 22.6081246,91.4958785 L25.3160902,91.4958785 Z M25.2120478,93.3256882 L27.0246762,93.6320882 C26.7803198,94.28116 26.4204668,94.7985084 25.9298449,95.1383166 C25.4124965,95.4781247 24.7968328,95.6556649 24.0379915,95.6556649 C22.850572,95.6556649 21.9790977,95.2690854 21.3997057,94.4825632 C20.9510825,93.8668995 20.7229529,93.0813317 20.7229529,92.133496 C20.7229529,91.000484 21.033171,90.1041922 21.6077904,89.4675291 C22.2119999,88.827048 22.9555689,88.5053757 23.8642694,88.5053757 C24.8684216,88.5053757 25.6759433,88.8451839 26.2629714,89.5228911 C26.8576357,90.1920078 27.1344457,91.2104778 27.120128,92.5973914 L22.5785346,92.5973914 C22.5928523,93.1366937 22.7455751,93.5595449 23.0233396,93.8411275 C23.2944225,94.1570728 23.6571391,94.2992958 24.0618545,94.2992958 C24.3424826,94.2992958 24.5839754,94.2114802 24.7777425,94.0692572 C24.970555,93.9117618 25.112778,93.6607237 25.2120478,93.3256882 Z" id="Fill-21" fill="#003363"></path>
                            <path d="M29.7167969,95.4900562 L27.9146682,95.4900562 L27.9146682,88.6585757 L29.5793464,88.6585757 L29.5793464,89.6331379 C29.8733377,89.1692425 30.137739,88.8723876 30.3591871,88.7225284 C30.602589,88.5841234 30.851718,88.5058529 31.1466638,88.5058529 C31.5580608,88.5058529 31.9560945,88.616577 32.3426741,88.8542518 L31.7804633,90.4311144 C31.4807449,90.2297112 31.1857991,90.1294869 30.9223523,90.1294869 C30.6760868,90.1294869 30.4517752,90.1991667 30.2866437,90.3366172 C30.1129216,90.4759767 29.9754711,90.7308328 29.8733377,91.100231 C29.7702499,91.4696292 29.7167969,92.2208344 29.7167969,93.3805729 L29.7167969,95.4900562 Z" id="Fill-23" fill="#003363"></path>
                            <path d="M32.9050757,95.4912016 L34.7148405,95.4912016 L34.7148405,88.6587666 L32.9050757,88.6587666 L32.9050757,95.4912016 Z M32.9050757,87.7376574 L34.7148405,87.7376574 L34.7148405,86.0529343 L32.9050757,86.0529343 L32.9050757,87.7376574 Z" id="Fill-25" fill="#003363"></path>
                            <path d="M41.8337261,90.6941794 L40.0564149,91.0101246 C39.9934167,90.6397719 39.870284,90.3715525 39.6459724,90.1987849 C39.427388,90.0174266 39.1601231,89.9257929 38.8212695,89.9257929 C38.3697828,89.9257929 38.0099298,90.0775612 37.7369378,90.3906428 C37.4658549,90.7056336 37.3408131,91.2182094 37.3408131,91.9541422 C37.3408131,92.7626184 37.471582,93.3410559 37.746483,93.6846821 C38.0166114,94.009218 38.3841005,94.175304 38.8432234,94.175304 C39.1906677,94.175304 39.4684322,94.0760342 39.6860622,93.8860853 C39.9017831,93.6932728 40.064051,93.3534646 40.147094,92.8809785 L41.9215417,93.1797425 C41.744956,93.9996728 41.4013298,94.6115184 40.8725272,95.0305516 C40.3418156,95.4438576 39.6459724,95.6538514 38.7611349,95.6538514 C37.7655733,95.6538514 36.9628242,95.3369516 36.3662509,94.7012431 C35.7754047,94.0760342 35.4852314,93.2016964 35.4852314,92.0858656 C35.4852314,90.94999 35.7754047,90.0775612 36.3691145,89.4552159 C36.9780965,88.8204619 37.7655733,88.5054711 38.794543,88.5054711 C39.621155,88.5054711 40.2931352,88.6839659 40.7713484,89.0485915 C41.2734245,89.3998539 41.6160962,89.959201 41.8337261,90.6941794" id="Fill-27" fill="#003363"></path>
                            <path d="M46.6258804,92.2182572 C46.3891601,92.2888914 46.0216709,92.3843432 45.5320035,92.4817039 C45.0165642,92.5972005 44.6987099,92.6993339 44.5431236,92.7947856 C44.2987671,92.9742349 44.1870886,93.1880468 44.1870886,93.4409939 C44.1870886,93.6948955 44.2729952,93.9115709 44.4715348,94.1053379 C44.6643473,94.2809691 44.9058401,94.3764208 45.1807411,94.3764208 C45.5100496,94.3764208 45.8193132,94.2714239 46.1190317,94.0642937 C46.3490703,93.8924805 46.4836573,93.6948955 46.549519,93.4553116 C46.5934268,93.3025888 46.6258804,93.0038249 46.6258804,92.5790647 L46.6258804,92.2182572 Z M44.2061789,90.7425734 L42.5596366,90.444764 C42.7553126,89.7899651 43.0655307,89.2936161 43.5189265,88.9881705 C43.9646861,88.6598166 44.6376208,88.5051848 45.5320035,88.5051848 C46.3213893,88.5051848 46.935144,88.6006365 47.3255416,88.7924945 C47.7216662,88.9881705 48.0022943,89.2267999 48.1664713,89.5274728 C48.3287393,89.8052374 48.4051007,90.3559939 48.4051007,91.1434707 L48.3898284,93.2558175 C48.3898284,93.8409366 48.4136913,94.2943323 48.4757349,94.5816421 C48.5339605,94.8632247 48.6360938,95.1734428 48.7945437,95.4903425 L47.0162779,95.4903425 C46.964734,95.3710279 46.911281,95.2039873 46.8234654,94.9596309 C46.8139203,94.8498614 46.7814667,94.7983175 46.7719215,94.74391 C46.4607489,95.0569917 46.1190317,95.2688945 45.7706328,95.4216173 C45.4308247,95.5781581 45.0461542,95.6564286 44.6376208,95.6564286 C43.9532319,95.6564286 43.3881576,95.4588435 42.9863058,95.0837182 C42.5873176,94.6828209 42.3744602,94.2112893 42.3744602,93.6318973 C42.3744602,93.2481814 42.471821,92.8921464 42.6464976,92.5972005 C42.8421737,92.2927095 43.0884392,92.0512166 43.4320654,91.908039 C43.7604194,91.7476801 44.2491322,91.6025935 44.8619323,91.4746882 C45.7124073,91.3171928 46.2927538,91.1749697 46.6258804,91.0432463 L46.6258804,90.8590245 C46.6258804,90.5058531 46.5390193,90.2662692 46.3719788,90.1040013 C46.2058927,89.9617782 45.8727662,89.8959165 45.3993256,89.8959165 C45.0709716,89.8959165 44.8266152,89.9570056 44.6376208,90.0772748 C44.457217,90.2204524 44.3245391,90.4294917 44.2061789,90.7425734 Z" id="Fill-28" fill="#003363"></path>
                            <path d="M55.4505839,95.4900562 L53.6398646,95.4900562 L53.6398646,92.007977 C53.6398646,91.2729987 53.6007293,90.8005126 53.5300951,90.5733375 C53.4422795,90.3662072 53.3096016,90.1915305 53.1377884,90.0712614 C52.9726569,89.9595828 52.7683902,89.8965847 52.5173522,89.8965847 C52.1947253,89.8965847 51.9236424,89.9748551 51.6773769,90.1571679 C51.4263389,90.3242084 51.2478441,90.5408839 51.1581195,90.8358297 C51.0750765,91.1097762 51.0244871,91.6357152 51.0244871,92.4050562 L51.0244871,95.4900562 L49.2118587,95.4900562 L49.2118587,88.6585757 L50.8879911,88.6585757 L50.8879911,89.664637 C51.487428,88.893387 52.232906,88.5058529 53.1463791,88.5058529 C53.5396402,88.5058529 53.909993,88.5841234 54.242165,88.7225284 C54.574337,88.8580698 54.823466,89.0508823 54.985734,89.2646942 C55.1604106,89.5014145 55.2778163,89.7343167 55.3446325,90.0283081 C55.4143123,90.3242084 55.4505839,90.7203331 55.4505839,91.2519993 L55.4505839,95.4900562 Z" id="Fill-29" fill="#003363"></path>
                            <polygon id="Fill-30" fill="#003363" points="60.3531758 95.4873835 62.2612559 95.4873835 62.2612559 86.0529343 60.3531758 86.0529343"></polygon>
                            <path d="M69.4933473,95.4900562 L67.6854915,95.4900562 L67.6854915,92.007977 C67.6854915,91.2729987 67.6473108,90.8005126 67.5642678,90.5733375 C67.4850429,90.3662072 67.3580921,90.1915305 67.1948696,90.0712614 C67.0135113,89.9595828 66.8111536,89.8965847 66.5505704,89.8965847 C66.2470339,89.8965847 65.9664058,89.9748551 65.7115497,90.1571679 C65.4633752,90.3242084 65.2982437,90.5408839 65.2027919,90.8358297 C65.123567,91.1097762 65.0624779,91.6357152 65.0624779,92.4050562 L65.0624779,95.4900562 L63.2546221,95.4900562 L63.2546221,88.6585757 L64.931709,88.6585757 L64.931709,89.664637 C65.5330549,88.893387 66.2861691,88.5058529 67.1948696,88.5058529 C67.5919488,88.5058529 67.9527563,88.5841234 68.2944736,88.7225284 C68.6085097,88.8580698 68.8757746,89.0508823 69.0361335,89.2646942 C69.203174,89.5014145 69.3310794,89.7343167 69.3959865,90.0283081 C69.4561211,90.3242084 69.4933473,90.7203331 69.4933473,91.2519993 L69.4933473,95.4900562 Z" id="Fill-31" fill="#003363"></path>
                            <path d="M73.9117125,88.6583848 L73.9117125,90.099706 L72.67084,90.099706 L72.67084,92.858261 C72.67084,93.4214262 72.696612,93.738326 72.7166569,93.8347323 C72.7405198,93.9254114 72.7825185,94.011318 72.8836974,94.0619074 C72.9648314,94.1201329 73.0669647,94.1573591 73.1824613,94.1573591 C73.3437747,94.1573591 73.5890857,94.0991335 73.9117125,93.9788644 L74.0577537,95.3734142 C73.6454022,95.557636 73.1690981,95.6540423 72.6383864,95.6540423 C72.3052599,95.6540423 72.0112686,95.6024983 71.7525944,95.4898653 C71.4891476,95.3734142 71.2991986,95.2407363 71.1712933,95.0565144 C71.0557967,94.8875649 70.9651176,94.646072 70.9231188,94.3616258 C70.8782565,94.1573591 70.8601207,93.7182811 70.8601207,93.0844816 L70.8601207,90.099706 L70.0420993,90.099706 L70.0420993,88.6583848 L70.8601207,88.6583848 L70.8601207,87.3029702 L72.67084,86.2501376 L72.67084,88.6583848 L73.9117125,88.6583848 Z" id="Fill-32" fill="#003363"></path>
                            <path d="M78.6488866,91.4958785 C78.6402959,90.9708939 78.4923457,90.5728602 78.2460803,90.3027318 C77.9807244,90.0278308 77.6714608,89.8961074 77.3077897,89.8961074 C76.9030744,89.8961074 76.581402,90.0287853 76.3275004,90.3227767 C76.0630991,90.6119954 75.9371028,91.000484 75.9456935,91.4958785 L78.6488866,91.4958785 Z M78.537208,93.3256882 L80.3441093,93.6320882 C80.1159797,94.28116 79.7484905,94.7985084 79.2425963,95.1383166 C78.7519744,95.4781247 78.1181749,95.6556649 77.3793785,95.6556649 C76.1747777,95.6556649 75.2937582,95.2690854 74.7267749,94.4825632 C74.2762427,93.8668995 74.0576582,93.0813317 74.0576582,92.133496 C74.0576582,91.000484 74.3526041,90.1041922 74.9529955,89.4675291 C75.5304785,88.827048 76.2778655,88.5053757 77.2037473,88.5053757 C78.2155357,88.5053757 79.0011035,88.8451839 79.5938587,89.5228911 C80.1818414,90.1920078 80.4643785,91.2104778 80.435743,92.5973914 L75.9084673,92.5973914 C75.918967,93.1366937 76.0630991,93.5595449 76.3380001,93.8411275 C76.6291279,94.1570728 76.9756177,94.2992958 77.3879692,94.2992958 C77.6714608,94.2992958 77.9119992,94.2114802 78.1057662,94.0692572 C78.2957152,93.9117618 78.4484379,93.6607237 78.537208,93.3256882 Z" id="Fill-33" fill="#003363"></path>
                            <path d="M82.9134791,95.4900562 L81.1018052,95.4900562 L81.1018052,88.6585757 L82.775074,88.6585757 L82.775074,89.6331379 C83.0728834,89.1692425 83.324876,88.8723876 83.5615963,88.7225284 C83.7859079,88.5841234 84.0484002,88.5058529 84.3481186,88.5058529 C84.7604701,88.5058529 85.1460951,88.616577 85.529811,88.8542518 L84.9723729,90.4311144 C84.6678819,90.2297112 84.3872538,90.1294869 84.1228525,90.1294869 C83.8651328,90.1294869 83.6580026,90.1991667 83.4795078,90.3366172 C83.3029221,90.4759767 83.1635626,90.7308328 83.0557021,91.100231 C82.9592959,91.4696292 82.9134791,92.2208344 82.9134791,93.3805729 L82.9134791,95.4900562 Z" id="Fill-34" fill="#003363"></path>
                            <path d="M92.1780242,95.4900562 L90.3568051,95.4900562 L90.3568051,92.007977 C90.3568051,91.2729987 90.3310332,90.8005126 90.240354,90.5733375 C90.1678107,90.3662072 90.0379963,90.1915305 89.8633197,90.0712614 C89.6981882,89.9595828 89.4958305,89.8965847 89.2400199,89.8965847 C88.9202566,89.8965847 88.6529917,89.9748551 88.3990901,90.1571679 C88.1480521,90.3242084 87.9791025,90.5408839 87.8874688,90.8358297 C87.8044258,91.1097762 87.7509728,91.6357152 87.7509728,92.4050562 L87.7509728,95.4900562 L85.9307083,95.4900562 L85.9307083,88.6585757 L87.6144769,88.6585757 L87.6144769,89.664637 C88.2158228,88.893387 88.9689369,88.5058529 89.8680923,88.5058529 C90.2689895,88.5058529 90.6383877,88.5841234 90.9696053,88.7225284 C91.2874595,88.8580698 91.5470882,89.0508823 91.7189014,89.2646942 C91.8802148,89.5014145 91.9995294,89.7343167 92.0673002,90.0283081 C92.1293438,90.3242084 92.1780242,90.7203331 92.1780242,91.2519993 L92.1780242,95.4900562 Z" id="Fill-35" fill="#003363"></path>
                            <path d="M96.8527728,92.2182572 C96.6208251,92.2888914 96.2485633,92.3843432 95.7493507,92.4817039 C95.240593,92.5972005 94.9122391,92.6993339 94.7576073,92.7947856 C94.5256595,92.9742349 94.4092084,93.1880468 94.4092084,93.4409939 C94.4092084,93.6948955 94.5037056,93.9115709 94.6984272,94.1053379 C94.8759674,94.2809691 95.1174603,94.3764208 95.4162242,94.3764208 C95.7493507,94.3764208 96.0519327,94.2714239 96.3468786,94.0642937 C96.5568724,93.8924805 96.70005,93.6948955 96.7869111,93.4553116 C96.8250918,93.3025888 96.8527728,93.0038249 96.8527728,92.5790647 L96.8527728,92.2182572 Z M94.4282988,90.7425734 L92.7855745,90.444764 C92.9650237,89.7899651 93.2886051,89.2936161 93.7381828,88.9881705 C94.1868059,88.6598166 94.8540135,88.5051848 95.7493507,88.5051848 C96.5568724,88.5051848 97.1505822,88.6006365 97.5409798,88.7924945 C97.9361499,88.9881705 98.2310958,89.2267999 98.379046,89.5274728 C98.5413139,89.8052374 98.6157663,90.3559939 98.6157663,91.1434707 L98.6081301,93.2558175 C98.6081301,93.8409366 98.6424928,94.2943323 98.7054909,94.5816421 C98.7427171,94.8632247 98.8505775,95.1734428 99.011891,95.4903425 L97.222171,95.4903425 C97.1715816,95.3710279 97.1200376,95.2039873 97.0570395,94.9596309 C97.0188588,94.8498614 96.9988139,94.7983175 96.9940413,94.74391 C96.6857322,95.0569917 96.3516512,95.2688945 95.9889346,95.4216173 C95.6462629,95.5781581 95.2749556,95.6564286 94.8759674,95.6564286 C94.1677155,95.6564286 93.6169591,95.4588435 93.2065166,95.0837182 C92.7951196,94.6828209 92.5879894,94.2112893 92.5879894,93.6318973 C92.5879894,93.2481814 92.6901227,92.8921464 92.8686175,92.5972005 C93.06143,92.2927095 93.3229677,92.0512166 93.6389129,91.908039 C93.9873118,91.7476801 94.4702975,91.6025935 95.0859612,91.4746882 C95.9421632,91.3171928 96.5177372,91.1749697 96.8527728,91.0432463 L96.8527728,90.8590245 C96.8527728,90.5058531 96.7601846,90.2662692 96.589326,90.1040013 C96.4194219,89.9617782 96.0958405,89.8959165 95.6214454,89.8959165 C95.2864098,89.8959165 95.046826,89.9570056 94.8587861,90.0772748 C94.688882,90.2204524 94.5352047,90.4294917 94.4282988,90.7425734 Z" id="Fill-36" fill="#003363"></path>
                            <path d="M102.894008,88.6583848 L102.894008,90.099706 L101.661726,90.099706 L101.661726,92.858261 C101.661726,93.4214262 101.666499,93.738326 101.700862,93.8347323 C101.710407,93.9254114 101.762905,94.011318 101.860266,94.0619074 C101.937582,94.1201329 102.036852,94.1573591 102.16953,94.1573591 C102.335616,94.1573591 102.570427,94.0991335 102.884463,93.9788644 L103.041959,95.3734142 C102.621971,95.557636 102.13994,95.6540423 101.603501,95.6540423 C101.273238,95.6540423 100.990701,95.6024983 100.729163,95.4898653 C100.466671,95.3734142 100.285313,95.2407363 100.155498,95.0565144 C100.032365,94.8875649 99.9483679,94.646072 99.8891878,94.3616258 C99.8519617,94.1573591 99.8510071,93.7182811 99.8510071,93.0844816 L99.8510071,90.099706 L99.0119864,90.099706 L99.0119864,88.6583848 L99.8510071,88.6583848 L99.8510071,87.3029702 L101.661726,86.2501376 L101.661726,88.6583848 L102.894008,88.6583848 Z" id="Fill-37" fill="#003363"></path>
                            <path d="M103.712125,95.4912016 L105.515208,95.4912016 L105.515208,88.6587666 L103.712125,88.6587666 L103.712125,95.4912016 Z M103.712125,87.7376574 L105.515208,87.7376574 L105.515208,86.0529343 L103.712125,86.0529343 L103.712125,87.7376574 Z" id="Fill-38" fill="#003363"></path>
                            <path d="M107.867425,92.0756523 C107.867425,92.7629047 108.03542,93.2687989 108.370456,93.6391517 C108.683538,93.9999592 109.066299,94.1736814 109.549285,94.1736814 C110.022726,94.1736814 110.423623,93.9999592 110.751022,93.6391517 C111.06124,93.2687989 111.221599,92.7514505 111.221599,92.0632436 C111.221599,91.3988995 111.06124,90.8825056 110.751022,90.5293342 C110.423623,90.1570725 110.022726,89.9890774 109.549285,89.9890774 C109.066299,89.9890774 108.683538,90.1570725 108.370456,90.5293342 C108.03542,90.8825056 107.867425,91.3988995 107.867425,92.0756523 M106.021389,91.9859276 C106.021389,91.3798091 106.171248,90.8004171 106.470967,90.2334338 C106.756367,89.6874499 107.188764,89.2493265 107.728066,88.9448355 C108.270232,88.6584803 108.870623,88.5057575 109.53974,88.5057575 C110.585891,88.5057575 111.426821,88.8446111 112.082574,89.5223184 C112.747872,90.1914351 113.072408,91.0314103 113.072408,92.0546529 C113.072408,93.0998494 112.742145,93.9550969 112.076847,94.6347132 C111.419184,95.3219657 110.574437,95.6512742 109.549285,95.6512742 C108.933621,95.6512742 108.335139,95.5109601 107.765292,95.2360591 C107.192582,94.9458859 106.756367,94.5297163 106.470967,93.9789598 C106.171248,93.4282033 106.021389,92.7629047 106.021389,91.9859276" id="Fill-39" fill="#003363"></path>
                            <path d="M119.787724,95.4900562 L117.97605,95.4900562 L117.97605,92.007977 C117.97605,91.2729987 117.941688,90.8005126 117.851008,90.5733375 C117.77942,90.3662072 117.651514,90.1915305 117.483519,90.0712614 C117.309797,89.9595828 117.106485,89.8965847 116.857356,89.8965847 C116.540456,89.8965847 116.26651,89.9748551 116.012608,90.1571679 C115.756797,90.3242084 115.587848,90.5408839 115.498123,90.8358297 C115.417944,91.1097762 115.361627,91.6357152 115.361627,92.4050562 L115.361627,95.4900562 L113.548044,95.4900562 L113.548044,88.6585757 L115.233722,88.6585757 L115.233722,89.664637 C115.826477,88.893387 116.579591,88.5058529 117.483519,88.5058529 C117.892053,88.5058529 118.251906,88.5841234 118.58885,88.7225284 C118.903841,88.8580698 119.165379,89.0508823 119.33051,89.2646942 C119.492778,89.5014145 119.625456,89.7343167 119.690363,90.0283081 C119.748589,90.3242084 119.787724,90.7203331 119.787724,91.2519993 L119.787724,95.4900562 Z" id="Fill-40" fill="#003363"></path>
                            <path d="M124.668458,92.2182572 C124.429828,92.2888914 124.062339,92.3843432 123.570763,92.4817039 C123.054369,92.5972005 122.726015,92.6993339 122.575201,92.7947856 C122.338481,92.9742349 122.223939,93.1880468 122.223939,93.4409939 C122.223939,93.6948955 122.315572,93.9115709 122.513157,94.1053379 C122.696425,94.2809691 122.941736,94.3764208 123.229045,94.3764208 C123.559308,94.3764208 123.866663,94.2714239 124.161609,94.0642937 C124.384966,93.8924805 124.531962,93.6948955 124.597823,93.4553116 C124.644595,93.3025888 124.668458,93.0038249 124.668458,92.5790647 L124.668458,92.2182572 Z M122.250665,90.7425734 L120.604123,90.444764 C120.777845,89.7899651 121.10429,89.2936161 121.560549,88.9881705 C122.000582,88.6598166 122.677334,88.5051848 123.570763,88.5051848 C124.359194,88.5051848 124.977721,88.6006365 125.369073,88.7924945 C125.751835,88.9881705 126.043917,89.2267999 126.204276,89.5274728 C126.370362,89.8052374 126.444814,90.3559939 126.444814,91.1434707 L126.417133,93.2558175 C126.417133,93.8409366 126.45245,94.2943323 126.517358,94.5816421 C126.573674,94.8632247 126.677716,95.1734428 126.833303,95.4903425 L125.048355,95.4903425 C124.996811,95.3710279 124.938586,95.2039873 124.869861,94.9596309 C124.840271,94.8498614 124.811635,94.7983175 124.809726,94.74391 C124.502372,95.0569917 124.171154,95.2688945 123.816074,95.4216173 C123.463857,95.5781581 123.083959,95.6564286 122.68688,95.6564286 C121.982446,95.6564286 121.433598,95.4588435 121.022201,95.0837182 C120.619395,94.6828209 120.42181,94.2112893 120.42181,93.6318973 C120.42181,93.2481814 120.509626,92.8921464 120.693847,92.5972005 C120.87616,92.2927095 121.141516,92.0512166 121.472734,91.908039 C121.801087,91.7476801 122.280255,91.6025935 122.898782,91.4746882 C123.754984,91.3171928 124.340104,91.1749697 124.668458,91.0432463 L124.668458,90.8590245 C124.668458,90.5058531 124.571097,90.2662692 124.410738,90.1040013 C124.23797,89.9617782 123.905798,89.8959165 123.430449,89.8959165 C123.117367,89.8959165 122.861556,89.9570056 122.677334,90.0772748 C122.50743,90.2204524 122.354708,90.4294917 122.250665,90.7425734 Z" id="Fill-41" fill="#003363"></path>
                            <polygon id="Fill-42" fill="#003363" points="127.426154 95.4873835 129.241645 95.4873835 129.241645 86.0529343 127.426154 86.0529343"></polygon>
                            <path d="M133.958202,92.4233829 L135.812829,92.2496608 C135.937871,92.8653245 136.166955,93.3225383 136.501036,93.6232112 C136.847526,93.9019303 137.293285,94.0622892 137.882223,94.0622892 C138.495977,94.0622892 138.957964,93.9248387 139.274863,93.6699826 C139.577445,93.4122629 139.737804,93.1125444 139.737804,92.7517369 C139.737804,92.5302889 139.673852,92.3498851 139.534492,92.1818901 C139.407541,92.0224857 139.174639,91.9079436 138.844376,91.7809928 C138.637246,91.6989043 138.115125,91.5614538 137.326694,91.3705503 C136.30536,91.1099671 135.591381,90.8007035 135.16853,90.4313053 C134.595819,89.8986846 134.314237,89.2811119 134.314237,88.5299068 C134.314237,88.0564662 134.446915,87.6021159 134.718952,87.1725831 C134.992899,86.7659588 135.374706,86.4519226 135.898736,86.2199749 C136.411311,86.0052085 137.021248,85.899257 137.744772,85.899257 C138.937919,85.899257 139.828483,86.1569767 140.421239,86.6790977 C141.02163,87.1954916 141.331848,87.8913347 141.379574,88.7513548 L139.472448,88.845852 C139.377951,88.3533211 139.213774,88.0116039 138.937919,87.7949284 C138.670654,87.5772985 138.28312,87.4770742 137.731409,87.4770742 C137.181607,87.4770742 136.75112,87.5772985 136.432311,87.8159278 C136.225181,87.9562419 136.131638,88.1681447 136.131638,88.4086831 C136.131638,88.6253585 136.225181,88.8191255 136.417039,88.9794844 C136.649941,89.1818421 137.232196,89.3870633 138.171441,89.6018297 C139.088733,89.8290049 139.780758,90.0514074 140.22079,90.2881277 C140.669413,90.5277115 141.01113,90.8436568 141.267896,91.242645 C141.523706,91.6483149 141.64493,92.1513455 141.64493,92.7421917 C141.64493,93.2881756 141.484571,93.8007514 141.191534,94.2732375 C140.887998,94.7466781 140.45751,95.0960314 139.912481,95.322252 C139.370315,95.5475181 138.689744,95.6706509 137.856451,95.6706509 C136.676667,95.6706509 135.747922,95.3804776 135.114122,94.8449934 C134.470778,94.2789646 134.09088,93.4723975 133.958202,92.4233829" id="Fill-43" fill="#003363"></path>
                            <path d="M148.413889,90.6941794 L146.616533,91.0101246 C146.567853,90.6397719 146.428493,90.3715525 146.209909,90.1987849 C146.001824,90.0174266 145.727878,89.9257929 145.389979,89.9257929 C144.934674,89.9257929 144.57673,90.0775612 144.312329,90.3906428 C144.0422,90.7056336 143.911431,91.2182094 143.911431,91.9541422 C143.911431,92.7626184 144.0422,93.3410559 144.318056,93.6846821 C144.586275,94.009218 144.957582,94.175304 145.409069,94.175304 C145.759377,94.175304 146.037141,94.0760342 146.249044,93.8860853 C146.471447,93.6932728 146.627988,93.3534646 146.73203,92.8809785 L148.497887,93.1797425 C148.313665,93.9996728 147.955721,94.6115184 147.435509,95.0305516 C146.90957,95.4438576 146.201318,95.6538514 145.32698,95.6538514 C144.319965,95.6538514 143.529624,95.3369516 142.93496,94.7012431 C142.354614,94.0760342 142.035805,93.2016964 142.035805,92.0858656 C142.035805,90.94999 142.354614,90.0775612 142.94546,89.4552159 C143.543942,88.8204619 144.343828,88.5054711 145.364207,88.5054711 C146.1975,88.5054711 146.847527,88.6839659 147.349603,89.0485915 C147.823043,89.3998539 148.197214,89.959201 148.413889,90.6941794" id="Fill-44" fill="#003363"></path>
                            <path d="M150.897162,86.0549388 L150.897162,89.5255638 C151.476554,88.8545381 152.172397,88.5051848 152.983737,88.5051848 C153.404679,88.5051848 153.774077,88.5805916 154.11484,88.7457231 C154.443194,88.8936733 154.69805,89.0903039 154.867954,89.3241606 C155.035949,89.5771077 155.147627,89.8338729 155.220171,90.1278642 C155.268851,90.4314007 155.309895,90.8733423 155.309895,91.4832788 L155.309895,95.4903425 L153.498221,95.4903425 L153.498221,91.8870397 C153.498221,91.1654246 153.465768,90.7091653 153.404679,90.5287615 C153.32259,90.3244948 153.207094,90.171772 153.033372,90.0620025 C152.858695,89.9598692 152.632474,89.8959165 152.379527,89.8959165 C152.075036,89.8959165 151.812544,89.9598692 151.577733,90.1068648 C151.341012,90.2567241 151.161563,90.4762631 151.051794,90.7683454 C150.94966,91.0585186 150.897162,91.4956876 150.897162,92.0760341 L150.897162,95.4903425 L149.08167,95.4903425 L149.08167,86.0549388 L150.897162,86.0549388 Z" id="Fill-45" fill="#003363"></path>
                            <path d="M157.653331,92.0756523 C157.653331,92.7629047 157.800326,93.2687989 158.130589,93.6391517 C158.449398,93.9999592 158.850296,94.1736814 159.319918,94.1736814 C159.787632,94.1736814 160.192347,93.9999592 160.516883,93.6391517 C160.831874,93.2687989 160.988414,92.7514505 160.988414,92.0632436 C160.988414,91.3988995 160.831874,90.8825056 160.516883,90.5293342 C160.192347,90.1570725 159.787632,89.9890774 159.319918,89.9890774 C158.850296,89.9890774 158.449398,90.1570725 158.130589,90.5293342 C157.800326,90.8825056 157.653331,91.3988995 157.653331,92.0756523 M155.789158,91.9859276 C155.789158,91.3798091 155.941881,90.8004171 156.240645,90.2334338 C156.523182,89.6874499 156.950806,89.2493265 157.49679,88.9448355 C158.044683,88.6584803 158.641256,88.5057575 159.314191,88.5057575 C160.348888,88.5057575 161.199363,88.8446111 161.862752,89.5223184 C162.52996,90.1914351 162.844951,91.0314103 162.844951,92.0546529 C162.844951,93.0998494 162.509915,93.9550969 161.846525,94.6347132 C161.189818,95.3219657 160.343161,95.6512742 159.337099,95.6512742 C158.693755,95.6512742 158.106727,95.5109601 157.534016,95.2360591 C156.970851,94.9458859 156.523182,94.5297163 156.240645,93.9789598 C155.941881,93.4282033 155.789158,92.7629047 155.789158,91.9859276" id="Fill-46" fill="#003363"></path>
                            <path d="M165.062008,92.0756523 C165.062008,92.7629047 165.214731,93.2687989 165.544994,93.6391517 C165.861893,93.9999592 166.255155,94.1736814 166.732413,94.1736814 C167.205854,94.1736814 167.597206,93.9999592 167.912197,93.6391517 C168.246278,93.2687989 168.40091,92.7514505 168.40091,92.0632436 C168.40091,91.3988995 168.246278,90.8825056 167.912197,90.5293342 C167.597206,90.1570725 167.205854,89.9890774 166.732413,89.9890774 C166.255155,89.9890774 165.861893,90.1570725 165.544994,90.5293342 C165.214731,90.8825056 165.062008,91.3988995 165.062008,92.0756523 M163.211199,91.9859276 C163.211199,91.3798091 163.358195,90.8004171 163.650277,90.2334338 C163.941405,89.6874499 164.371892,89.2493265 164.909285,88.9448355 C165.451451,88.6584803 166.053751,88.5057575 166.732413,88.5057575 C167.761383,88.5057575 168.606131,88.8446111 169.275247,89.5223184 C169.928137,90.1914351 170.266991,91.0314103 170.266991,92.0546529 C170.266991,93.0998494 169.928137,93.9550969 169.257112,94.6347132 C168.606131,95.3219657 167.751838,95.6512742 166.747686,95.6512742 C166.118659,95.6512742 165.513495,95.5109601 164.950329,95.2360591 C164.37571,94.9458859 163.941405,94.5297163 163.650277,93.9789598 C163.358195,93.4282033 163.211199,92.7629047 163.211199,91.9859276" id="Fill-47" fill="#003363"></path>
                            <polygon id="Fill-48" fill="#003363" points="170.893918 95.4873835 172.702728 95.4873835 172.702728 86.0529343 170.893918 86.0529343"></polygon>
                            <path d="M178.218311,92.0756523 C178.218311,92.7629047 178.37867,93.2687989 178.699388,93.6391517 C179.034423,93.9999592 179.415276,94.1736814 179.884898,94.1736814 C180.360248,94.1736814 180.763054,93.9999592 181.093317,93.6391517 C181.396854,93.2687989 181.564849,92.7514505 181.564849,92.0632436 C181.564849,91.3988995 181.396854,90.8825056 181.093317,90.5293342 C180.763054,90.1570725 180.360248,89.9890774 179.884898,89.9890774 C179.415276,89.9890774 179.034423,90.1570725 178.699388,90.5293342 C178.37867,90.8825056 178.218311,91.3988995 178.218311,92.0756523 M176.367502,91.9859276 C176.367502,91.3798091 176.512589,90.8004171 176.818034,90.2334338 C177.097708,89.6874499 177.526286,89.2493265 178.069406,88.9448355 C178.61539,88.6584803 179.213873,88.5057575 179.884898,88.5057575 C180.925322,88.5057575 181.77007,88.8446111 182.425823,89.5223184 C183.08444,90.1914351 183.413749,91.0314103 183.413749,92.0546529 C183.413749,93.0998494 183.08444,93.9550969 182.414369,94.6347132 C181.760525,95.3219657 180.919595,95.6512742 179.905898,95.6512742 C179.273053,95.6512742 178.673616,95.5109601 178.108542,95.2360591 C177.539649,94.9458859 177.097708,94.5297163 176.818034,93.9789598 C176.512589,93.4282033 176.367502,92.7629047 176.367502,91.9859276" id="Fill-49" fill="#003363"></path>
                            <path d="M183.846622,88.6583848 L184.847911,88.6583848 L184.847911,88.1439 C184.847911,87.5721441 184.901364,87.1378387 185.026406,86.8629377 C185.145721,86.577537 185.37385,86.3408168 185.70125,86.1565949 C186.033422,85.9924179 186.441955,85.8988752 186.948804,85.8988752 C187.457562,85.8988752 187.957729,85.9752366 188.456941,86.132732 L188.220221,87.3850587 C187.923366,87.3239696 187.645601,87.293425 187.383109,87.293425 C187.120617,87.293425 186.943077,87.3459235 186.819944,87.4776469 C186.710174,87.5979161 186.647176,87.8365454 186.647176,88.1773081 L186.647176,88.6583848 L188.002591,88.6583848 L188.002591,90.0806156 L186.647176,90.0806156 L186.647176,95.4898653 L184.847911,95.4898653 L184.847911,90.0806156 L183.846622,90.0806156 L183.846622,88.6583848 Z" id="Fill-50" fill="#003363"></path>
                            <path d="M196.656149,92.0224857 L196.656149,90.4351234 L200.777755,90.4351234 L200.777755,94.1921035 C200.380676,94.5786831 199.799375,94.9175367 199.036716,95.2172551 C198.277874,95.510292 197.517124,95.6544241 196.738238,95.6544241 C195.744585,95.6544241 194.890292,95.4530209 194.150542,95.0406694 C193.427017,94.6340451 192.86767,94.0317446 192.499227,93.2652672 C192.133646,92.4816085 191.941788,91.6473604 191.941788,90.7424779 C191.941788,89.7621886 192.146055,88.8897598 192.57177,88.1232824 C192.976485,87.3653956 193.585467,86.7755039 194.375808,86.3707886 C194.972381,86.0548434 195.731222,85.899257 196.640877,85.899257 C197.802525,85.899257 198.721725,86.1531586 199.378433,86.6332809 C200.041822,87.1286753 200.462765,87.8054281 200.64985,88.6788115 L198.749406,89.0224377 C198.626273,88.5728601 198.387644,88.2053709 198.017291,87.9352425 C197.63453,87.6632051 197.182089,87.5333907 196.640877,87.5333907 C195.798993,87.5333907 195.136558,87.7949284 194.639254,88.3160949 C194.150542,88.8544427 193.913821,89.6371469 193.913821,90.6756617 C193.913821,91.790538 194.163905,92.6305132 194.65739,93.1955875 C195.146103,93.7511165 195.798993,94.0317446 196.611287,94.0317446 C197.010275,94.0317446 197.4169,93.9544287 197.81207,93.8007514 C198.224421,93.6384835 198.561366,93.4523526 198.842949,93.2289956 L198.842949,92.0224857 L196.656149,92.0224857 Z" id="Fill-51" fill="#003363"></path>
                            <path d="M206.108162,95.4900562 L206.108162,94.4725407 C205.859987,94.8448025 205.513498,95.1197035 205.122145,95.3373334 C204.702158,95.5406456 204.281216,95.6513696 203.831638,95.6513696 C203.377288,95.6513696 202.968754,95.5454182 202.595538,95.3564238 C202.235685,95.1521571 201.965557,94.8667564 201.803289,94.4964037 C201.641021,94.1384597 201.560841,93.6325655 201.560841,92.9939934 L201.560841,88.6585757 L203.37347,88.6585757 L203.37347,91.8056193 C203.37347,92.7630002 203.395424,93.3557555 203.467967,93.5733854 C203.546237,93.7900608 203.649325,93.9551923 203.831638,94.076416 C204.007269,94.211003 204.226808,94.2720921 204.498846,94.2720921 C204.810973,94.2720921 205.088737,94.1928671 205.333094,94.0229631 C205.576496,93.8396957 205.748309,93.6392471 205.839942,93.3901181 C205.930622,93.1362165 205.964984,92.530098 205.964984,91.5421725 L205.964984,88.6585757 L207.786203,88.6585757 L207.786203,95.4900562 L206.108162,95.4900562 Z" id="Fill-52" fill="#003363"></path>
                            <path d="M212.448639,92.2182572 C212.210009,92.2888914 211.844429,92.3843432 211.341399,92.4817039 C210.856504,92.5972005 210.524332,92.6993339 210.365882,92.7947856 C210.127252,92.9742349 210.013665,93.1880468 210.013665,93.4409939 C210.013665,93.6948955 210.10339,93.9115709 210.293338,94.1053379 C210.487105,94.2809691 210.723826,94.3764208 211.018772,94.3764208 C211.341399,94.3764208 211.646844,94.2714239 211.94179,94.0642937 C212.168965,93.8924805 212.314052,93.6948955 212.379913,93.4553116 C212.433366,93.3025888 212.448639,93.0038249 212.448639,92.5790647 L212.448639,92.2182572 Z M210.025119,90.7425734 L208.382395,90.444764 C208.576162,89.7899651 208.884471,89.2936161 209.34073,88.9881705 C209.794126,88.6598166 210.459424,88.5051848 211.341399,88.5051848 C212.161329,88.5051848 212.752175,88.6006365 213.153072,88.7924945 C213.541561,88.9881705 213.82028,89.2267999 213.990184,89.5274728 C214.152452,89.8052374 214.221177,90.3559939 214.221177,91.1434707 L214.201132,93.2558175 C214.201132,93.8409366 214.230722,94.2943323 214.288948,94.5816421 C214.357673,94.8632247 214.457898,95.1734428 214.622075,95.4903425 L212.823764,95.4903425 C212.776993,95.3710279 212.71304,95.2039873 212.651951,94.9596309 C212.620452,94.8498614 212.60327,94.7983175 212.589907,94.74391 C212.276825,95.0569917 211.951335,95.2688945 211.593391,95.4216173 C211.244038,95.5781581 210.867958,95.6564286 210.472788,95.6564286 C209.76549,95.6564286 209.21187,95.4588435 208.810973,95.0837182 C208.405303,94.6828209 208.198173,94.2112893 208.198173,93.6318973 C208.198173,93.2481814 208.302215,92.8921464 208.477847,92.5972005 C208.650614,92.2927095 208.912152,92.0512166 209.251006,91.908039 C209.592723,91.7476801 210.066163,91.6025935 210.699963,91.4746882 C211.535166,91.3171928 212.120285,91.1749697 212.448639,91.0432463 L212.448639,90.8590245 C212.448639,90.5058531 212.360823,90.2662692 212.186146,90.1040013 C212.027696,89.9617782 211.695524,89.8959165 211.222084,89.8959165 C210.897548,89.8959165 210.636965,89.9570056 210.459424,90.0772748 C210.293338,90.2204524 210.136798,90.4294917 210.025119,90.7425734 Z" id="Fill-53" fill="#003363"></path>
                            <path d="M221.402775,95.4900562 L219.599691,95.4900562 L219.599691,92.007977 C219.599691,91.2729987 219.57201,90.8005126 219.478468,90.5733375 C219.407833,90.3662072 219.277065,90.1915305 219.111933,90.0712614 C218.936302,89.9595828 218.729172,89.8965847 218.479088,89.8965847 C218.166006,89.8965847 217.890151,89.9748551 217.639113,90.1571679 C217.379484,90.3242084 217.224852,90.5408839 217.122719,90.8358297 C217.025358,91.1097762 216.990041,91.6357152 216.990041,92.4050562 L216.990041,95.4900562 L215.170731,95.4900562 L215.170731,88.6585757 L216.855454,88.6585757 L216.855454,89.664637 C217.455846,88.893387 218.207051,88.5058529 219.111933,88.5058529 C219.513785,88.5058529 219.881274,88.5841234 220.209628,88.7225284 C220.528437,88.8580698 220.794747,89.0508823 220.960833,89.2646942 C221.128828,89.5014145 221.25387,89.7343167 221.303505,90.0283081 C221.373185,90.3242084 221.402775,90.7203331 221.402775,91.2519993 L221.402775,95.4900562 Z" id="Fill-54" fill="#003363"></path>
                            <path d="M224.203424,93.5374001 C224.495506,93.8676631 224.831496,94.0413853 225.246711,94.0413853 C225.686744,94.0413853 226.073323,93.8676631 226.363497,93.5202188 C226.662261,93.1670474 226.816892,92.6659258 226.816892,91.9863095 C226.816892,91.273285 226.684214,90.7425734 226.390223,90.4094468 C226.087641,90.0620025 225.720152,89.8959165 225.283938,89.8959165 C224.841996,89.8959165 224.495506,90.0620025 224.203424,90.3903565 C223.92375,90.7397098 223.787254,91.2408314 223.787254,91.9404926 C223.787254,92.6659258 223.92375,93.1928194 224.203424,93.5374001 Z M224.231105,96.1976399 C224.266422,96.4419963 224.342783,96.6033097 224.473552,96.6901708 C224.64632,96.8247578 224.917403,96.8887104 225.283938,96.8887104 C225.757378,96.8887104 226.121049,96.8238032 226.34727,96.6863528 C226.512401,96.5832649 226.623125,96.4238605 226.715714,96.2157757 C226.758667,96.0611439 226.793984,95.7938791 226.793984,95.3824821 L226.793984,94.3945567 C226.249909,95.1390802 225.575065,95.4903425 224.739863,95.4903425 C223.832117,95.4903425 223.100956,95.1142627 222.556882,94.3277404 C222.14453,93.7206674 221.924991,92.9599171 221.924991,92.046444 C221.924991,90.9010233 222.202756,90.0171402 222.762103,89.4157943 C223.313814,88.8115848 224.002021,88.5051848 224.812406,88.5051848 C225.655245,88.5051848 226.353951,88.8784011 226.919026,89.6210155 L226.919026,88.6559985 L228.600885,88.6559985 L228.600885,94.7983175 C228.600885,95.6010666 228.53216,96.2129122 228.397573,96.6033097 C228.270622,97.0185248 228.078764,97.3258794 227.842044,97.5416003 C227.597688,97.773548 227.286515,97.9634969 226.872254,98.0742209 C226.478993,98.2059443 225.974054,98.269897 225.353617,98.269897 C224.195788,98.269897 223.388266,98.0742209 222.885236,97.6714146 C222.411795,97.2848351 222.154075,96.7818045 222.154075,96.1680498 C222.154075,96.1126878 222.175075,96.0325084 222.175075,95.9513744 L224.231105,96.1976399 Z" id="Fill-55" fill="#003363"></path>
                            <path d="M229.230962,95.4900562 L229.230962,94.0897793 L231.797659,91.1450933 C232.215738,90.6611531 232.52882,90.3242084 232.732132,90.1247143 C232.513547,90.137123 232.239601,90.137123 231.898838,90.1571679 L229.484864,90.1571679 L229.484864,88.6585757 L235.155651,88.6585757 L235.155651,89.941447 L232.52882,92.9605853 L231.601983,93.9551923 C232.104059,93.9265568 232.420959,93.9017394 232.532638,93.9017394 L235.349418,93.9017394 L235.349418,95.4900562 L229.230962,95.4900562 Z" id="Fill-56" fill="#003363"></path>
                            <path d="M237.769406,86.0549388 L237.769406,89.5255638 C238.348798,88.8545381 239.04655,88.5051848 239.860753,88.5051848 C240.267378,88.5051848 240.640594,88.5805916 240.97563,88.7457231 C241.321165,88.8936733 241.572203,89.0903039 241.745925,89.3241606 C241.910102,89.5771077 242.025599,89.8338729 242.096233,90.1278642 C242.15064,90.4314007 242.180231,90.8733423 242.180231,91.4832788 L242.180231,95.4903425 L240.374284,95.4903425 L240.374284,91.8870397 C240.374284,91.1654246 240.333239,90.7091653 240.267378,90.5287615 C240.206289,90.3244948 240.085065,90.171772 239.895116,90.0620025 C239.732848,89.9598692 239.519991,89.8959165 239.262271,89.8959165 C238.949189,89.8959165 238.684788,89.9598692 238.440432,90.1068648 C238.215166,90.2567241 238.039534,90.4762631 237.935492,90.7683454 C237.818086,91.0585186 237.769406,91.4956876 237.769406,92.0760341 L237.769406,95.4903425 L235.953914,95.4903425 L235.953914,86.0549388 L237.769406,86.0549388 Z" id="Fill-57" fill="#003363"></path>
                            <path d="M244.58905,92.0756523 C244.58905,92.7629047 244.749409,93.2687989 245.068218,93.6391517 C245.394663,93.9999592 245.797469,94.1736814 246.267092,94.1736814 C246.740532,94.1736814 247.116612,93.9999592 247.452602,93.6391517 C247.763775,93.2687989 247.924134,92.7514505 247.924134,92.0632436 C247.924134,91.3988995 247.763775,90.8825056 247.452602,90.5293342 C247.116612,90.1570725 246.740532,89.9890774 246.267092,89.9890774 C245.797469,89.9890774 245.394663,90.1570725 245.068218,90.5293342 C244.749409,90.8825056 244.58905,91.3988995 244.58905,92.0756523 M242.739196,91.9859276 C242.739196,91.3798091 242.885237,90.8004171 243.179228,90.2334338 C243.489446,89.6874499 243.898934,89.2493265 244.436328,88.9448355 C244.988039,88.6584803 245.590339,88.5057575 246.267092,88.5057575 C247.286516,88.5057575 248.131264,88.8446111 248.798472,89.5223184 C249.460907,90.1914351 249.794033,91.0314103 249.794033,92.0546529 C249.794033,93.0998494 249.460907,93.9550969 248.796563,94.6347132 C248.11981,95.3219657 247.27888,95.6512742 246.272819,95.6512742 C245.643792,95.6512742 245.040537,95.5109601 244.486917,95.2360591 C243.898934,94.9458859 243.489446,94.5297163 243.179228,93.9789598 C242.885237,93.4282033 242.739196,92.7629047 242.739196,91.9859276" id="Fill-58" fill="#003363"></path>
                            <path d="M254.950718,95.4900562 L254.950718,94.4725407 C254.698725,94.8448025 254.374189,95.1197035 253.970428,95.3373334 C253.563804,95.5406456 253.139044,95.6513696 252.693284,95.6513696 C252.225571,95.6513696 251.809401,95.5454182 251.447639,95.3564238 C251.089695,95.1521571 250.819567,94.8667564 250.65539,94.4964037 C250.495031,94.1384597 250.41676,93.6325655 250.41676,92.9939934 L250.41676,88.6585757 L252.225571,88.6585757 L252.225571,91.8056193 C252.225571,92.7630002 252.255161,93.3557555 252.321977,93.5733854 C252.392611,93.7900608 252.506199,93.9551923 252.693284,94.076416 C252.866052,94.211003 253.088454,94.2720921 253.360492,94.2720921 C253.665937,94.2720921 253.941793,94.1928671 254.186149,94.0229631 C254.426688,93.8396957 254.587047,93.6392471 254.692998,93.3901181 C254.786541,93.1362165 254.827585,92.530098 254.827585,91.5421725 L254.827585,88.6585757 L256.641168,88.6585757 L256.641168,95.4900562 L254.950718,95.4900562 Z" id="Fill-59" fill="#003363"></path>
                            <path d="M70.9190144,1.47477706 C70.4150292,1.25714711 69.853773,1.13210534 69.2934714,1.13210534 C68.7436694,1.13210534 68.034463,1.37168919 68.034463,2.24220899 C68.034463,3.62721362 71.5365871,3.04304902 71.5365871,5.72237915 C71.5365871,7.47391843 70.1515825,8.13730797 68.5374937,8.13730797 C67.6679284,8.13730797 67.2784853,8.02276589 66.488145,7.82899888 L66.6370497,6.3867232 C67.1868516,6.68357809 67.8168331,6.87829962 68.44586,6.87829962 C69.052933,6.87829962 69.8652273,6.56903601 69.8652273,5.84837543 C69.8652273,4.32496579 66.3631032,4.95494722 66.3631032,2.30997972 C66.3631032,0.525032326 67.7481078,-0.127857522 69.1560209,-0.127857522 C69.8432734,-0.127857522 70.4837545,-0.0362238595 71.0679191,0.158497674 L70.9190144,1.47477706 Z" id="Fill-60" fill="#231916"></path>
                            <polygon id="Fill-61" fill="#231916" points="87.5177843 8.00109835 89.1204188 8.00109835 89.1204188 0.00987932718 87.5177843 0.00987932718"></polygon>
                            <polygon id="Fill-62" fill="#231916" points="105.421475 0.00949752025 107.390644 0.00949752025 110.435554 5.98573048 110.458463 5.98573048 110.458463 0.00949752025 111.992372 0.00949752025 111.992372 8.00071654 110.034657 8.00071654 106.978293 2.02448359 106.955384 2.02448359 106.955384 8.00071654 105.421475 8.00071654"></polygon>
                            <path d="M134.248089,7.88560175 C133.663924,8.02305225 133.034897,8.13759433 132.427824,8.13759433 C129.840128,8.13759433 128.042772,6.84422336 128.042772,4.14198482 C128.042772,1.40633817 129.714132,-0.127571167 132.427824,-0.127571167 C132.954718,-0.127571167 133.65247,-0.0244832964 134.23568,0.204600861 L134.122093,1.55524287 C133.51502,1.21161664 132.965218,1.13143718 132.393462,1.13143718 C130.74501,1.13143718 129.714132,2.39044553 129.714132,4.02744274 C129.714132,5.65394025 130.722102,6.87858598 132.427824,6.87858598 C133.056851,6.87858598 133.801375,6.74113549 134.179364,6.54641395 L134.248089,7.88560175 Z" id="Fill-63" fill="#231916"></path>
                            <polygon id="Fill-64" fill="#231916" points="150.092695 0.00949752025 154.808965 0.00949752025 154.808965 1.26850587 151.695329 1.26850587 151.695329 3.2376751 154.545518 3.2376751 154.545518 4.49763797 151.695329 4.49763797 151.695329 6.74075368 154.831873 6.74075368 154.831873 8.00071654 150.092695 8.00071654"></polygon>
                            <polygon id="Fill-65" fill="#231916" points="191.280499 0.00949752025 192.698912 0.00949752025 192.698912 8.00071654 191.097232 8.00071654 191.097232 1.82976205 189.74659 2.92936601 188.944795 1.88703309"></polygon>
                            <path d="M213.339776,2.482461 C213.339776,1.72648328 213.019058,1.06309374 212.229672,1.06309374 C211.485149,1.06309374 211.175885,1.78470884 211.175885,2.49391521 C211.175885,3.27280134 211.496603,3.99346192 212.26308,3.99346192 C213.041967,3.99346192 213.339776,3.28330103 213.339776,2.482461 Z M210.179369,6.55824997 C210.604129,6.74056277 211.038435,6.87801327 211.576782,6.87801327 C212.961787,6.87801327 213.43141,5.59609651 213.477226,4.4058134 L213.454318,4.38290499 C213.076329,4.94416117 212.583798,5.18469954 211.908955,5.18469954 C210.397954,5.18469954 209.573251,4.22254608 209.573251,2.74590778 C209.573251,1.01727691 210.419907,-0.12718936 212.229672,-0.12718936 C214.44988,-0.12718936 214.942411,1.71502907 214.942411,3.59256465 C214.942411,5.75645542 214.243704,8.13797614 211.656962,8.13797614 C211.072797,8.13797614 210.52395,8.04634247 209.974148,7.85162094 L210.179369,6.55824997 Z" id="Fill-66" fill="#231916"></path>
                            <path d="M234.324171,2.07049132 C234.324171,1.47487251 233.946182,1.06252103 233.340064,1.06252103 C232.754945,1.06252103 232.171735,1.38323885 232.171735,2.02467449 C232.171735,2.71097245 232.880941,3.02023606 233.430743,3.2264118 C233.877457,3.06605289 234.324171,2.56302226 234.324171,2.07049132 Z M232.103009,5.81410826 C232.103009,6.4774978 232.674765,6.94712032 233.316201,6.94712032 C233.957636,6.94712032 234.461622,6.54622305 234.461622,5.88283351 C234.461622,5.09249317 233.786778,4.71545882 233.121479,4.49687436 C232.549723,4.77177535 232.103009,5.13831 232.103009,5.81410826 Z M234.530347,3.69603432 L234.530347,3.71894274 C235.583179,4.21147368 236.064256,4.89777163 236.064256,5.81410826 C236.064256,7.42819705 234.896882,8.13740342 233.316201,8.13740342 C231.759383,8.13740342 230.500375,7.46255968 230.500375,5.83701668 C230.500375,4.94358846 231.003405,4.32506124 231.965559,3.85639323 L231.965559,3.83348482 C231.163764,3.47840437 230.637825,2.81406032 230.637825,1.97885766 C230.637825,0.548036194 231.72502,-0.127762071 233.179705,-0.127762071 C234.586663,-0.127762071 235.857126,0.456402531 235.857126,1.79559033 C235.857126,2.51720543 235.411366,3.35240809 234.530347,3.70748853 L234.530347,3.69603432 Z" id="Fill-67" fill="#231916"></path>
                            <polygon id="Fill-68" fill="#231916" points="254.369989 0.00949752025 255.788402 0.00949752025 255.788402 8.00071654 254.186722 8.00071654 254.186722 1.82976205 252.83608 2.92936601 252.034286 1.88703309"></polygon>
                        </g>
                    </g>
                </g>
            </g>
        </g>
    </g>
</svg>