<?xml version="1.0" encoding="UTF-8"?>
<svg width="21px" height="21px" viewBox="0 0 21 21" version="1.1" xmlns="http://www.w3.org/2000/svg" xmlns:xlink="http://www.w3.org/1999/xlink">
    <!-- Generator: Sketch 49.1 (51147) - http://www.bohemiancoding.com/sketch -->
    <title>np_link_1066853_000000</title>
    <desc>Created with Sketch.</desc>
    <defs></defs>
    <g id="Page-1" stroke="none" stroke-width="1" fill="none" fill-rule="evenodd">
        <g id="Artboard" transform="translate(-1287.000000, -24.000000)" fill="#003363" fill-rule="nonzero">
            <g id="np_link_1066853_000000" transform="translate(1287.000000, 24.000000)">
                <path d="M19.6391583,1.36077896 C18.7618211,0.483500218 17.5945772,0 16.3541845,0 C15.1125597,0 13.946408,0.483500218 13.0692108,1.36077896 L10.5192254,3.91059434 C9.64188812,4.78787309 9.15835566,5.95503914 9.15835566,7.1953491 C9.15835566,7.97089286 9.34760712,8.71801355 9.70313481,9.38308537 L9.38152664,9.70576422 C8.71531828,9.34917371 7.96923996,9.15992927 7.19364449,9.15992927 C5.95201962,9.15992927 4.78586793,9.64342949 3.90867071,10.5207082 L1.35868532,13.0705236 C-0.452895106,14.8819833 -0.452895106,17.8276774 1.35868532,19.6403132 C2.23711475,20.5175919 3.40326644,21 4.64365909,21 C5.88528396,21 7.05143565,20.5164998 7.92863287,19.6403132 L10.4786183,17.0904978 C11.9576126,15.6116021 12.2267396,13.3756166 11.2914042,11.6189869 L11.6151968,11.2952159 C12.280313,11.6518064 13.0274835,11.8410508 13.8041711,11.8410508 C15.045796,11.8410508 16.2119477,11.3575506 17.0891449,10.4802719 L19.6391303,7.93045649 C20.5175597,7.05317774 21,5.88601169 21,4.64570174 C20.9989061,3.40415965 20.5164675,2.23808571 19.6391303,1.36094698 L19.6391583,1.36077896 Z M8.56518405,15.1785913 L6.01519865,17.7284067 C5.64872664,18.0959464 5.16082542,18.2972041 4.64231486,18.2972041 C4.12377629,18.2972041 3.63587507,18.0959324 3.26943106,17.7294988 C2.51243084,16.972549 2.51243084,15.7397439 3.26943106,14.9827941 L5.81941646,12.4329788 C6.18588847,12.0665312 6.67378969,11.8641813 7.19230026,11.8641813 C7.20105178,11.8641813 7.20980331,11.8663689 7.21964871,11.8674627 L6.2033792,12.8836645 C5.67501092,13.4119975 5.67501092,14.2674059 6.2033792,14.795739 C6.46702005,15.0593623 6.81380182,15.1917297 7.1594942,15.1917297 C7.50518659,15.1917297 7.85197116,15.0593707 8.11560921,14.795739 L9.13078652,13.7806293 C9.13735031,14.2859999 8.95138159,14.7946469 8.56522774,15.1785963 L8.56518405,15.1785913 Z M17.7269843,6.018522 L15.1769989,8.56833738 C14.8105269,8.93478496 14.3226257,9.13604269 13.8041151,9.13604269 C13.7953636,9.13604269 13.7866121,9.1338551 13.7767667,9.1338551 L15.1113678,7.79934297 C15.6397361,7.27100991 15.6397361,6.41560152 15.1113678,5.88726846 C14.5829995,5.35893541 13.7275341,5.35893541 13.1991658,5.88726846 L11.8645647,7.22178059 C11.8645647,7.21302965 11.8623769,7.2042787 11.8623769,7.19443368 C11.8623769,6.67592968 12.0636621,6.18806099 12.4312123,5.82164142 L14.9811977,3.27182604 C15.3476697,2.90537846 15.8355709,2.70302861 16.3540815,2.70302861 C16.872592,2.70302861 17.3605213,2.90539526 17.7269653,3.27182604 C18.0934093,3.63825681 18.2958006,4.1261423 18.2958006,4.6446183 C18.2958006,5.16421442 18.0934205,5.6520831 17.7269653,6.01850268 L17.7269843,6.018522 Z" id="Shape"></path>
            </g>
        </g>
    </g>
</svg>