<?xml version="1.0" encoding="utf-8"?>
<!-- Generator: Adobe Illustrator 21.0.2, SVG Export Plug-In . SVG Version: 6.00 Build 0)  -->
<svg version="1.1" id="Layer_1" xmlns="http://www.w3.org/2000/svg" xmlns:xlink="http://www.w3.org/1999/xlink" x="0px" y="0px"
	 viewBox="0 0 85 57" style="enable-background:new 0 0 85 57;" xml:space="preserve">
<style type="text/css">
	.st0{fill:#BB141B;}
</style>
<title>quote</title>
<desc>Created with Sketch.</desc>
<g id="Symbols">
	<g id="icons" transform="translate(-896.000000, -19.000000)">
		<g id="quote" transform="translate(896.000000, 19.000000)">
			<path id="Shape" class="st0" d="M41.9,21.4c0-11.3-9.1-20.4-20.4-20.4S2,9.8,1,21c-1.5,17.1,11.6,31.5,27.4,36.1
				c-5.4-3.3-9.1-8.9-9.8-15.5c0.9,0.1,1.9,0.2,2.8,0.2C32.7,41.8,41.9,32.6,41.9,21.4L41.9,21.4z"/>
			<path id="Shape_1_" class="st0" d="M85,21.4c0-11.3-9.1-20.4-20.4-20.4C53.3,0.9,45.1,9.8,44.2,21c-1.5,17.1,11.6,31.5,27.4,36.1
				c-5.4-3.3-9.1-8.9-9.8-15.5c0.9,0.1,1.9,0.2,2.8,0.2C75.9,41.8,85,32.6,85,21.4L85,21.4z"/>
		</g>
	</g>
</g>
</svg>
