<?xml version="1.0" standalone="no"?>
<!DOCTYPE svg PUBLIC "-//W3C//DTD SVG 1.1//EN" "http://www.w3.org/Graphics/SVG/1.1/DTD/svg11.dtd" >
<svg xmlns="http://www.w3.org/2000/svg">
<metadata>Generated by IcoMoon</metadata>
<defs>
<font id="icomoon" horiz-adv-x="1024">
<font-face units-per-em="1024" ascent="960" descent="-64" />
<missing-glyph horiz-adv-x="1024" />
<glyph unicode="&#x20;" horiz-adv-x="512" d="" />
<glyph unicode="&#xe900;" glyph-name="quotes-left" d="M225 512c123.712 0 224-100.29 224-224 0-123.712-100.288-224-224-224s-224 100.288-224 224l-1 32c0 247.424 200.576 448 448 448v-128c-85.474 0-165.834-33.286-226.274-93.726-11.634-11.636-22.252-24.016-31.83-37.020 11.438 1.8 23.16 2.746 35.104 2.746zM801 512c123.71 0 224-100.29 224-224 0-123.712-100.29-224-224-224s-224 100.288-224 224l-1 32c0 247.424 200.576 448 448 448v-128c-85.474 0-165.834-33.286-226.274-93.726-11.636-11.636-22.254-24.016-31.832-37.020 11.44 1.8 23.16 2.746 35.106 2.746z" />
<glyph unicode="&#xe901;" glyph-name="quotes-right" d="M800 320c-123.712 0-224 100.29-224 224 0 123.712 100.288 224 224 224s224-100.288 224-224l1-32c0-247.424-200.576-448-448-448v128c85.474 0 165.834 33.286 226.274 93.726 11.634 11.636 22.252 24.016 31.83 37.020-11.438-1.8-23.16-2.746-35.104-2.746zM224 320c-123.71 0-224 100.29-224 224 0 123.712 100.29 224 224 224s224-100.288 224-224l1-32c0-247.424-200.576-448-448-448v128c85.474 0 165.834 33.286 226.274 93.726 11.636 11.636 22.254 24.016 31.832 37.020-11.44-1.8-23.16-2.746-35.106-2.746z" />
<glyph unicode="&#xe902;" glyph-name="accordian_arrow" horiz-adv-x="573" d="M57.723-64c-13.8 0-27.6 5.28-38.16 15.8-21.080 21.080-21.080 55.24 0 76.32l419.84 419.881-419.84 419.881c-21.080 21.080-21.080 55.24 0 76.32s55.24 21.080 76.32 0l458.035-458.035c21.080-21.080 21.080-55.24 0-76.32l-458.035-458.035c-10.559-10.52-24.36-15.8-38.16-15.8l0.001-0.011z" />
<glyph unicode="&#xe903;" glyph-name="button_arrow" d="M943.158 448l-862.316 512v-1024z" />
<glyph unicode="&#xe904;" glyph-name="campus" d="M511.994 878.295c-7.067 0.089-14.133-2.046-19.911-6.050 0 0-478.003-341.973-481.417-345.218-6.578-6.184-10.667-14.815-10.667-24.557 0-18.862 15.289-34.167 34.133-34.167h125.156v-273.332h-56.889c-18.044 0-34.133-18.062-34.133-34.167s16.089-34.167 34.133-34.167h819.2c18.044 0 34.133 18.062 34.133 34.167s-16.089 34.167-34.133 34.167h-56.889v273.332h125.156c18.844 0 34.133 15.304 34.133 34.167 0 9.743-4.089 18.374-10.667 24.557-3.422 3.248-481.417 345.218-481.417 345.218-5.778 4.004-12.844 6.139-19.911 6.050h-0.011zM512 802.043l370.383-261.447h-740.766l370.383 261.447zM228.766 464.34h87.149v-272.34h-87.149v272.34zM392.17 464.34h87.149v-272.34h-87.149v272.34zM544.681 464.34h87.149v-272.34h-87.149v272.34zM708.085 464.34h87.149v-272.34h-87.149v272.34zM34.133 83.064c-18.044 0-34.133-17.276-34.133-32.681s16.089-32.681 34.133-32.681h955.733c18.044 0 34.133 17.276 34.133 32.681s-16.089 32.681-34.133 32.681h-955.733z" />
<glyph unicode="&#xe905;" glyph-name="earth" horiz-adv-x="1333" d="M1174.093 797.282c-89.775 88.373-213.216 144.482-349.282 144.482s-260.91-56.11-349.282-144.482c-89.775-89.775-145.885-213.216-145.885-349.282s54.707-259.507 144.482-349.282c89.775-89.775 213.216-144.482 349.282-144.482s259.507 54.707 349.282 144.482c91.178 88.373 145.885 211.814 145.885 349.282 0 136.066-54.707 259.507-144.482 349.282zM371.726 448c0 124.844 50.499 238.466 131.858 319.825 26.652 26.652 54.707 49.096 86.97 67.332l9.819-4.208-32.263-74.345 4.208-16.833-25.249-39.277-5.611-54.707 12.625-26.652 5.611-84.164 15.43-18.236-2.805 47.693 22.444-29.458 5.611-49.096c0 0 75.748-36.471 84.164-40.679 8.416-2.805 50.499-35.068 50.499-35.068l22.444-28.055 42.082-29.458 21.041 11.222 11.222-23.847c0 0-49.096-68.734-47.693-77.151s14.027-33.666 14.027-33.666l-28.055-12.625 5.611-37.874 54.707-37.874 37.874-19.638-16.833-68.734-37.874-57.512c-120.636 2.805-228.647 53.304-308.603 131.858-82.762 82.762-133.26 196.384-133.26 321.227v0zM1144.636 128.175c-68.734-68.734-158.51-115.025-259.507-127.649l8.416 11.222 93.984 50.499 35.068 32.263 4.208 22.444 53.304 15.43 32.263 74.345 46.29 60.318-39.277 29.458-26.652-12.625-30.86 15.43-12.625 33.666-85.567 37.874-74.345 32.263-98.192-16.833-18.236 19.638 8.416 21.041-51.901 23.847 19.638 37.874-23.847 14.027-51.901-14.027 2.805 49.096 21.041 26.652 40.679-8.416 28.055 2.805 43.485-54.707 9.819 21.041-14.027 42.082 40.679 36.471v21.041l29.458 37.874 64.526 23.847-57.512 23.847c0 0 43.485 5.611 47.693 4.208s21.041 18.236 21.041 18.236l-57.512 61.721-26.652 4.208-28.055-1.403-15.43-19.638-4.208-36.471-60.318 43.485 11.222 21.041 28.055 1.403 40.679 28.055 21.041-21.041 23.847 7.014-50.499 33.666-35.068 33.666-115.025-22.444-4.208 4.208c46.29 15.43 95.386 23.847 147.288 23.847 14.027 0 28.055-1.403 40.679-1.403l-23.847-2.805-4.208-11.222 26.652-11.222 12.625-22.444 29.458-21.041 39.277-33.666 29.458 1.403-12.625 29.458 5.611 43.485-39.277 22.444c21.041-5.611 40.679-11.222 60.318-18.236l9.819-21.041 85.567-32.263c5.611-4.208 11.222-8.416 15.43-12.625l-29.458-16.833 16.833-32.263 49.096-26.652-28.055-11.222 49.096-46.29 18.236 32.263 21.041-37.874c0 0-16.833-19.638-16.833-23.847 0-5.611 22.444-64.526 22.444-64.526l-4.208-47.693 14.027-67.332 22.444-40.679 14.027-26.652 25.249 14.027c-9.819-108.011-57.512-206.203-130.455-279.145v0zM824.811-54.181c-134.663 0-259.507 51.901-354.893 147.288-93.984 93.984-147.288 220.23-147.288 354.893 0 133.26 53.304 259.507 147.288 353.49 95.386 95.386 220.23 147.288 354.893 147.288s259.507-51.901 354.893-147.288v0c93.984-93.984 145.885-220.23 145.885-353.49 0-134.663-51.901-259.507-147.288-354.893-93.984-95.386-220.23-147.288-353.49-147.288zM824.811 934.751c-130.455 0-252.493-50.499-345.074-143.079-91.178-91.178-143.079-214.619-143.079-343.671 0-130.455 50.499-252.493 143.079-345.074s214.619-143.079 345.074-143.079c130.455 0 252.493 50.499 345.074 143.079 92.581 91.178 143.079 214.619 143.079 345.074s-50.499 252.493-143.079 345.074v0c-92.581 91.178-214.619 141.677-345.074 141.677zM816.395-10.696h-4.208c-117.83 2.805-230.049 50.499-312.811 134.663-86.97 85.567-134.663 200.592-134.663 324.033v0c0 122.038 47.693 238.466 134.663 324.033 26.652 26.652 56.11 49.096 88.373 68.734l2.805 1.403 19.638-8.416-35.068-78.553 4.208-16.833-26.652-40.679-5.611-50.499 12.625-26.652 2.805-44.888-1.403 12.625 37.874-50.499 5.611-47.693c29.458-15.43 74.345-36.471 79.956-37.874 9.819-2.805 44.888-30.86 51.901-36.471l1.403-1.403 21.041-26.652 37.874-26.652 23.847 12.625 16.833-33.666-2.805-2.805c-21.041-29.458-46.29-65.929-46.29-72.942 1.403-4.208 8.416-21.041 14.027-30.86l2.805-7.014-28.055-14.027 4.208-29.458 51.901-36.471 42.082-21.041-19.638-75.748-39.277-60.318zM591.956 826.74c-29.458-18.236-57.512-40.679-82.762-64.526-84.164-84.164-130.455-196.384-130.455-314.214v0c0-119.233 46.29-231.452 130.455-315.616 79.956-79.956 186.564-126.247 300.186-130.455l35.068 53.304 15.43 61.721-32.263 18.236-58.915 40.679-7.014 44.888 23.847 12.625c-4.208 8.416-11.222 22.444-11.222 29.458 0 2.805-1.403 11.222 46.29 79.956l-7.014 12.625-18.236-9.819-46.29 33.666-21.041 26.652c-19.638 15.43-42.082 32.263-47.693 33.666-9.819 2.805-77.151 36.471-85.567 40.679l-2.805 1.403-5.611 50.499-7.014 9.819 2.805-47.693-29.458 37.874-5.611 85.567-12.625 26.652 7.014 57.512 25.249 37.874-5.611 16.833 30.86 70.137zM868.296-9.293l21.041 26.652 92.581 50.499 32.263 30.86 5.611 25.249 54.707 16.833 32.263 72.942 42.082 54.707-29.458 22.444-25.249-12.625-36.471 18.236-12.625 33.666-84.164 35.068-71.54 32.263-99.595-18.236-23.847 25.249 7.014 19.638-51.901 25.249 19.638 39.277-15.43 8.416-58.915-15.43 4.208 61.721 25.249 32.263 44.888-8.416 30.86 2.805 37.874-47.693 4.208 8.416-14.027 43.485 42.082 36.471v21.041l32.263 42.082 49.096 18.236-67.332 22.444 25.249 4.208c33.666 4.208 44.888 5.611 47.693 4.208 2.805 1.403 7.014 5.611 11.222 11.222l-51.901 54.707-22.444 4.208h-23.847l-11.222-15.43-5.611-46.29-74.345 53.304 15.43 29.458 29.458 1.403 43.485 30.86-11.222 5.611-33.666 32.263-115.025-22.444-14.027 15.43 9.819 2.805c47.693 16.833 98.192 25.249 148.69 25.249 14.027 0 26.652 0 42.082-1.403l1.403-14.027-19.638-7.014v-1.403l22.444-9.819 14.027-22.444 28.055-21.041 37.874-32.263 16.833 1.403-8.416 22.444 5.611 40.679-36.471 21.041 5.611 12.625c21.041-5.611 40.679-11.222 60.318-19.638l2.805-1.403 11.222-19.638 84.164-32.263c5.611-4.208 11.222-8.416 16.833-12.625l8.416-7.014-33.666-19.638 12.625-23.847 61.721-32.263-32.263-12.625 33.666-32.263 19.638 35.068 29.458-53.304-2.805-4.208c-7.014-8.416-14.027-18.236-15.43-21.041 0-2.805 11.222-33.666 22.444-61.721v-1.403l-5.611-46.29 14.027-64.526 22.444-39.277 11.222-21.041 29.458 16.833-1.403-12.625c-9.819-106.608-56.11-207.605-133.26-284.756v0c-70.137-70.137-164.121-116.427-263.715-130.455l-16.833-1.403zM1032.416 112.745l-4.208-21.041-37.874-35.068-84.164-46.29c86.97 16.833 169.732 58.915 232.855 122.038v0c70.137 70.137 115.025 162.718 127.649 262.312l-19.638-9.819-16.833 33.666-23.847 42.082-14.027 68.734 4.208 47.693c-9.819 28.055-22.444 60.318-22.444 65.929 0 1.403 0 7.014 15.43 25.249l-12.625 22.444-15.43-28.055-63.123 58.915 25.249 9.819-39.277 18.236-22.444 39.277 26.652 15.43c-2.805 1.403-4.208 2.805-7.014 5.611l-85.567 32.263-11.222 19.638c-2.805 1.403-5.611 1.403-7.014 2.805l-5.611-43.485 15.43-37.874-42.082-1.403-42.082 36.471-30.86 23.847-11.222 19.638-30.86 14.027 7.014 16.833c-9.819 0-19.638 0-30.86 0l29.458-29.458 61.721-42.082-40.679-12.625-19.638 19.638-37.874-26.652-25.249-1.403-5.611-11.222 46.29-32.263 2.805 26.652 18.236 23.847 30.86 1.403 29.458-5.611 63.123-67.332-4.208-4.208c-19.638-23.847-25.249-21.041-28.055-21.041-1.403 0-8.416 0-18.236-1.403l50.499-21.041-78.553-29.458-28.055-35.068v-22.444l-39.277-35.068 12.625-40.679-15.43-33.666-47.693 61.721-25.249-2.805-37.874 8.416-16.833-21.041-2.805-37.874 44.888 12.625 32.263-18.236-18.236-37.874 51.901-23.847-9.819-23.847 12.625-12.625 96.789 16.833 75.748-33.666 89.775-36.471 12.625-33.666 25.249-12.625 26.652 12.625 47.693-36.471-50.499-64.526-32.263-77.151-53.304-18.236zM838.838 844.975l21.041-21.041 5.611 1.403-26.652 19.638zM831.825 494.29h-26.652l-16.833-12.625 9.819-12.625 12.625 12.625 50.499-21.041 18.236 9.819zM875.31 446.597l23.847-8.416 15.43 19.638-19.638 4.208zM22.444 899.682c-11.222 0-19.638 8.416-19.638 19.638s8.416 19.638 19.638 19.638h489.556c11.222 0 19.638-8.416 19.638-19.638s-8.416-19.638-19.638-19.638h-489.556zM127.649 807.101c-11.222 0-19.638 8.416-19.638 19.638 0 12.625 8.416 21.041 19.638 21.041h155.704c11.222 0 19.638-8.416 19.638-19.638s-8.416-19.638-19.638-19.638h-155.704zM387.156-48.57c-11.222 0-19.638 8.416-19.638 19.638s8.416 19.638 19.638 19.638h155.704c11.222 0 19.638-8.416 19.638-19.638s-8.416-19.638-19.638-19.638h-155.704z" />
<glyph unicode="&#xe906;" glyph-name="education" d="M79.644 880.356c-43.511 0-79.644-36.134-79.644-79.644v-568.889c0-43.511 36.134-79.644 79.644-79.644h318.578v-68.267h-22.756c-18.844 0-34.133-15.289-34.133-34.133s15.289-34.133 34.133-34.133h273.067c18.844 0 34.133 15.289 34.133 34.133s-15.289 34.133-34.133 34.133h-22.756v68.267h318.578c43.511 0 79.644 36.134 79.644 79.644v568.889c0 43.511-36.134 79.644-79.644 79.644h-864.711zM79.644 812.089h864.711c6.889 0 11.378-4.489 11.378-11.378v-568.889c0-6.889-4.489-11.378-11.378-11.378h-864.711c-6.889 0-11.378 4.489-11.378 11.378v568.889c0 6.889 4.489 11.378 11.378 11.378zM499.553 730.311l-318.578-125.156c-12.756-4.933-21.688-18-21.688-31.644s8.933-27.067 21.688-32l92.089-36.267v-102.755c0-24.444 14.933-39.733 29.512-50.845s32.177-19.645 52.977-27.022c41.599-14.8 96-24.533 156.444-24.533s114.847 9.733 156.444 24.533c20.8 7.378 38.4 15.911 52.977 27.022s29.512 26.4 29.512 50.845v102.755l22.756 8.889v-36.623c-6.978-8.044-11.378-18.311-11.378-29.512 0-24.711 20.8-45.511 45.511-45.511s45.511 20.8 45.511 45.511c0 11.2-4.4 21.466-11.378 29.512v63.645l1.067 0.356c12.756 4.933 21.688 18.356 21.688 32s-8.933 26.712-21.688 31.644l-318.578 125.156c-8.8 3.289-18.934 2.133-24.889 0h-0.001zM511.998 661.689l225.064-88.533-225.064-88.178-225.064 88.178 225.064 88.533zM341.331 478.576l158.219-62.223c7.911-3.111 16.978-3.111 24.889 0l158.219 62.223v-70.4c-10.667-8.356-24-14.222-36.978-19.2-32.4-11.511-80.666-20.622-133.689-20.622s-101.288 9.111-133.689 20.622c-10.756 3.867-26.622 11.2-36.978 19.2l0.006 70.4zM466.487 152.17h91.022v-68.267h-91.022v68.267z" />
<glyph unicode="&#xe907;" glyph-name="FB_white" d="M564.622 95.359v8.441c0 99.559 0.041 199.118-0.114 298.676-0.016 5.66 1.488 7.345 7.246 7.312 37.449-0.245 74.897-0.131 112.354-0.131h6.706v106.307h-7.279c-37.457 0-74.906 0.098-112.362-0.106-5.21-0.033-6.747 1.48-6.665 6.683 0.294 18.33-0.343 36.684 0.278 54.998 0.425 12.833-0.646 26.387 8.211 37.322 2.372 2.936 6.207 6.208 9.618 6.503 15.645 1.35 31.372 2.004 47.075 2.331 17.927 0.368 35.878 0.352 53.814 0.033 5.978-0.106 7.753 1.75 7.712 7.721-0.229 33.126-0.057 66.244-0.049 99.362 0 1.906-0.213 3.82-0.343 5.987-1.529 0.147-2.674 0.352-3.819 0.352-35.674-0.025-71.356 0.27-107.030-0.254-19.939-0.294-39.191-5.284-56.414-15.279-52.889-30.672-79.518-77.385-81.653-138.124-0.712-20.268-0.286-40.594-0.033-60.887 0.065-5.104-1.276-6.797-6.592-6.756-31.732 0.237-63.472 0.115-95.212 0.115h-6.559v-106.307h7.63c30.947 0 61.894 0 92.841 0 7.778 0 7.786-0.008 7.786-7.705v-306.594h122.855zM511.569 959.995c280.804 1.178 508.964-227.925 512.391-504.689 3.566-287.037-227.8-518.79-511.409-519.306-283.478-0.523-511.409 229.765-512.546 510.39-1.153 284.379 231.071 514.496 511.565 513.605z" />
<glyph unicode="&#xe908;" glyph-name="insta_white" d="M508.473 34.043v0.144c72.663 0 145.352-1.232 217.982 0.289 109.221 2.286 201.384 89.665 203.453 197.516 2.768 144.338 2.841 288.811-0.004 433.146-2.26 114.6-93.933 201.049-209.27 201.837-139.815 0.957-279.648 1.078-419.459-0.051-117.928-0.952-208.511-92.427-208.815-209.060-0.357-136.735-0.495-273.474 0.039-410.208 0.482-123.375 90.39-212.587 214.601-213.522 67.153-0.505 134.315-0.090 201.473-0.090zM4.628 450.629c0 84.064-7.967 169.050 1.75 251.99 17.283 147.51 142.824 253.808 291.887 255.663 141.975 1.768 284.008 1.829 425.981 0.007 166.179-2.132 295.844-132.825 298.227-300.785 1.971-138.871 1.722-277.806 0.080-416.686-1.954-165.18-135.095-296.544-301.283-297.988-139.785-1.215-279.598-1.219-419.382 0-168.007 1.464-299.78 133.658-301.534 301.077-0.722 68.895-0.119 137.804-0.119 206.706 1.465 0.005 2.929 0.009 4.393 0.014zM524.214 246.774c100.905 0.296 187.966 85.951 188.901 185.854 0.977 104.174-86.058 192.563-189.251 192.197-101.078-0.359-188.001-85.937-188.696-185.776-0.728-104.723 85.651-192.578 189.046-192.275zM525.453 716.186c155.944-0.881 278.948-125.788 279.118-283.437 0.164-152.245-128.088-278.451-281.811-277.312-156.418 1.158-279.248 125.95-278.95 283.405 0.29 153.19 127.254 278.217 281.643 277.345zM764.486 667.429c-22.242 3.534-34.955 16.569-32.827 40.022 2.121 23.374 16.703 35.006 40.317 32.871 22.489-2.032 33.437-16.014 32.545-37.809-0.982-24.026-15.878-34.316-40.035-35.084z" />
<glyph unicode="&#xe909;" glyph-name="left_arrow" d="M512 939.52c-130.355 0-255.365-51.8-347.556-143.964-92.16-92.2-143.964-217.201-143.964-347.556s51.8-255.365 143.964-347.556c92.2-92.16 217.201-143.964 347.556-143.964s255.365 51.8 347.556 143.964c92.16 92.2 143.964 217.201 143.964 347.556-0.12 130.324-51.96 255.242-144.118 347.402s-217.078 143.995-347.402 144.118zM512 960c135.803 0 266.035-53.96 362.035-149.965s149.965-226.243 149.965-362.035c0-135.793-53.96-266.035-149.965-362.035s-226.243-149.965-362.035-149.965c-135.793 0-266.035 53.96-362.035 149.965s-149.965 226.243-149.965 362.035c0 135.793 53.96 266.035 149.965 362.035s226.243 149.965 362.035 149.965zM573.759 258.37l14.093 15.224-161.562 174.405 161.562 174.405-14.093 15.224-175.537-189.631z" />
<glyph unicode="&#xe90a;" glyph-name="link" d="M957.643 893.646c-42.781 42.778-99.698 66.354-160.182 66.354-60.544 0-117.408-23.576-160.182-66.354l-124.342-124.334c-42.781-42.778-66.359-99.691-66.359-160.171 0-37.817 9.228-74.248 26.564-106.678l-15.682-15.734c-32.486 17.388-68.866 26.616-106.685 26.616-60.544 0-117.408-23.576-160.182-66.354l-124.342-124.334c-88.336-88.33-88.336-231.968 0-320.355 42.834-42.778 99.698-66.301 160.182-66.301 60.544 0 117.408 23.576 160.182 66.301l124.342 124.334c72.119 72.114 85.242 181.145 39.633 266.801l15.789 15.788c32.432-17.388 68.866-26.616 106.739-26.616 60.544 0 117.408 23.576 160.182 66.354l124.342 124.334c42.834 42.778 66.359 99.691 66.359 160.171-0.053 60.54-23.578 117.4-66.359 160.171l0.001 0.008zM417.655 219.863l-124.342-124.334c-17.87-17.922-41.661-27.736-66.944-27.736-25.285 0-49.076 9.814-66.944 27.682-36.913 36.91-36.913 97.024 0 133.935l124.342 124.334c17.87 17.869 41.661 27.736 66.944 27.736 0.427 0 0.853-0.107 1.334-0.16l-49.555-49.552c-25.764-25.763-25.764-67.474 0-93.236 12.856-12.855 29.765-19.309 46.622-19.309s33.766 6.454 46.622 19.309l49.502 49.499c0.32-24.643-8.748-49.445-27.578-68.168h-0.002zM864.402 666.525l-124.342-124.334c-17.87-17.869-41.661-27.682-66.944-27.682-0.427 0-0.853 0.107-1.334 0.107l65.078 65.073c25.764 25.763 25.764 67.474 0 93.236s-67.478 25.763-93.243 0l-65.078-65.073c0 0.427-0.107 0.853-0.107 1.333 0 25.283 9.815 49.073 27.737 66.94l124.342 124.334c17.87 17.869 41.661 27.736 66.944 27.736s49.076-9.868 66.944-27.736c17.869-17.868 27.737-41.658 27.737-66.94 0-25.336-9.868-49.126-27.737-66.993l0.001-0.001z" />
<glyph unicode="&#xe90b;" glyph-name="outline-arrow" d="M967.111 450.958c-1.111 19.259-11.778 36.667-28.444 46.222l-796.444 455.111c-17.63 10.148-39.259 10.148-56.889 0-17.63-10.074-28.444-28.888-28.444-49.186v-910.222c0-20.296 10.815-39.037 28.444-49.186s39.259-10.148 56.889 0l796.444 455.111c18.518 10.667 29.482 30.815 28.444 52.148v0.002zM795.853 447.995l-625.19-357.338v714.676l625.19-357.338z" />
<glyph unicode="&#xe90c;" glyph-name="phone" d="M932.757 664.273c-5.226 21.104-7.716 42.651-14.522 62.913-19.607 63.143-58.553 114.063-112.876 152.731-15.148 9.839-28.412 21.661-42.392 31.142-32.316 21.575-64.437 18.421-90.053-10.156-11.86-13.276-24.035-27.736-33.077-44.478-18.029-33.455-36.029-66.965-51.679-101.147-7.462-15.9-10.538-34.467-12.075-52.177-2.675-34.266 13.67-61.373 41.643-80.295 19.176-13.674 38.364-27.306 57.54-40.981 29.128-19.321 39.563-44.575 34.509-78.114-4.613-36.278-20.704-67.721-39.186-98.479-34.697-58.281-75.746-111.974-123.692-158.385-22.208-21.762-46.080-40.457-76.070-49.47-26.086-8.927-50.182-2.84-70.649 15.113-19.616 16.413-39.287 32.796-59.272 47.998-37.196 26.949-74.472 27.976-113.144 3.39-17.784-11.465-33.19-23.657-47.743-37.39-25.685-24.627-49.034-49.969-72.712-76.534-8.026-9.241-13.673-19.209-19.679-30.347-14.195-29.419-9.615-56.813 14.030-77.062 33.238-27.064 65.761-56.468 104.321-74.79 48.479-23.912 100.147-33.222 154.602-29.085 75.978 6.647 143.555 36.694 204.918 80.294 54.437 37.947 100.805 83.523 144.727 133.78 68.313 79.159 127.885 163.593 172.268 257.884 26.835 58.081 46.565 118.287 51.684 181.733 1.62 13.804 0.862 28.333 2.111 40.925-1.473 12.191-2.52 21.601-3.524 30.999l-0.007-0.013z" />
<glyph unicode="&#xe90d;" glyph-name="play-button" d="M512 960c-283.284 0-512-228.716-512-512s228.716-512 512-512c283.284 0 512 228.716 512 512s-228.716 512-512 512zM383.42 231.822v432.356l343.598-216.178-343.598-216.178z" />
<glyph unicode="&#xe90e;" glyph-name="portal" d="M719.188 211.413h1.288c12.68 0 22.835 8.866 22.835 21.546 3.814 53.247-17.732 91.288-57.061 100.154-65.927 16.494-93.813 36.752-103.968 49.433 3.814 3.814 8.866 7.628 11.392 11.392 43.092 49.433 36.752 131.849 35.515 140.776-5.052 97.628-77.37 121.751-120.462 120.462-43.092 1.288-115.41-22.835-120.462-120.462-1.288-10.154-7.628-91.288 35.515-140.776 3.814-5.052 8.866-8.866 13.969-12.68-11.392-12.68-40.567-31.701-102.73-48.195-39.329-10.154-59.587-48.195-55.773-100.154 1.288-12.68 11.392-21.546 22.835-21.546h1.288c12.68 1.288 22.835 11.392 21.546 25.36-1.288 17.732 0 46.907 21.546 52.009 84.947 21.546 120.462 50.721 134.436 73.555 7.628-1.288 16.494-2.526 25.36-2.526h3.863c10.154 0 19.020 1.288 27.886 3.814 13.969-22.835 48.195-52.009 134.436-73.555 21.546-5.052 22.835-35.515 21.546-52.009 2.378-15.206 12.532-26.599 25.212-26.599l-0.012 0.001zM511.207 404.14c0 0-1.238 0 0 0-21.546 0-38.041 6.34-49.433 20.309-26.649 29.175-26.649 86.236-24.072 105.256v1.288c3.814 69.741 50.721 77.37 69.741 77.37h3.814c16.494 1.288 69.741-2.526 72.267-77.37v-1.288c2.526-19.020 1.288-76.081-24.072-106.494-11.442-11.442-27.936-17.781-48.244-19.070l-0.001-0.001zM999.396 298.884h1.288c12.68 0 22.835 8.866 22.835 21.546 3.814 46.907-15.206 81.133-50.721 90.050-52.009 12.68-76.081 29.175-84.947 39.329l7.628 7.628c38.041 43.092 32.989 114.122 31.701 122.988-3.814 86.236-68.453 107.782-106.494 106.494-38.041 1.288-101.442-20.309-106.494-106.494-1.288-8.866-6.34-79.896 31.701-122.988 2.526-3.814 6.34-6.34 10.154-10.154-10.154-8.866-32.989-24.072-83.71-36.752-12.68-2.526-20.309-15.206-16.494-27.886 2.526-10.154 12.68-17.732 22.835-17.732 1.288 0 3.814 0 5.052 1.288 72.267 17.732 102.73 43.092 116.648 62.113 6.34-1.288 12.68-1.288 19.020-2.526h3.863c7.628 0 15.206 1.288 21.546 2.526 12.68-20.309 44.381-44.381 116.648-62.113 16.494-3.814 16.494-27.886 16.494-41.855-1.337-14.018 8.767-25.459 21.447-25.459v-0.002zM821.873 471.36c-17.732 0-30.412 5.052-40.567 16.494-21.546 24.072-21.546 72.267-20.309 88.762v1.288c2.526 57.061 41.855 63.401 57.061 63.401h3.814c12.68 0 55.773-2.526 59.587-63.401v-1.288c1.288-16.494 1.288-63.401-20.309-88.762-8.817-11.442-22.785-16.494-39.28-16.494h0.002zM0.232 317.904c1.288-12.68 11.392-21.546 22.835-21.546h1.288c12.68 1.288 22.835 11.392 21.546 25.36s0 38.041 16.494 41.855c72.267 17.732 103.968 43.092 116.648 62.113 7.628-1.288 13.969-2.526 21.546-2.526h3.863c6.34 0 12.68 1.288 19.020 2.526 12.68-19.020 44.381-44.381 116.648-62.113 1.288 0 3.814-1.288 5.052-1.288 10.154 0 20.309 7.628 22.835 17.732 2.526 12.68-3.814 25.36-16.494 27.886-49.433 12.68-73.555 27.886-83.71 38.041 3.814 2.526 6.34 6.34 10.154 8.866 38.041 43.092 32.989 114.122 31.701 122.988-3.814 86.236-68.453 107.782-106.494 106.494-38.041 1.288-101.442-20.309-106.494-106.494-1.288-8.866-6.34-79.896 31.701-122.988l8.866-8.866c-8.866-8.866-31.701-25.36-86.236-38.041-34.325-10.105-53.346-43.092-50.77-90v0.001zM143.481 572.802v1.288c2.526 57.061 41.855 63.401 57.061 63.401h3.814c12.68 0 55.773-2.526 59.587-63.401v-1.288c0 0 5.052-59.587-20.309-87.473-8.866-10.154-22.835-16.494-39.329-16.494h-1.288c-16.494 0-30.412 5.052-39.329 16.494-21.447 24.072-21.447 70.98-20.21 87.473h0.002z" />
<glyph unicode="&#xe90f;" glyph-name="quote" d="M504.422 534.112c0 135.855-110.117 245.977-245.977 245.977s-234.448-106.306-245.977-241.688c-17.553-206.547 139.336-379.482 329.836-434.489-64.941 39.247-110.211 107.53-117.788 186.97 11.106-1.6 22.353-2.682 33.882-2.682 135.903-0.047 246.025 110.070 246.025 245.929l-0.002-0.016zM1024 534.112c0 135.855-110.117 245.977-245.977 245.977-135.855 0-234.448-106.306-245.977-241.688-17.553-206.547 139.336-379.482 329.885-434.489-64.941 39.247-110.211 107.53-117.788 186.97 11.106-1.6 22.4-2.682 33.882-2.682 135.855-0.047 245.977 110.070 245.977 245.929l-0.002-0.016z" />
<glyph unicode="&#xe910;" glyph-name="right_arrow" d="M512 939.52c130.355 0 255.365-51.8 347.556-143.964 92.16-92.2 143.964-217.201 143.964-347.556s-51.8-255.365-143.964-347.556c-92.2-92.16-217.201-143.964-347.556-143.964s-255.365 51.8-347.556 143.964c-92.16 92.2-143.964 217.201-143.964 347.556 0.12 130.324 51.96 255.242 144.118 347.402s217.078 143.995 347.402 144.118zM512 960c-135.803 0-266.035-53.96-362.035-149.965s-149.965-226.243-149.965-362.035c0-135.793 53.96-266.035 149.965-362.035s226.243-149.965 362.035-149.965c135.793 0 266.035 53.96 362.035 149.965s149.965 226.243 149.965 362.035c0 135.793-53.96 266.035-149.965 362.035s-226.243 149.965-362.035 149.965zM460.401 271.759l-14.56 14.56 166.922 166.799-166.922 166.799 14.56 14.56 181.361-181.361z" />
<glyph unicode="&#xe911;" glyph-name="search" d="M995.429 102.474c38.095-38.095 38.095-99.811 0-137.904s-99.811-38.095-137.904 0l-201.238 201.238c-14.286 14.286-40.095 17.905-58.095 8.286 0 0 2.476 0.571-13.238-6.476-52-23.524-109.714-36.571-170.477-36.571-228.952 0-414.477 185.525-414.477 414.477s185.525 414.477 414.477 414.477c228.952 0 414.477-185.525 414.477-414.477 0-60.952-13.143-118.857-36.762-170.952-7.048-15.524-6.381-12.857-6.381-12.857-9.619-17.714-5.905-43.715 8.381-58l201.237-201.24zM414.478 313.903c127.905 0 231.619 103.714 231.619 231.619s-103.714 231.619-231.619 231.619c-127.905 0-231.619-103.714-231.619-231.619s103.714-231.619 231.619-231.619z" />
<glyph unicode="&#xe912;" horiz-adv-x="2658" d="M0 142.869h630.949v641.293h-630.949z" />
<glyph unicode="&#xe913;" glyph-name="students" d="M243.679 497.17c-72.96 7.095-132.047 4.341-137.209 4.007-17.667-0.96-31.542-15.568-31.542-33.349v-347.721c0-8.89 3.542-17.405 9.792-23.665 6.25-6.219 14.709-9.725 23.542-9.725 1.375-0.292 1.917-0.042 2.875 0 77.878 0 284.595-14.024 350.048-79.344 11.917-11.896 17.459-23.958 17.459-37.982 0-18.449 14.917-33.391 33.334-33.391s33.334 14.942 33.334 33.391c0 20.368 7.459 36.855 23.459 51.881 70.96 66.906 273.011 69.995 344.928 65.487 8.875-0.668 18.167 2.671 24.875 9.015 6.709 6.302 10.5 15.11 10.5 24.333v347.721c0 17.781-13.876 32.388-31.542 33.349-5.25 0.292-64.293 3.047-137.209-4.007-14.792 66.989-73.044 123.005-152.335 151.171 37.835 32.639 62.336 80.262 62.336 133.936-0.083 97.96-80.044 177.723-178.341 177.723s-178.256-79.761-178.256-177.766c0-53.675 24.501-101.299 62.336-133.936-79.336-28.173-137.583-84.144-152.378-151.139l-0.004 0.011zM141.551 152.996v282.318c83.919 1.085 242.802-12.062 308.137-74.085 19.5-18.49 28.959-39.944 28.959-65.654v-217.621c-93.211 60.729-262.845 72.791-337.098 75.045l0.002-0.003zM882.405 435.272v-280.48c-75.294 1.419-243.719-2.963-337.098-67.031v207.812c0 25.669 9.459 47.123 28.917 65.57 64.461 61.272 219.676 74.127 305.3 74.127l2.881 0.002zM511.972 893.219c61.543 0 111.587-49.794 111.587-110.985s-50.043-111.028-111.587-111.028c-61.544 0-111.587 49.836-111.587 111.028s50.043 110.985 111.587 110.985zM511.972 601.263c99.045 0 184.048-49.836 201.798-113.239-69.211-12.438-140.292-35.477-185.424-78.342-6.209-5.927-11.292-12.354-16.376-18.74-5.083 6.428-10.167 12.813-16.376 18.74-45.127 42.865-116.217 65.905-185.424 78.342 17.751 63.4 102.753 113.239 201.798 113.239h0.004z" />
<glyph unicode="&#xe914;" horiz-adv-x="2658" d="M672.323 142.869h630.949v641.293h-630.949z" />
<glyph unicode="&#xe915;" glyph-name="twitter_blue" d="M996.411 855.525c-9.058-42.266-40.974-68.355-74.366-101.251 37.951-1.119 67.039 15.093 101.955 21.589-18.635-37.408-45.82-61.87-73.928-84.497-17.135-13.789-23.043-28.177-23.55-49.905-6.565-278.6-180.706-513.873-435.168-586.427-151.283-43.154-299.347-31.743-442.379 35.008-17.435 8.135-33.877 18.404-50.805 31.443 108.163-3.069 206.207 23.146 293.070 86.794-5.712 14.943-17.262 10.419-25.95 12.219-65.205 13.581-114.579 49.051-147.556 106.813-5.804 10.177-14.631 20.481-8.516 34.027l-0.081-0.104c23.862 3.796 49.155-5.135 76.709 9.727-53.343 19.096-96.544 46.778-125.702 92.471-18.116 28.385-30.37 58.87-32.966 92.828-1.246 16.408 3.785 23.054 21.162 16.581 18.093-6.727 36.104-15.773 60.555-9.854-36.693 37.708-67.259 76.905-77.216 128.217-8.435 43.443-5.169 85.432 10.742 126.763 7.569 19.627 13.327 25.927 31.074 6.3 102.994-113.932 231.257-180.476 383.544-201.637 29.435-4.085 41.678-4.408 39.208 34.477-5.389 85.005 30.947 153.833 105.659 197.207 74.366 43.166 154.087 45.508 222.626-5.769 43.847-32.816 78.89-27.843 120.89-9.139 15.658 6.981 31.777 12.912 47.689 19.316 1.096-1.073 2.192-2.146 3.3-3.196z" />
<glyph unicode="&#xe916;" glyph-name="twitter_white" d="M747.203 556.684c-8.51-6.853-11.443-13.993-11.696-24.784-3.261-138.358-89.742-255.199-216.107-291.237-75.136-21.426-148.667-15.758-219.7 17.391-8.658 4.040-16.824 9.14-25.231 15.615 53.716-1.53 102.406 11.489 145.544 43.103-2.837 7.415-8.573 5.174-12.887 6.068-32.382 6.745-56.902 24.36-73.279 53.045-2.877 5.043-7.237 10.148-4.24 16.847-0.011 0-0.017 0-0.029 0l0.040 0.046c-0.006-0.011-0.006-0.029-0.011-0.046 11.839 1.874 24.394-2.544 38.072 4.825-26.491 9.484-47.951 23.236-62.426 45.928-9.002 14.102-15.088 29.236-16.377 46.1-0.619 8.148 1.88 11.449 10.509 8.234 8.991-3.341 17.924-7.833 30.078-4.894-18.228 18.727-33.408 38.192-38.353 63.675-4.189 21.575-2.567 42.427 5.335 62.953 3.759 9.747 6.619 12.876 15.432 3.129 51.154-56.587 114.847-89.628 190.475-100.137 14.618-2.034 20.698-2.189 19.472 17.116-2.676 42.221 15.374 76.402 52.472 97.942 36.932 21.437 76.523 22.6 110.561-2.865 21.775-16.297 39.178-13.827 60.036-4.538 7.776 3.461 15.781 6.412 23.683 9.593 0.544-0.533 1.089-1.066 1.639-1.587-4.498-20.99-20.348-33.946-36.932-50.283 18.847-0.556 33.293 7.495 50.633 10.721-9.254-18.572-22.755-30.726-36.714-41.963zM512.003 960c-282.773 0-512.003-229.229-512.003-511.997 0-282.773 229.229-511.997 512.003-511.997 282.768 0 511.997 229.224 511.997 511.997 0 282.768-229.229 511.997-511.997 511.997z" />
<glyph unicode="&#xe917;" glyph-name="wechat_blue" horiz-adv-x="1553" d="M822.503 705.652c0-33.032 26.426-59.458 62.761-59.458 39.639 0 62.761 29.729 62.761 59.458 0 33.032-26.426 59.458-62.761 59.458-33.032 0-62.761-26.426-62.761-59.458zM512 705.652c0-29.729 23.123-59.458 62.761-59.458 36.335 0 62.761 29.729 62.761 59.458 0 33.032-26.426 59.458-62.761 59.458-33.032 0-62.761-26.426-62.761-59.458zM753.135 960c9.91 0 16.516 0 26.426-3.303 33.032-3.303 69.368-9.91 102.4-16.516 36.335-9.91 72.671-23.123 105.703-42.942 26.426-13.213 52.852-29.729 75.974-49.548 39.639-33.032 72.671-69.368 95.794-115.613 13.213-26.426 23.123-56.155 29.729-85.884 0 0 0-3.303 0-3.303-6.606 0-9.91 0-16.516 0-26.426 0-52.852 0-79.277-3.303-39.639-6.606-79.277-16.516-118.916-29.729-42.942-16.516-82.581-39.639-115.613-69.368-36.335-29.729-66.065-66.065-89.187-109.006-13.213-26.426-23.123-56.155-26.426-89.187-3.303-16.516-3.303-33.032-3.303-49.548 0-26.426 6.606-49.548 13.213-72.671 0-3.303 3.303-3.303 0-6.606-3.303 0-6.606 0-13.213 0-29.729 0-56.155 0-85.884 3.303-26.426 3.303-52.852 9.91-79.277 16.516-13.213 3.303-26.426 3.303-36.335-3.303-33.032-19.819-66.065-36.335-99.097-56.155-3.303 0-3.303-3.303-6.606-3.303-9.91-3.303-19.819 3.303-19.819 13.213 0 3.303 0 6.606 0 9.91 6.606 26.426 16.516 52.852 23.123 79.277 3.303 13.213 0 23.123-9.91 33.032-13.213 9.91-23.123 16.516-33.032 26.426-46.245 39.639-82.581 85.884-105.703 142.039-9.91 26.426-16.516 52.852-19.819 79.277 0 6.606 0 9.91-3.303 16.516 0 0 0 3.303 0 3.303v26.426c0 0 0 3.303 0 3.303 0 13.213 3.303 23.123 3.303 36.335 6.606 42.942 23.123 82.581 46.245 118.916 16.516 26.426 39.639 52.852 62.761 75.974 19.819 19.819 42.942 33.032 62.761 49.548 46.245 29.729 95.794 49.548 151.948 62.761 29.729 6.606 56.155 13.213 85.884 13.213 9.91 0 16.516 0 26.426 3.303 3.303 0 6.606 0 9.91 0s3.303 0 6.606 0h16.516c0 0 0 0 3.303 0 6.606-3.303 9.91-3.303 13.213-3.303zM1341.11 408.361c0 29.729-23.123 52.852-52.852 52.852s-52.852-23.123-52.852-52.852c0-29.729 23.123-52.852 52.852-52.852s52.852 23.123 52.852 52.852zM1076.852 408.361c0 29.729-26.426 52.852-56.155 52.852s-49.548-26.426-49.548-52.852c0-29.729 26.426-52.852 56.155-49.548 26.426-3.303 49.548 19.819 49.548 49.548zM1552.516 282.839c0 0 0 0 0 0-3.303-36.335-13.213-66.065-26.426-99.097-23.123-52.852-59.458-92.49-105.703-125.523-3.303-3.303-3.303-3.303-6.606-6.606-9.91-6.606-13.213-16.516-9.91-26.426 6.606-23.123 13.213-46.245 19.819-69.368 0-3.303 3.303-6.606 0-9.91-3.303-6.606-9.91-9.91-16.516-6.606-3.303 3.303-6.606 3.303-9.91 6.606-26.426 13.213-49.548 29.729-75.974 42.942-3.303 3.303-6.606 3.303-9.91 3.303-6.606 3.303-16.516 3.303-23.123 0-16.516-3.303-29.729-6.606-46.245-9.91-19.819-3.303-39.639-6.606-62.761-6.606-29.729 0-59.458 0-89.187 3.303-42.942 6.606-82.581 16.516-122.219 36.335-46.245 19.819-89.187 49.548-122.219 85.884-29.729 33.032-56.155 69.368-69.368 112.31-6.606 19.819-9.91 39.639-13.213 59.458-3.303 16.516-3.303 36.335 0 52.852 3.303 29.729 9.91 56.155 19.819 82.581 16.516 39.639 39.639 72.671 69.368 102.4 23.123 23.123 46.245 42.942 75.974 59.458 42.942 23.123 85.884 42.942 132.129 52.852 19.819 3.303 39.639 6.606 56.155 6.606s36.335 3.303 52.852 0c33.032 0 66.065-6.606 95.794-13.213 33.032-6.606 62.761-19.819 95.794-33.032 23.123-9.91 46.245-26.426 66.065-39.639 26.426-19.819 49.548-42.942 66.065-66.065 29.729-39.639 46.245-79.277 56.155-125.523 0-6.606 3.303-16.516 3.303-23.123 0 0 0-3.303 0-3.303v-42.942z" />
<glyph unicode="&#xe918;" glyph-name="pause" d="M352 960h-192c-17.696 0-32-14.336-32-32v-960c0-17.696 14.304-32 32-32h192c17.696 0 32 14.304 32 32v960c0 17.664-14.304 32-32 32zM864 960h-192c-17.696 0-32-14.336-32-32v-960c0-17.696 14.304-32 32-32h192c17.696 0 32 14.304 32 32v960c0 17.664-14.304 32-32 32z" />
<glyph unicode="&#xe919;" glyph-name="envelope" d="M1024 545.143v-453.714c0-50.286-41.143-91.429-91.429-91.429h-841.143c-50.286 0-91.429 41.143-91.429 91.429v453.714c17.143-18.857 36.571-35.429 57.714-49.714 94.857-64.571 190.857-129.143 284-197.143 48-35.429 107.429-78.857 169.714-78.857h1.143c62.286 0 121.714 43.429 169.714 78.857 93.143 67.429 189.143 132.571 284.571 197.143 20.571 14.286 40 30.857 57.143 49.714zM1024 713.143c0-64-47.429-121.714-97.714-156.571-89.143-61.714-178.857-123.429-267.429-185.714-37.143-25.714-100-78.286-146.286-78.286h-1.143c-46.286 0-109.143 52.571-146.286 78.286-88.571 62.286-178.286 124-266.857 185.714-40.571 27.429-98.286 92-98.286 144 0 56 30.286 104 91.429 104h841.143c49.714 0 91.429-41.143 91.429-91.429z" />
<glyph unicode="&#xe91a;" glyph-name="envelope2" d="M928 832h-832c-53.024 0-96-42.976-96-96v-576c0-52.992 42.976-96 96-96h832c53.024 0 96 43.008 96 96v576c0 53.024-42.976 96-96 96zM87.712 128.32l-23.392 23.424 263.968 263.936 23.392-23.424-263.968-263.936zM936.288 128.32l-263.968 263.936 23.392 23.424 263.968-263.936-23.392-23.424zM544 341.6v-21.6h-64v21.6l-415.904 385.6 40.704 40.704 407.2-377.536 407.2 377.536 40.704-40.704-415.904-385.6z" />
<glyph unicode="&#xe91b;" horiz-adv-x="2658" d="M1365.333 142.869h630.949v641.293h-630.949z" />
<glyph unicode="&#xe91c;" horiz-adv-x="2658" d="M2027.313 142.869h630.949v641.293h-630.949z" />
<glyph unicode="&#xe91d;" horiz-adv-x="2658" d="M413.737 411.798l-79.319 206.869-75.833-206.869h155.152zM558.545 225.616h-69.447l-53.861 135.28h-194.749l-51.332-135.28h-65.036l178.454 444.768h66.373l189.598-444.768z" />
<glyph unicode="&#xe91e;" horiz-adv-x="2658" d="M262.561 410.649h149.416l-76.51 194.030-72.906-194.030zM255.018 405.494l80.337 213.941 82.963-210.391v0l1.293-3.55h-164.593zM435.323 364.534l52.801-133.802h62.545l-184.092 434.564h-61.424l-173.348-434.564h58.193l50.428 133.802h194.896zM484.63 225.616l-53.023 133.763h-187.464l-50.408-133.763h-69.614l177.367 444.768h68.665l187.020-441.208v0l1.373-3.56h-73.915z" />
<glyph unicode="&#xe91f;" horiz-adv-x="2658" d="M961.939 225.616h62.061v444.768h-62.061z" />
<glyph unicode="&#xe920;" horiz-adv-x="2658" d="M966.965 230.732h52.094v434.555h-52.094v-434.555zM1021.568 228.213v0zM961.939 225.616v444.768h62.061v-444.768h-62.061z" />
<glyph unicode="&#xe921;" horiz-adv-x="2658" d="M1682.568 214.347c-63.118 0-109.975 14.049-141.213 42.286-31.199 28.306-47.489 64.53-49.128 108.731h56.809c3.14-33.341 17.14-57.905 41.575-73.81 24.752-15.974 54.529-23.981 89.489-23.981 33.055 0 59.682 6.852 79.951 20.407 20.171 13.565 30.132 32.206 30.132 55.486 0 24.544-10.327 42.464-31.199 53.62-20.98 11.068-56.997 22.027-108.020 33.025-51.004 10.811-87.682 25.808-109.916 45.248-22.194 19.183-33.321 44.932-33.321 76.99 0 36.086 14.523 65.675 43.392 88.936 28.819 23.152 67.354 34.664 115.247 34.664 50.352 0 90.94-11.601 121.892-35.049 30.695-23.251 47.114-56.276 48.96-98.908h-57.54c-5.924 54.035-42.967 80.929-110.805 80.929-32.936 0-58.468-6.121-76.555-18.571-18.028-12.381-27.131-28.77-27.131-49.207 0-18.739 7.405-32.768 21.967-42.079 14.503-9.32 41.555-18.364 81.294-27.072 39.67-8.886 71.095-17.426 94.396-25.907 23.468-8.461 43.402-21.77 60.008-39.709 16.656-18.028 24.949-42.089 24.949-72.3 0-38.475-15.254-70.306-45.83-95.738-30.685-25.314-70.464-37.991-119.404-37.991z" />
<glyph unicode="&#xe922;" horiz-adv-x="2658" d="M1682.568 211.763v5.173c48.595 0 87.85 12.44 117.706 37.428 30.083 25.117 44.952 56.009 44.952 93.714 0 29.737-8.125 53.136-24.317 70.483-16.221 17.692-35.928 30.636-58.932 39.146-23.063 8.392-54.627 16.942-94.277 25.709-39.818 8.797-66.929 17.702-81.995 27.457-15.283 9.715-23.073 24.85-23.073 44.113 0 21.424 9.557 38.821 28.207 51.498 18.798 12.815 44.715 19.094 78.036 19.094 67.571 0.207 106.411-27.23 113.056-80.978h52.534c-2.389 40.677-18.206 71.964-47.884 94.218-30.35 22.984-70.207 34.526-120.213 34.526-47.529 0-85.322-11.492-113.539-34.082-28.424-22.698-42.385-51.517-42.493-86.912 0-31.505 10.762-56.227 32.492-75.183 21.612-18.778 57.945-33.716 108.692-44.498 51.122-10.949 87.396-21.997 108.761-33.371 21.523-11.334 32.759-30.587 32.63-55.832 0-24.11-10.762-43.678-31.455-57.599-20.881-13.97-47.914-20.871-81.353-20.871-35.345 0-65.636 8.056-90.782 24.446-24.781 15.905-39.067 40.627-42.582 73.346h-51.853c2.241-42.553 18.147-76.92 48.21-104.18 30.567-27.585 76.802-41.674 139.476-41.674v-5.173c-63.227 0-111.071 14.138-142.951 43.017-31.752 28.632-48.338 65.645-50.036 110.558l-0.099 2.695h62.022l0.267-2.429c2.972-32.709 16.448-56.325 40.223-71.856 24.416-15.629 53.512-23.458 88.107-23.458 32.67 0 58.952 6.684 78.48 19.914 19.539 13.319 28.987 30.695 29.155 53.265-0.168 23.745-9.833 40.489-30.043 51.231-20.496 11.048-56.207 22.086-107.231 32.877-51.31 10.89-88.314 25.966-111.091 45.633-22.807 19.845-34.378 46.433-34.23 79.142-0.148 36.866 14.908 67.423 44.389 90.91 29.451 23.675 68.558 35.217 116.837 35.217 50.639 0 91.829-11.67 123.323-35.444 31.465-23.735 48.279-57.757 50.096-100.882l0.138-2.725h-62.555l-0.217 2.291c-6.131 52.603-40.973 78.401-108.277 78.638-32.66 0-57.52-6.22-75.064-18.107-17.495-12.094-25.877-27.447-25.877-47.262 0-18.018 6.743-30.794 20.615-39.739 13.862-8.984 40.795-18.137 80.406-26.716 39.65-8.777 71.273-17.446 94.84-25.996 23.695-8.659 44.093-22.194 61.005-40.519 17.070-18.403 25.729-43.313 25.65-73.939 0.079-39.127-15.718-71.846-46.758-97.654-31.090-25.818-71.638-38.663-121.122-38.663z" />
<glyph unicode="&#xe923;" horiz-adv-x="2658" d="M2349.766 214.347c-64.095 0-116.106 20.98-156.003 63.059-39.995 41.96-59.89 97.901-59.89 167.703 0 70.148 19.726 126.197 59.1 167.93 39.324 41.911 90.92 62.911 154.976 62.911 53.828 0 98.503-12.865 134.075-38.83 35.701-25.917 55.536-60.472 59.919-104.012h-61.183c-2.527 28.829-15.451 51.399-39.087 67.739-23.527 16.379-54.479 24.495-93.083 24.495-46.166 0-83.15-15.738-111.436-47.183-28.039-31.347-42.079-75.785-42.079-133.048 0-56.977 14.266-101.228 42.711-132.881 28.424-31.554 65.567-47.311 111.328-47.311 64.382 0 112.226 21.187 143.425 63.592v67.887h-117.883v53.324h175.117v-227.73h-41.654l-15.58 46.847c-30.162-36.273-77.789-54.489-142.773-54.489z" />
<glyph unicode="&#xe924;" horiz-adv-x="2658" d="M2349.766 211.763v5.173c64.5 0 111.19 18.077 140.828 53.591l3.021 3.683 16.3-49.71h37.29v222.695h-169.865v-48.052h117.854v-71.52l-0.592-0.652c-31.682-43.086-80.583-64.777-145.488-64.648-46.443-0.128-84.444 16.162-113.332 48.22-29.017 32.137-43.273 77.148-43.273 134.569 0 57.678 14.138 102.748 42.79 134.855 28.563 31.998 66.534 48.002 113.293 48.002 38.85 0 70.552-8.195 94.682-24.9 23.409-16.251 36.807-38.988 39.719-67.344h56c-4.779 41.457-24.199 74.353-58.448 99.253-35.039 25.532-79.142 38.366-132.515 38.366-63.345-0.089-114.23-20.753-153.219-62.111-38.821-41.407-58.3-96.558-58.3-166.123 0-69.2 19.677-124.449 59.11-165.916 39.373-41.437 90.535-62.259 154.147-62.259v-5.173c-64.717 0-117.528 21.197-157.948 63.819-40.46 42.572-60.551 99.283-60.551 169.529 0 70.464 19.864 127.233 59.82 169.766 39.877 42.385 92.322 63.602 156.941 63.602 54.094 0 99.441-13.003 135.546-39.216 36.175-26.252 56.73-61.795 60.837-105.878l0.346-2.784h-66.445l-0.178 2.34c-2.488 28.128-15.037 49.819-37.833 65.932-22.984 15.915-53.61 24.021-91.71 24.021-45.524-0.138-81.709-15.53-109.294-46.433-27.615-30.863-41.575-74.472-41.575-131.35 0-56.661 14.089-100.171 41.94-131.123 27.98-31.021 64.076-46.522 109.452-46.522 63.592 0 110.084 20.714 140.759 61.923v64.451h-117.795v58.468h180.281v-232.904h-46.087l-14.74 44.29c-30.902-34.694-78.441-51.932-141.727-51.932h-0.040z" />
<glyph unicode="&#xe925;" horiz-adv-x="2658" d="M61.648 10.822l-13.536 36.234-13.2-36.234h26.736zM97.882-27.663h-21.493l-8.52 22.066h-38.959l-8.066-22.066h-20.842l37.962 97.575h20.891l39.028-97.575z" />
<glyph unicode="&#xe926;" horiz-adv-x="2658" d="M104.573 42.968h17.288v-9.626c6.22 7.444 13.585 11.206 21.997 11.206 4.571 0 8.392-0.908 11.759-2.824 3.347-1.748 6.171-4.621 8.125-8.382 3.248 3.762 6.536 6.635 10.268 8.382 3.465 1.915 7.316 2.824 11.561 2.824 5.006 0 9.478-1.096 13.003-3.199 3.702-2.103 6.398-5.302 8.165-9.34 1.175-2.962 1.886-7.839 1.886-14.612v-45.090h-18.769v40.371c0 6.96-0.583 11.492-1.856 13.635-1.827 2.616-4.403 3.85-8.017 3.85-2.705 0-5.104-0.711-7.365-2.36-2.34-1.491-4.068-3.959-5.055-6.99-1.007-3.11-1.53-7.968-1.53-14.652v-33.854h-18.66v38.712c0 6.901-0.434 11.374-1.076 13.24-0.553 2.103-1.649 3.515-3.080 4.532-1.402 1.007-3.248 1.372-5.637 1.372-2.903 0-5.45-0.711-7.78-2.152-2.291-1.649-3.969-3.841-4.986-6.901-1.056-2.972-1.511-7.691-1.511-14.494v-34.309h-18.729v70.661z" />
<glyph unicode="&#xe927;" horiz-adv-x="2658" d="M261.855 13.618c-0.148 5.43-1.53 9.547-4.206 12.341-2.518 2.843-5.914 4.206-9.715 4.206-4.097 0-7.444-1.372-10.189-4.413-2.626-2.992-3.9-7.010-3.9-12.134h28.010zM260.779-5.308l18.749-3.169c-2.527-6.714-6.25-12.065-11.324-15.58-5.351-3.515-11.719-5.351-19.568-5.351-12.282 0-21.296 3.999-27.289 12.134-4.64 6.368-7 14.494-7 24.297 0 11.719 3.209 20.99 9.152 27.575 6.25 6.625 13.941 9.952 23.34 9.952 10.386 0 18.739-3.515 24.811-10.525 6.151-6.921 9.014-17.455 8.866-31.801h-46.976c0.148-5.578 1.728-9.952 4.601-12.865 2.804-3.268 6.556-4.739 10.742-4.739 2.903 0 5.401 0.908 7.405 2.379 1.994 1.629 3.465 4.226 4.492 7.691z" />
<glyph unicode="&#xe928;" horiz-adv-x="2658" d="M307.374-27.695h-18.64v70.661h17.218v-10.080c3.041 4.798 5.776 7.869 8.066 9.419 2.518 1.432 5.094 2.241 8.145 2.241 4.255 0 8.372-1.145 12.371-3.604l-5.815-16.31c-3.1 2.083-6.151 3.12-8.876 3.12-2.547 0-4.867-0.721-6.575-2.142-1.797-1.441-3.219-4.078-4.275-7.898-1.066-3.821-1.619-11.591-1.619-23.587v-21.819z" />
<glyph unicode="&#xe929;" horiz-adv-x="2658" d="M340.351-27.707h18.719v70.671h-18.719v-70.671zM340.351 52.491h18.719v17.426h-18.719v-17.426z" />
<glyph unicode="&#xe92a;" horiz-adv-x="2658" d="M432.704 21.911l-18.384-3.268c-0.652 3.831-1.925 6.605-4.245 8.392-2.261 1.876-5.025 2.824-8.53 2.824-4.67 0-8.392-1.57-11.216-4.808-2.804-3.258-4.097-8.56-4.097-16.172 0-8.362 1.353-14.345 4.196-17.9 2.794-3.357 6.595-5.075 11.344-5.075 3.594 0 6.467 1.027 8.718 2.992 2.231 1.994 3.91 5.509 4.769 10.396l18.354-3.090c-1.827-8.481-5.381-14.809-10.85-19.144-5.489-4.275-12.687-6.447-21.839-6.447-10.298 0-18.601 3.278-24.771 9.853-6.111 6.467-9.113 15.51-9.113 27.052 0 11.749 3.001 20.773 9.142 27.21 6.299 6.566 14.444 9.824 25.087 9.824 8.55 0 15.501-1.846 20.447-5.618 5.193-3.633 8.738-9.419 10.989-17.021z" />
<glyph unicode="&#xe92b;" horiz-adv-x="2658" d="M482.272 6.147c-2.449-0.731-6.25-1.718-11.314-2.725-5.331-1.195-8.619-2.251-10.228-3.238-2.527-1.856-3.683-4.068-3.683-6.684 0-2.626 0.889-4.867 2.942-6.872 1.994-1.817 4.492-2.804 7.336-2.804 3.406 0 6.605 1.086 9.705 3.228 2.379 1.777 3.771 3.821 4.453 6.299 0.454 1.58 0.79 4.67 0.79 9.063v3.732zM457.244 21.41l-17.031 3.080c2.024 6.773 5.233 11.907 9.922 15.066 4.611 3.396 11.571 4.996 20.822 4.996 8.165 0 14.513-0.987 18.551-2.972 4.097-2.024 7-4.492 8.698-7.602 1.678-2.873 2.468-8.57 2.468-16.715l-0.158-21.849c0-6.052 0.247-10.742 0.889-13.714 0.602-2.913 1.659-6.121 3.298-9.399h-18.393c-0.533 1.234-1.086 2.962-1.994 5.489-0.099 1.135-0.434 1.669-0.533 2.231-3.219-3.238-6.753-5.43-10.357-7.010-3.515-1.619-7.494-2.429-11.719-2.429-7.079 0-12.924 2.044-17.080 5.924-4.127 4.147-6.329 9.024-6.329 15.017 0 3.969 1.007 7.652 2.814 10.702 2.024 3.149 4.571 5.647 8.125 7.128 3.396 1.659 8.451 3.159 14.79 4.482 8.797 1.629 14.8 3.1 18.245 4.463v1.905c0 3.653-0.898 6.131-2.626 7.81-1.718 1.471-5.164 2.152-10.061 2.152-3.396 0-5.924-0.632-7.879-1.876-1.866-1.481-3.238-3.643-4.463-6.881z" />
<glyph unicode="&#xe92c;" horiz-adv-x="2658" d="M573.549-27.695h-18.729v36.017c0 7.602-0.405 12.489-1.135 14.839-0.908 2.142-2.281 3.949-4.058 5.193-1.708 1.155-3.821 1.807-6.417 1.807-3.337 0-6.141-0.81-8.688-2.695-2.597-1.728-4.443-3.969-5.371-7.020-0.859-2.834-1.382-8.274-1.382-16.231v-31.909h-18.749v70.661h17.337v-10.406c6.2 7.977 13.911 11.986 23.359 11.986 4.068 0 7.898-0.81 11.334-2.241 3.436-1.402 6.013-3.396 7.691-5.608 1.807-2.449 3.021-4.858 3.712-7.898 0.721-3.061 1.096-7.158 1.096-12.657v-43.836z" />
<glyph unicode="&#xe92d;" horiz-adv-x="2658" d="M624.259-27.667h19.736v97.585h-19.736z" />
<glyph unicode="&#xe92e;" horiz-adv-x="2658" d="M718.8-27.695h-18.699v36.017c0 7.602-0.395 12.489-1.254 14.839-0.819 2.142-2.133 3.949-3.821 5.193-1.876 1.155-3.969 1.807-6.664 1.807-3.14 0-6.042-0.81-8.678-2.695-2.567-1.728-4.275-3.969-5.262-7.020-0.819-2.834-1.451-8.274-1.451-16.231v-31.909h-18.699v70.661h17.347v-10.406c6.22 7.977 14.010 11.986 23.409 11.986 4.107 0 7.839-0.81 11.374-2.241 3.248-1.402 6.013-3.396 7.671-5.608 1.728-2.449 3.051-4.858 3.722-7.898 0.622-3.061 1.007-7.158 1.007-12.657v-43.836z" />
<glyph unicode="&#xe92f;" horiz-adv-x="2658" d="M764.501 42.968v-14.908h-12.835v-28.533c0-5.825 0.267-9.103 0.474-10.1 0.247-0.938 0.681-1.827 1.728-2.35 0.839-0.602 1.896-0.987 3.090-0.987 1.669 0 4.206 0.602 7.543 1.846l1.511-14.424c-4.265-1.905-9.192-2.903-14.681-2.903-3.446 0-6.487 0.533-9.162 1.698-2.725 1.205-4.69 2.577-6.013 4.482-1.195 1.748-2.133 4.245-2.567 7.188-0.464 2.113-0.652 6.654-0.652 13.21v30.873h-8.461v14.908h8.461v14.020l18.729 10.89v-24.91h12.835z" />
<glyph unicode="&#xe930;" horiz-adv-x="2658" d="M813.5 13.618c-0.089 5.43-1.619 9.547-4.166 12.341-2.745 2.843-5.944 4.206-9.705 4.206-4.186 0-7.513-1.372-10.14-4.413-2.735-2.992-4.038-7.010-3.949-12.134h27.96zM812.344-5.308l18.69-3.169c-2.36-6.714-6.161-12.065-11.393-15.58-5.075-3.515-11.63-5.351-19.272-5.351-12.46 0-21.572 3.999-27.437 12.134-4.66 6.368-6.921 14.494-6.921 24.297 0 11.719 3.051 20.99 9.261 27.575 5.973 6.625 13.704 9.952 23.281 9.952 10.465 0 18.591-3.515 24.722-10.525 6.082-6.921 9.004-17.455 8.708-31.801h-46.828c0.109-5.578 1.599-9.952 4.443-12.865 3.011-3.268 6.595-4.739 10.86-4.739 2.932 0 5.42 0.908 7.424 2.379 1.965 1.629 3.544 4.226 4.463 7.691z" />
<glyph unicode="&#xe931;" horiz-adv-x="2658" d="M857.61-27.695h-18.739v70.661h17.307v-10.080c3.080 4.798 5.687 7.869 8.135 9.419 2.32 1.432 5.035 2.241 8.135 2.241 4.265 0 8.254-1.145 12.223-3.604l-5.766-16.31c-3.149 2.083-6.052 3.12-8.787 3.12-2.666 0-4.808-0.721-6.654-2.142-1.827-1.441-3.268-4.078-4.384-7.898-0.997-3.821-1.471-11.591-1.471-23.587v-21.819z" />
<glyph unicode="&#xe932;" horiz-adv-x="2658" d="M953.437-27.695h-18.838v36.017c0 7.602-0.267 12.489-1.205 14.839-0.75 2.142-2.093 3.949-3.9 5.193-1.708 1.155-3.801 1.807-6.447 1.807-3.307 0-6.072-0.81-8.698-2.695-2.597-1.728-4.344-3.969-5.292-7.020-0.859-2.834-1.412-8.274-1.412-16.231v-31.909h-18.828v70.661h17.416v-10.406c6.22 7.977 14.010 11.986 23.31 11.986 4.147 0 7.967-0.81 11.393-2.241 3.288-1.402 5.973-3.396 7.75-5.608 1.669-2.449 2.903-4.858 3.604-7.898 0.642-3.061 1.145-7.158 1.145-12.657v-43.836z" />
<glyph unicode="&#xe933;" horiz-adv-x="2658" d="M1001.79 6.147c-2.399-0.731-6.25-1.718-11.413-2.725-5.262-1.195-8.659-2.251-10.258-3.238-2.399-1.856-3.604-4.068-3.604-6.684 0-2.626 0.977-4.867 2.992-6.872 1.836-1.817 4.334-2.804 7.424-2.804 3.446 0 6.575 1.086 9.626 3.228 2.172 1.777 3.653 3.821 4.551 6.299 0.395 1.58 0.681 4.67 0.681 9.063v3.732zM976.713 21.41l-16.991 3.080c1.856 6.773 5.203 11.907 9.853 15.066 4.64 3.396 11.542 4.996 20.802 4.996 8.353 0 14.494-0.987 18.532-2.972 4.087-2.024 7.138-4.492 8.668-7.602 1.678-2.873 2.449-8.57 2.449-16.715l-0.079-21.849c0-6.052 0.355-10.742 1.007-13.714 0.385-2.913 1.501-6.121 3.169-9.399h-18.512c-0.523 1.234-1.056 2.962-1.708 5.489-0.395 1.135-0.602 1.669-0.652 2.231-3.189-3.238-6.645-5.43-10.396-7.010-3.544-1.619-7.385-2.429-11.512-2.429-7.326 0-13.022 2.044-17.268 5.924-4.255 4.147-6.398 9.024-6.398 15.017 0 3.969 1.056 7.652 2.903 10.702 1.994 3.149 4.7 5.647 7.967 7.128 3.604 1.659 8.599 3.159 14.967 4.482 8.856 1.629 14.809 3.1 18.275 4.463v1.905c0 3.653-0.958 6.131-2.725 7.81-1.757 1.471-5.104 2.152-10.011 2.152-3.465 0-5.944-0.632-7.889-1.876-1.757-1.481-3.347-3.643-4.453-6.881z" />
<glyph unicode="&#xe934;" horiz-adv-x="2658" d="M1064.277 42.968v-14.908h-12.746v-28.533c0-5.825 0.049-9.103 0.405-10.1 0.099-0.938 0.642-1.827 1.649-2.35 0.8-0.602 1.827-0.987 3.199-0.987 1.718 0 4.147 0.602 7.395 1.846l1.629-14.424c-4.344-1.905-9.33-2.903-14.879-2.903-3.416 0-6.338 0.533-9.044 1.698-2.715 1.205-4.591 2.577-5.934 4.482-1.274 1.748-2.142 4.245-2.755 7.188-0.385 2.113-0.395 6.654-0.395 13.21v30.873h-8.678v14.908h8.678v14.020l18.729 10.89v-24.91h12.746z" />
<glyph unicode="&#xe935;" horiz-adv-x="2658" d="M1072.74-27.707h18.65v70.671h-18.65v-70.671zM1072.74 52.491h18.65v17.426h-18.65v-17.426z" />
<glyph unicode="&#xe936;" horiz-adv-x="2658" d="M1115.72 7.622c0-7.109 1.738-12.341 5.203-16.172 3.238-3.732 7.197-5.529 12.193-5.529 4.897 0 9.044 1.797 12.43 5.529 3.209 3.831 4.867 9.182 4.867 16.3 0 6.872-1.659 12.213-4.867 15.866-3.386 3.85-7.533 5.588-12.43 5.588-4.996 0-8.955-1.738-12.193-5.588-3.465-3.653-5.203-8.994-5.203-15.994zM1096.625 8.55c0 6.269 1.55 12.262 4.65 18.127 2.952 5.647 7.424 10.179 13.003 13.329 5.608 2.962 11.818 4.542 18.739 4.542 10.821 0 19.519-3.505 26.302-10.515 6.881-6.921 10.238-15.609 10.238-26.193 0-10.811-3.416-19.657-10.298-26.687-6.802-7.109-15.54-10.515-26.144-10.515-6.368 0-12.558 1.451-18.453 4.295-5.924 3.001-10.436 7.306-13.388 13.003-3.1 5.697-4.65 12.578-4.65 20.615z" />
<glyph unicode="&#xe937;" horiz-adv-x="2658" d="M1239.016-27.695h-18.739v36.017c0 7.602-0.355 12.489-1.293 14.839-0.74 2.142-2.063 3.949-3.801 5.193-1.797 1.155-3.9 1.807-6.477 1.807-3.278 0-6.111-0.81-8.738-2.695-2.646-1.728-4.393-3.969-5.322-7.020-0.829-2.834-1.412-8.274-1.412-16.231v-31.909h-18.759v70.661h17.436v-10.406c6.131 7.977 13.921 11.986 23.271 11.986 4.226 0 7.948-0.81 11.433-2.241 3.258-1.402 5.963-3.396 7.671-5.608 1.678-2.449 3.051-4.858 3.722-7.898 0.602-3.061 1.007-7.158 1.007-12.657v-43.836z" />
<glyph unicode="&#xe938;" horiz-adv-x="2658" d="M1289.5 6.147c-2.468-0.731-6.269-1.718-11.354-2.725-5.341-1.195-8.738-2.251-10.298-3.238-2.448-1.856-3.633-4.068-3.633-6.684 0-2.626 0.948-4.867 2.992-6.872 1.896-1.817 4.433-2.804 7.405-2.804 3.416 0 6.595 1.086 9.646 3.228 2.31 1.777 3.831 3.821 4.512 6.299 0.484 1.58 0.731 4.67 0.731 9.063v3.732zM1264.492 21.41l-17.031 3.080c1.797 6.773 5.173 11.907 9.893 15.066 4.551 3.396 11.551 4.996 20.793 4.996 8.155 0 14.553-0.987 18.601-2.972 3.959-2.024 6.98-4.492 8.639-7.602 1.718-2.873 2.488-8.57 2.488-16.715l-0.286-21.849c0-6.052 0.365-10.742 1.037-13.714 0.583-2.913 1.659-6.121 3.268-9.399h-18.462c-0.533 1.234-1.135 2.962-1.846 5.489-0.306 1.135-0.602 1.669-0.622 2.231-3.179-3.238-6.605-5.43-10.278-7.010-3.643-1.619-7.573-2.429-11.68-2.429-7.286 0-12.963 2.044-17.218 5.924-4.166 4.147-6.21 9.024-6.21 15.017 0 3.969 0.908 7.652 2.814 10.702 1.886 3.149 4.63 5.647 8.056 7.128 3.396 1.659 8.353 3.159 14.75 4.482 8.856 1.629 14.908 3.1 18.305 4.463v1.905c0 3.653-1.007 6.131-2.666 7.81-1.787 1.471-5.223 2.152-10.14 2.152-3.238 0-5.884-0.632-7.79-1.876-1.757-1.481-3.337-3.643-4.413-6.881z" />
<glyph unicode="&#xe939;" horiz-adv-x="2658" d="M1318.024-27.667h18.778v97.585h-18.778z" />
<glyph unicode="&#xe93a;" horiz-adv-x="2658" d="M1385.588 4.025l19.183 1.797c1.293-6.368 3.663-11.097 7.118-14.207 3.584-2.883 8.195-4.542 14.286-4.542 6.348 0 11.127 1.422 14.405 4.058 3.13 2.666 4.788 5.766 4.788 9.498 0 2.291-0.661 4.157-2.103 5.894-1.313 1.649-3.722 2.834-7.138 4.147-2.142 0.849-7.543 2.271-15.698 4.245-10.564 2.695-17.949 5.894-22.323 9.715-5.924 5.509-8.836 11.897-8.836 19.667 0 4.897 1.372 9.597 4.186 14.039 2.834 4.206 6.783 7.454 12.203 9.853 5.302 2.221 11.611 3.317 19.094 3.317 12.341 0 21.553-2.666 27.684-8.066 6.21-5.341 9.419-12.539 9.912-21.434l-19.726-0.977c-0.977 5.094-2.676 8.629-5.529 10.87-2.764 2.251-6.773 3.288-12.479 3.288-5.687 0-10.14-1.037-13.437-3.505-2.142-1.451-3.11-3.643-3.11-6.131 0-2.241 0.968-4.245 2.952-5.904 2.409-2.093 8.432-4.216 18.147-6.437 9.488-2.35 16.646-4.65 21.197-7.099 4.64-2.478 8.175-5.746 10.831-9.873 2.646-4.196 3.9-9.399 3.9-15.51 0-5.647-1.659-10.949-4.69-15.836-3.14-4.897-7.592-8.511-13.23-10.85-5.608-2.33-12.647-3.604-21.266-3.604-12.203 0-21.809 3.001-28.365 8.54-6.654 5.855-10.584 14.197-11.956 25.048z" />
<glyph unicode="&#xe93b;" horiz-adv-x="2658" d="M1535.109 21.911l-18.591-3.268c-0.504 3.831-1.945 6.605-4.206 8.392-2.152 1.876-4.986 2.824-8.481 2.824-4.709 0-8.412-1.57-11.147-4.808-2.794-3.258-4.147-8.56-4.147-16.172 0-8.362 1.353-14.345 4.206-17.9 2.774-3.357 6.615-5.075 11.285-5.075 3.623 0 6.496 1.027 8.688 2.992 2.3 1.994 3.92 5.509 4.996 10.396l18.265-3.090c-1.905-8.481-5.608-14.809-10.989-19.144-5.44-4.275-12.766-6.447-21.809-6.447-10.416 0-18.591 3.278-24.742 9.853-6.003 6.467-9.3 15.51-9.3 27.052 0 11.749 3.298 20.773 9.409 27.21 6.19 6.566 14.464 9.824 25.018 9.824 8.619 0 15.343-1.846 20.536-5.618 4.897-3.633 8.767-9.419 11.008-17.021z" />
<glyph unicode="&#xe93c;" horiz-adv-x="2658" d="M1560.795 69.896v-35.898c5.993 6.941 13.19 10.554 21.582 10.554 4.354 0 8.175-0.78 11.699-2.488 3.396-1.53 6.032-3.564 7.79-5.983 1.738-2.616 2.893-5.272 3.643-8.313 0.504-3.14 0.928-7.711 0.928-14.020v-41.447h-18.739v37.271c0 7.464-0.336 12.183-0.968 14.049-0.849 2.113-2.044 3.692-3.841 4.828-1.807 1.056-4.147 1.718-6.763 1.718-3.149 0-5.865-0.661-8.293-2.182-2.449-1.55-4.305-3.821-5.44-6.842-1.056-3.001-1.599-7.523-1.599-13.526v-35.316h-18.778v97.594h18.778z" />
<glyph unicode="&#xe93d;" horiz-adv-x="2658" d="M1630.677 7.622c0-7.109 1.52-12.341 4.936-16.172 3.298-3.732 7.444-5.529 12.302-5.529 4.838 0 9.024 1.797 12.381 5.529 3.258 3.831 4.877 9.182 4.877 16.3 0 6.872-1.619 12.213-4.877 15.866-3.357 3.85-7.543 5.588-12.381 5.588-4.858 0-9.004-1.738-12.302-5.588-3.416-3.653-4.936-8.994-4.936-15.994zM1611.395 8.55c0 6.269 1.58 12.262 4.67 18.127 2.922 5.647 7.346 10.179 12.993 13.329 5.667 2.962 11.838 4.542 18.798 4.542 10.702 0 19.499-3.505 26.361-10.515 6.901-6.921 10.159-15.609 10.159-26.193 0-10.811-3.465-19.657-10.327-26.687-6.793-7.109-15.55-10.515-25.956-10.515-6.654 0-12.726 1.451-18.65 4.295-5.825 3.001-10.455 7.306-13.378 13.003-3.090 5.697-4.67 12.578-4.67 20.615z" />
<glyph unicode="&#xe93e;" horiz-adv-x="2658" d="M1707.308 7.622c0-7.109 1.58-12.341 4.996-16.172 3.278-3.732 7.346-5.529 12.282-5.529 4.897 0 8.945 1.797 12.203 5.529 3.456 3.831 5.055 9.182 5.055 16.3 0 6.872-1.599 12.213-5.055 15.866-3.258 3.85-7.306 5.588-12.203 5.588-4.936 0-9.004-1.738-12.282-5.588-3.416-3.653-4.996-8.994-4.996-15.994zM1688.164 8.55c0 6.269 1.52 12.262 4.542 18.127 3.011 5.647 7.464 10.179 13.022 13.329 5.608 2.962 11.838 4.542 18.857 4.542 10.643 0 19.381-3.505 26.302-10.515 6.753-6.921 10.258-15.609 10.258-26.193 0-10.811-3.505-19.657-10.446-26.687-6.733-7.109-15.57-10.515-25.956-10.515-6.506 0-12.766 1.451-18.591 4.295-5.944 3.001-10.436 7.306-13.447 13.003-3.021 5.697-4.542 12.578-4.542 20.615z" />
<glyph unicode="&#xe93f;" horiz-adv-x="2658" d="M1767.63-27.667h18.709v97.585h-18.709z" />
<glyph unicode="&#xe940;" horiz-adv-x="2658" d="M1843.389 7.622c0-7.109 1.659-12.341 4.976-16.172 3.465-3.732 7.405-5.529 12.262-5.529 4.917 0 9.083 1.797 12.499 5.529 3.14 3.831 4.877 9.182 4.877 16.3 0 6.872-1.738 12.213-4.877 15.866-3.416 3.85-7.582 5.588-12.499 5.588-4.858 0-8.797-1.738-12.262-5.588-3.317-3.653-4.976-8.994-4.976-15.994zM1824.246 8.55c0 6.269 1.501 12.262 4.66 18.127 2.893 5.647 7.326 10.179 12.943 13.329 5.647 2.962 11.838 4.542 18.778 4.542 10.762 0 19.499-3.505 26.282-10.515 6.812-6.921 10.219-15.609 10.219-26.193 0-10.811-3.406-19.657-10.337-26.687-6.763-7.109-15.461-10.515-25.946-10.515-6.546 0-12.746 1.451-18.591 4.295-5.884 3.001-10.455 7.306-13.348 13.003-3.159 5.697-4.66 12.578-4.66 20.615z" />
<glyph unicode="&#xe941;" horiz-adv-x="2658" d="M1901.605 42.968h10.357v5.322c0 5.914 0.553 10.406 1.846 13.25 1.234 2.952 3.594 5.401 6.98 7.306 3.436 1.698 7.661 2.666 12.904 2.666 5.262 0 10.436-0.79 15.599-2.419l-2.448-12.953c-3.071 0.632-5.944 0.948-8.659 0.948s-4.551-0.543-5.825-1.905c-1.135-1.244-1.787-3.712-1.787-7.237v-4.976h14.020v-14.711h-14.020v-55.95h-18.611v55.95h-10.357v14.711z" />
<glyph unicode="&#xe942;" horiz-adv-x="2658" d="M2034.1 8.171v16.419h42.632v-38.86c-4.107-3.999-10.12-7.503-18.008-10.604-7.849-3.031-15.718-4.522-23.774-4.522-10.278 0-19.114 2.083-26.766 6.348-7.484 4.206-13.269 10.436-17.080 18.364-3.781 8.106-5.766 16.735-5.766 26.094 0 10.14 2.113 19.163 6.516 27.091 4.186 7.839 10.485 13.941 18.66 18.127 6.171 3.268 14.020 4.877 23.429 4.877 12.015 0 21.523-2.626 28.316-7.592 6.862-5.124 11.216-12.124 13.151-21.158l-19.657-3.554c-1.274 4.65-3.742 8.451-7.573 11.245-3.959 2.814-8.639 4.157-14.237 4.157-8.708 0-15.56-2.705-20.704-8.096-5.055-5.568-7.503-13.664-7.503-24.406 0-11.532 2.587-20.22 7.691-26.065 5.055-5.746 11.808-8.649 20.21-8.649 4.127 0 8.333 0.8 12.42 2.389 4.265 1.678 7.75 3.604 10.663 5.914v12.479h-22.619z" />
<glyph unicode="&#xe943;" horiz-adv-x="2658" d="M2131.866-27.695v10.525c-2.567-3.85-6.151-6.694-10.199-8.945-4.344-2.103-8.698-3.248-13.348-3.248-4.7 0-8.925 1.096-12.786 3.051-3.722 2.113-6.516 5.065-8.195 8.896-1.678 3.702-2.508 8.935-2.508 15.54v44.843h18.749v-32.551c0-9.903 0.227-16.034 0.977-18.285 0.81-2.241 1.876-3.949 3.762-5.203 1.817-1.392 4.087-2.024 6.901-2.024 3.228 0 6.101 0.819 8.629 2.577 2.518 1.896 4.295 3.969 5.243 6.546 0.938 2.626 1.293 8.896 1.293 19.114v29.826h18.838v-70.661h-17.357z" />
<glyph unicode="&#xe944;" horiz-adv-x="2658" d="M2197.449 6.147c-2.468-0.731-6.25-1.718-11.453-2.725-5.015-1.195-8.451-2.251-10.090-3.238-2.468-1.856-3.643-4.068-3.643-6.684 0-2.626 0.928-4.867 2.893-6.872 2.004-1.817 4.453-2.804 7.503-2.804 3.337 0 6.496 1.086 9.547 3.228 2.35 1.777 3.85 3.821 4.532 6.299 0.553 1.58 0.711 4.67 0.711 9.063v3.732zM2172.381 21.41l-16.991 3.080c2.004 6.773 5.193 11.907 9.912 15.066 4.69 3.396 11.571 4.996 20.694 4.996 8.481 0 14.592-0.987 18.739-2.972 4.018-2.024 6.901-4.492 8.659-7.602 1.678-2.873 2.389-8.57 2.389-16.715l-0.207-21.849c0-6.052 0.306-10.742 0.908-13.714 0.711-2.913 1.748-6.121 3.446-9.399h-18.601c-0.484 1.234-1.145 2.962-1.777 5.489-0.326 1.135-0.504 1.669-0.642 2.231-3.238-3.238-6.605-5.43-10.307-7.010-3.614-1.619-7.503-2.429-11.591-2.429-7.316 0-13.042 2.044-17.189 5.924-4.196 4.147-6.338 9.024-6.338 15.017 0 3.969 1.076 7.652 2.893 10.702 1.787 3.149 4.492 5.647 7.997 7.128 3.535 1.659 8.432 3.159 14.987 4.482 8.639 1.629 14.691 3.1 18.087 4.463v1.905c0 3.653-0.908 6.131-2.715 7.81-1.639 1.471-5.075 2.152-9.972 2.152-3.357 0-6.052-0.632-7.889-1.876-1.718-1.481-3.337-3.643-4.492-6.881z" />
<glyph unicode="&#xe945;" horiz-adv-x="2658" d="M2290.065-27.695h-18.65v36.017c0 7.602-0.286 12.489-1.254 14.839-0.731 2.142-2.083 3.949-3.791 5.193-1.817 1.155-3.959 1.807-6.546 1.807-3.238 0-6.092-0.81-8.688-2.695-2.685-1.728-4.285-3.969-5.341-7.020-1.007-2.834-1.372-8.274-1.372-16.231v-31.909h-18.818v70.661h17.426v-10.406c6.21 7.977 13.98 11.986 23.34 11.986 4.157 0 7.958-0.81 11.354-2.241 3.298-1.402 6.052-3.396 7.77-5.608 1.738-2.449 3.031-4.858 3.544-7.898 0.721-3.061 1.027-7.158 1.027-12.657v-43.836z" />
<glyph unicode="&#xe946;" horiz-adv-x="2658" d="M2319.033-7.498c3.021-3.416 6.496-5.213 10.791-5.213 4.551 0 8.55 1.797 11.551 5.391 3.090 3.653 4.69 8.836 4.69 15.866 0 7.375-1.372 12.865-4.413 16.31-3.13 3.594-6.931 5.312-11.443 5.312-4.571 0-8.155-1.718-11.176-5.114-2.893-3.614-4.305-8.797-4.305-16.034 0-7.503 1.412-12.953 4.305-16.518zM2319.32-35.014c0.365-2.527 1.155-4.196 2.508-5.094 1.787-1.392 4.591-2.054 8.382-2.054 4.897 0 8.659 0.671 10.999 2.093 1.708 1.066 2.853 2.715 3.811 4.867 0.444 1.599 0.81 4.364 0.81 8.619v10.219c-5.628-7.701-12.608-11.334-21.247-11.334-9.389 0-16.952 3.89-22.58 12.025-4.265 6.279-6.536 14.148-6.536 23.596 0 11.848 2.873 20.99 8.659 27.21 5.707 6.25 12.825 9.419 21.207 9.419 8.718 0 15.945-3.86 21.79-11.542v9.982h17.396v-63.533c0-8.303-0.711-14.632-2.103-18.67-1.313-4.295-3.298-7.474-5.746-9.705-2.527-2.399-5.746-4.364-10.031-5.509-4.068-1.362-9.29-2.024-15.708-2.024-11.976 0-20.328 2.024-25.532 6.19-4.897 3.999-7.563 9.202-7.563 15.55 0 0.573 0.217 1.402 0.217 2.241l21.266-2.547z" />
<glyph unicode="&#xe947;" horiz-adv-x="2658" d="M2371.035-27.695v14.484l26.548 30.458c4.324 5.006 7.563 8.491 9.666 10.554-2.261-0.128-5.094-0.128-8.619-0.336h-24.969v15.501h58.655v-13.269l-27.17-31.228-9.587-10.288c5.193 0.296 8.471 0.553 9.626 0.553h29.135v-16.429h-63.286z" />
<glyph unicode="&#xe948;" horiz-adv-x="2658" d="M2459.352 69.896v-35.898c5.993 6.941 13.21 10.554 21.632 10.554 4.206 0 8.066-0.78 11.532-2.488 3.574-1.53 6.171-3.564 7.967-5.983 1.698-2.616 2.893-5.272 3.623-8.313 0.563-3.14 0.869-7.711 0.869-14.020v-41.447h-18.68v37.271c0 7.464-0.425 12.183-1.106 14.049-0.632 2.113-1.886 3.692-3.85 4.828-1.678 1.056-3.88 1.718-6.546 1.718-3.238 0-5.973-0.661-8.501-2.182-2.33-1.55-4.147-3.821-5.223-6.842-1.214-3.001-1.718-7.523-1.718-13.526v-35.316h-18.778v97.594h18.778z" />
<glyph unicode="&#xe949;" horiz-adv-x="2658" d="M2529.891 7.622c0-7.109 1.659-12.341 4.956-16.172 3.377-3.732 7.543-5.529 12.4-5.529 4.897 0 8.787 1.797 12.262 5.529 3.219 3.831 4.877 9.182 4.877 16.3 0 6.872-1.659 12.213-4.877 15.866-3.475 3.85-7.365 5.588-12.262 5.588-4.858 0-9.024-1.738-12.4-5.588-3.298-3.653-4.956-8.994-4.956-15.994zM2510.757 8.55c0 6.269 1.511 12.262 4.551 18.127 3.209 5.647 7.444 10.179 13.003 13.329 5.707 2.962 11.936 4.542 18.936 4.542 10.544 0 19.282-3.505 26.183-10.515 6.852-6.921 10.298-15.609 10.298-26.193 0-10.811-3.446-19.657-10.317-26.687-7-7.109-15.698-10.515-26.104-10.515-6.506 0-12.746 1.451-18.472 4.295-6.082 3.001-10.317 7.306-13.526 13.003-3.041 5.697-4.551 12.578-4.551 20.615z" />
<glyph unicode="&#xe94a;" horiz-adv-x="2658" d="M2637.066-27.695v10.525c-2.606-3.85-5.963-6.694-10.14-8.945-4.206-2.103-8.599-3.248-13.21-3.248-4.838 0-9.142 1.096-12.884 3.051-3.702 2.113-6.496 5.065-8.195 8.896-1.659 3.702-2.468 8.935-2.468 15.54v44.843h18.709v-32.551c0-9.903 0.306-16.034 0.997-18.285 0.731-2.241 1.905-3.949 3.841-5.203 1.787-1.392 4.087-2.024 6.901-2.024 3.159 0 6.013 0.819 8.54 2.577 2.488 1.896 4.147 3.969 5.243 6.546 0.968 2.626 1.392 8.896 1.392 19.114v29.826h18.759v-70.661h-17.485z" />
<glyph unicode="&#xe94b;" horiz-adv-x="2658" d="M733.546 944.746c-5.213 2.251-11.018 3.544-16.814 3.544-5.687 0-13.022-2.478-13.022-11.482 0-14.326 36.224-8.283 36.224-35.997 0-18.117-14.326-24.979-31.021-24.979-8.994 0-13.022 1.185-21.197 3.189l1.54 14.918c5.687-3.070 12.203-5.085 18.709-5.085 6.279 0 14.681 3.199 14.681 10.653 0 15.757-36.224 9.241-36.224 36.599 0 18.462 14.326 25.216 28.888 25.216 7.109 0 13.733-0.948 19.776-2.962l-1.54-13.615z" />
<glyph unicode="&#xe94c;" horiz-adv-x="2658" d="M905.234 877.241h16.577v82.657h-16.577z" />
<glyph unicode="&#xe94d;" horiz-adv-x="2658" d="M1090.42 959.902h20.368l31.495-61.815h0.237v61.815h15.866v-82.657h-20.249l-31.613 61.815h-0.237v-61.815h-15.866z" />
<glyph unicode="&#xe94e;" horiz-adv-x="2658" d="M1388.586 878.436c-6.042-1.422-12.549-2.606-18.828-2.606-26.766 0-45.356 13.378-45.356 41.328 0 28.296 17.288 44.162 45.356 44.162 5.45 0 12.667-1.066 18.699-3.436l-1.175-13.97c-6.279 3.554-11.966 4.384-17.88 4.384-17.051 0-27.713-13.022-27.713-29.955 0-16.824 10.426-29.491 28.069-29.491 6.506 0 14.207 1.422 18.117 3.436l0.711-13.852z" />
<glyph unicode="&#xe94f;" horiz-adv-x="2658" d="M1552.474 959.902h48.782v-13.022h-32.206v-20.368h29.481v-13.032h-29.481v-23.202h32.443v-13.032h-49.019z" />
<glyph unicode="&#xe950;" horiz-adv-x="2658" d="M1978.497 959.902h14.671v-82.657h-16.567v63.829l-13.97-11.374-8.293 10.781z" />
<glyph unicode="&#xe951;" horiz-adv-x="2658" d="M2206.666 934.323c0 7.819-3.317 14.681-11.482 14.681-7.701 0-10.9-7.464-10.9-14.8 0-8.056 3.317-15.51 11.245-15.51 8.056 0 11.137 7.346 11.137 15.629zM2173.977 892.165c4.393-1.886 8.886-3.307 14.454-3.307 14.326 0 19.183 13.259 19.657 25.571l-0.237 0.237c-3.91-5.805-9.004-8.293-15.984-8.293-15.629 0-24.159 9.952-24.159 25.225 0 17.88 8.757 29.718 27.477 29.718 22.965 0 28.059-19.055 28.059-38.475 0-22.382-7.227-47.015-33.983-47.015-6.042 0-11.719 0.948-17.406 2.962l2.123 13.378z" />
<glyph unicode="&#xe952;" horiz-adv-x="2658" d="M2423.717 938.584c0 6.161-3.91 10.426-10.179 10.426-6.052 0-12.085-3.317-12.085-9.952 0-7.099 7.336-10.298 13.022-12.43 4.621 1.659 9.241 6.862 9.241 11.956zM2400.742 899.862c0-6.862 5.914-11.719 12.549-11.719s11.848 4.147 11.848 11.008c0 8.175-6.98 12.075-13.862 14.336-5.914-2.843-10.534-6.635-10.534-13.625zM2425.849 921.77v-0.237c10.89-5.094 15.866-12.193 15.866-21.671 0-16.695-12.075-24.031-28.424-24.031-16.103 0-29.125 6.98-29.125 23.794 0 9.241 5.203 15.639 15.155 20.486v0.237c-8.293 3.673-13.733 10.544-13.733 19.183 0 14.8 11.245 21.79 26.292 21.79 14.553 0 27.694-6.042 27.694-19.894 0-7.464-4.611-16.103-13.723-19.776v0.118z" />
<glyph unicode="&#xe953;" horiz-adv-x="2658" d="M2631.059 959.902h14.671v-82.657h-16.567v63.829l-13.97-11.374-8.293 10.781z" />
<glyph unicode="&#xf002;" glyph-name="search2" horiz-adv-x="951" d="M658.286 475.428q0 105.714-75.143 180.857t-180.857 75.143-180.857-75.143-75.143-180.857 75.143-180.857 180.857-75.143 180.857 75.143 75.143 180.857zM950.857 0q0-29.714-21.714-51.429t-51.429-21.714q-30.857 0-51.429 21.714l-196 195.429q-102.286-70.857-228-70.857-81.714 0-156.286 31.714t-128.571 85.714-85.714 128.571-31.714 156.286 31.714 156.286 85.714 128.571 128.571 85.714 156.286 31.714 156.286-31.714 128.571-85.714 85.714-128.571 31.714-156.286q0-125.714-70.857-228l196-196q21.143-21.143 21.143-51.429z" />
<glyph unicode="&#xf004;" glyph-name="heart" d="M512 0q-14.857 0-25.143 10.286l-356.571 344q-5.714 4.571-15.714 14.857t-31.714 37.429-38.857 55.714-30.571 69.143-13.429 78.857q0 125.714 72.571 196.571t200.571 70.857q35.429 0 72.286-12.286t68.571-33.143 54.571-39.143 43.429-38.857q20.571 20.571 43.429 38.857t54.571 39.143 68.571 33.143 72.286 12.286q128 0 200.571-70.857t72.571-196.571q0-126.286-130.857-257.143l-356-342.857q-10.286-10.286-25.143-10.286z" />
<glyph unicode="&#xf00d;" glyph-name="close, remove, times" horiz-adv-x="805" d="M741.714 195.428q0-22.857-16-38.857l-77.714-77.714q-16-16-38.857-16t-38.857 16l-168 168-168-168q-16-16-38.857-16t-38.857 16l-77.714 77.714q-16 16-16 38.857t16 38.857l168 168-168 168q-16 16-16 38.857t16 38.857l77.714 77.714q16 16 38.857 16t38.857-16l168-168 168 168q16 16 38.857 16t38.857-16l77.714-77.714q16-16 16-38.857t-16-38.857l-168-168 168-168q16-16 16-38.857z" />
<glyph unicode="&#xf017;" glyph-name="clock-o" horiz-adv-x="878" d="M512 640v-256q0-8-5.143-13.143t-13.143-5.143h-182.857q-8 0-13.143 5.143t-5.143 13.143v36.571q0 8 5.143 13.143t13.143 5.143h128v201.143q0 8 5.143 13.143t13.143 5.143h36.571q8 0 13.143-5.143t5.143-13.143zM749.714 438.857q0 84.571-41.714 156t-113.143 113.143-156 41.714-156-41.714-113.143-113.143-41.714-156 41.714-156 113.143-113.143 156-41.714 156 41.714 113.143 113.143 41.714 156zM877.714 438.857q0-119.429-58.857-220.286t-159.714-159.714-220.286-58.857-220.286 58.857-159.714 159.714-58.857 220.286 58.857 220.286 159.714 159.714 220.286 58.857 220.286-58.857 159.714-159.714 58.857-220.286z" />
<glyph unicode="&#xf023;" glyph-name="lock" horiz-adv-x="658" d="M182.857 512h292.571v109.714q0 60.571-42.857 103.429t-103.429 42.857-103.429-42.857-42.857-103.429v-109.714zM658.286 457.143v-329.143q0-22.857-16-38.857t-38.857-16h-548.571q-22.857 0-38.857 16t-16 38.857v329.143q0 22.857 16 38.857t38.857 16h18.286v109.714q0 105.143 75.429 180.571t180.571 75.429 180.571-75.429 75.429-180.571v-109.714h18.286q22.857 0 38.857-16t16-38.857z" />
<glyph unicode="&#xf039;" glyph-name="align-justify" d="M1024 182.857v-73.143q0-14.857-10.857-25.714t-25.714-10.857h-950.857q-14.857 0-25.714 10.857t-10.857 25.714v73.143q0 14.857 10.857 25.714t25.714 10.857h950.857q14.857 0 25.714-10.857t10.857-25.714zM1024 402.286v-73.143q0-14.857-10.857-25.714t-25.714-10.857h-950.857q-14.857 0-25.714 10.857t-10.857 25.714v73.143q0 14.857 10.857 25.714t25.714 10.857h950.857q14.857 0 25.714-10.857t10.857-25.714zM1024 621.714v-73.143q0-14.857-10.857-25.714t-25.714-10.857h-950.857q-14.857 0-25.714 10.857t-10.857 25.714v73.143q0 14.857 10.857 25.714t25.714 10.857h950.857q14.857 0 25.714-10.857t10.857-25.714zM1024 841.143v-73.143q0-14.857-10.857-25.714t-25.714-10.857h-950.857q-14.857 0-25.714 10.857t-10.857 25.714v73.143q0 14.857 10.857 25.714t25.714 10.857h950.857q14.857 0 25.714-10.857t10.857-25.714z" />
<glyph unicode="&#xf053;" glyph-name="chevron-left" horiz-adv-x="768" d="M669.143 778.857l-303.429-303.429 303.429-303.429q10.857-10.857 10.857-25.714t-10.857-25.714l-94.857-94.857q-10.857-10.857-25.714-10.857t-25.714 10.857l-424 424q-10.857 10.857-10.857 25.714t10.857 25.714l424 424q10.857 10.857 25.714 10.857t25.714-10.857l94.857-94.857q10.857-10.857 10.857-25.714t-10.857-25.714z" />
<glyph unicode="&#xf054;" glyph-name="chevron-right" horiz-adv-x="695" d="M632.571 449.714l-424-424q-10.857-10.857-25.714-10.857t-25.714 10.857l-94.857 94.857q-10.857 10.857-10.857 25.714t10.857 25.714l303.429 303.429-303.429 303.429q-10.857 10.857-10.857 25.714t10.857 25.714l94.857 94.857q10.857 10.857 25.714 10.857t25.714-10.857l424-424q10.857-10.857 10.857-25.714t-10.857-25.714z" />
<glyph unicode="&#xf055;" glyph-name="plus-circle" horiz-adv-x="878" d="M694.857 402.286v73.143q0 14.857-10.857 25.714t-25.714 10.857h-146.286v146.286q0 14.857-10.857 25.714t-25.714 10.857h-73.143q-14.857 0-25.714-10.857t-10.857-25.714v-146.286h-146.286q-14.857 0-25.714-10.857t-10.857-25.714v-73.143q0-14.857 10.857-25.714t25.714-10.857h146.286v-146.286q0-14.857 10.857-25.714t25.714-10.857h73.143q14.857 0 25.714 10.857t10.857 25.714v146.286h146.286q14.857 0 25.714 10.857t10.857 25.714zM877.714 438.857q0-119.429-58.857-220.286t-159.714-159.714-220.286-58.857-220.286 58.857-159.714 159.714-58.857 220.286 58.857 220.286 159.714 159.714 220.286 58.857 220.286-58.857 159.714-159.714 58.857-220.286z" />
<glyph unicode="&#xf056;" glyph-name="minus-circle" horiz-adv-x="878" d="M694.857 402.286v73.143q0 14.857-10.857 25.714t-25.714 10.857h-438.857q-14.857 0-25.714-10.857t-10.857-25.714v-73.143q0-14.857 10.857-25.714t25.714-10.857h438.857q14.857 0 25.714 10.857t10.857 25.714zM877.714 438.857q0-119.429-58.857-220.286t-159.714-159.714-220.286-58.857-220.286 58.857-159.714 159.714-58.857 220.286 58.857 220.286 159.714 159.714 220.286 58.857 220.286-58.857 159.714-159.714 58.857-220.286z" />
<glyph unicode="&#xf067;" glyph-name="plus" horiz-adv-x="805" d="M804.571 530.286v-109.714q0-22.857-16-38.857t-38.857-16h-237.714v-237.714q0-22.857-16-38.857t-38.857-16h-109.714q-22.857 0-38.857 16t-16 38.857v237.714h-237.714q-22.857 0-38.857 16t-16 38.857v109.714q0 22.857 16 38.857t38.857 16h237.714v237.714q0 22.857 16 38.857t38.857 16h109.714q22.857 0 38.857-16t16-38.857v-237.714h237.714q22.857 0 38.857-16t16-38.857z" />
<glyph unicode="&#xf068;" glyph-name="minus" horiz-adv-x="805" d="M804.571 530.286v-109.714q0-22.857-16-38.857t-38.857-16h-694.857q-22.857 0-38.857 16t-16 38.857v109.714q0 22.857 16 38.857t38.857 16h694.857q22.857 0 38.857-16t16-38.857z" />
<glyph unicode="&#xf073;" glyph-name="calendar" horiz-adv-x="951" d="M73.143 0h164.571v164.571h-164.571v-164.571zM274.286 0h182.857v164.571h-182.857v-164.571zM73.143 201.143h164.571v182.857h-164.571v-182.857zM274.286 201.143h182.857v182.857h-182.857v-182.857zM73.143 420.571h164.571v164.571h-164.571v-164.571zM493.714 0h182.857v164.571h-182.857v-164.571zM274.286 420.571h182.857v164.571h-182.857v-164.571zM713.143 0h164.571v164.571h-164.571v-164.571zM493.714 201.143h182.857v182.857h-182.857v-182.857zM292.571 694.857v164.571q0 7.429-5.429 12.857t-12.857 5.429h-36.571q-7.429 0-12.857-5.429t-5.429-12.857v-164.571q0-7.429 5.429-12.857t12.857-5.429h36.571q7.429 0 12.857 5.429t5.429 12.857zM713.143 201.143h164.571v182.857h-164.571v-182.857zM493.714 420.571h182.857v164.571h-182.857v-164.571zM713.143 420.571h164.571v164.571h-164.571v-164.571zM731.429 694.857v164.571q0 7.429-5.429 12.857t-12.857 5.429h-36.571q-7.429 0-12.857-5.429t-5.429-12.857v-164.571q0-7.429 5.429-12.857t12.857-5.429h36.571q7.429 0 12.857 5.429t5.429 12.857zM950.857 731.428v-731.429q0-29.714-21.714-51.429t-51.429-21.714h-804.571q-29.714 0-51.429 21.714t-21.714 51.429v731.429q0 29.714 21.714 51.429t51.429 21.714h73.143v54.857q0 37.714 26.857 64.571t64.571 26.857h36.571q37.714 0 64.571-26.857t26.857-64.571v-54.857h219.429v54.857q0 37.714 26.857 64.571t64.571 26.857h36.571q37.714 0 64.571-26.857t26.857-64.571v-54.857h73.143q29.714 0 51.429-21.714t21.714-51.429z" />
<glyph unicode="&#xf075;" glyph-name="comment" d="M1024 438.857q0-99.429-68.571-183.714t-186.286-133.143-257.143-48.857q-40 0-82.857 4.571-113.143-100-262.857-138.286-28-8-65.143-12.571-9.714-1.143-17.429 5.143t-10 16.571v0.571q-1.714 2.286-0.286 6.857t1.143 5.714 2.571 5.429l3.429 5.143t4 4.857 4.571 5.143q4 4.571 17.714 19.714t19.714 21.714 17.714 22.571 18.571 29.143 15.429 33.714 14.857 43.429q-89.714 50.857-141.429 125.714t-51.714 160.571q0 74.286 40.571 142t109.143 116.857 163.429 78 198.857 28.857q139.429 0 257.143-48.857t186.286-133.143 68.571-183.714z" />
<glyph unicode="&#xf077;" glyph-name="chevron-up" d="M961.714 190.286l-94.857-94.286q-10.857-10.857-25.714-10.857t-25.714 10.857l-303.429 303.429-303.429-303.429q-10.857-10.857-25.714-10.857t-25.714 10.857l-94.857 94.286q-10.857 10.857-10.857 26t10.857 26l424 423.429q10.857 10.857 25.714 10.857t25.714-10.857l424-423.429q10.857-10.857 10.857-26t-10.857-26z" />
<glyph unicode="&#xf078;" glyph-name="chevron-down" d="M961.714 489.143l-424-423.429q-10.857-10.857-25.714-10.857t-25.714 10.857l-424 423.429q-10.857 10.857-10.857 26t10.857 26l94.857 94.286q10.857 10.857 25.714 10.857t25.714-10.857l303.429-303.429 303.429 303.429q10.857 10.857 25.714 10.857t25.714-10.857l94.857-94.286q10.857-10.857 10.857-26t-10.857-26z" />
<glyph unicode="&#xf096;" glyph-name="square-o" horiz-adv-x="805" d="M640 804.571h-475.429q-37.714 0-64.571-26.857t-26.857-64.571v-475.429q0-37.714 26.857-64.571t64.571-26.857h475.429q37.714 0 64.571 26.857t26.857 64.571v475.429q0 37.714-26.857 64.571t-64.571 26.857zM804.571 713.143v-475.429q0-68-48.286-116.286t-116.286-48.286h-475.429q-68 0-116.286 48.286t-48.286 116.286v475.429q0 68 48.286 116.286t116.286 48.286h475.429q68 0 116.286-48.286t48.286-116.286z" />
<glyph unicode="&#xf099;" glyph-name="twitter" horiz-adv-x="951" d="M925.714 717.714q-38.286-56-92.571-95.429 0.571-8 0.571-24 0-74.286-21.714-148.286t-66-142-105.429-120.286-147.429-83.429-184.571-31.143q-154.857 0-283.429 82.857 20-2.286 44.571-2.286 128.571 0 229.143 78.857-60 1.143-107.429 36.857t-65.143 91.143q18.857-2.857 34.857-2.857 24.571 0 48.571 6.286-64 13.143-106 63.714t-42 117.429v2.286q38.857-21.714 83.429-23.429-37.714 25.143-60 65.714t-22.286 88q0 50.286 25.143 93.143 69.143-85.143 168.286-136.286t212.286-56.857q-4.571 21.714-4.571 42.286 0 76.571 54 130.571t130.571 54q80 0 134.857-58.286 62.286 12 117.143 44.571-21.143-65.714-81.143-101.714 53.143 5.714 106.286 28.571z" />
<glyph unicode="&#xf09a;" glyph-name="facebook, facebook-f" horiz-adv-x="602" d="M548 944v-150.857h-89.714q-49.143 0-66.286-20.571t-17.143-61.714v-108h167.429l-22.286-169.143h-145.143v-433.714h-174.857v433.714h-145.714v169.143h145.714v124.571q0 106.286 59.429 164.857t158.286 58.571q84 0 130.286-6.857z" />
<glyph unicode="&#xf09e;" glyph-name="feed, rss" horiz-adv-x="806" d="M219.429 182.857q0-45.714-32-77.714t-77.714-32-77.714 32-32 77.714 32 77.714 77.714 32 77.714-32 32-77.714zM512 112.571q1.143-16-9.714-27.429-10.286-12-26.857-12h-77.143q-14.286 0-24.571 9.429t-11.429 23.714q-12.571 130.857-105.429 223.714t-223.714 105.429q-14.286 1.143-23.714 11.429t-9.429 24.571v77.143q0 16.571 12 26.857 9.714 9.714 24.571 9.714h2.857q91.429-7.429 174.857-46t148-103.714q65.143-64.571 103.714-148t46-174.857zM804.571 111.428q1.143-15.429-10.286-26.857-10.286-11.429-26.286-11.429h-81.714q-14.857 0-25.429 10t-11.143 24.286q-6.857 122.857-57.714 233.429t-132.286 192-192 132.286-233.429 58.286q-14.286 0.571-24.286 11.143t-10 24.857v81.714q0 16 11.429 26.286 10.286 10.286 25.143 10.286h1.714q149.714-7.429 286.571-68.571t243.143-168q106.857-106.286 168-243.143t68.571-286.571z" />
<glyph unicode="&#xf0c8;" glyph-name="square" horiz-adv-x="878" d="M877.714 713.143v-548.571q0-68-48.286-116.286t-116.286-48.286h-548.571q-68 0-116.286 48.286t-48.286 116.286v548.571q0 68 48.286 116.286t116.286 48.286h548.571q68 0 116.286-48.286t48.286-116.286z" />
<glyph unicode="&#xf0d2;" glyph-name="pinterest" horiz-adv-x="878" d="M877.714 438.857q0-119.429-58.857-220.286t-159.714-159.714-220.286-58.857q-63.429 0-124.571 18.286 33.714 53.143 44.571 93.714 5.143 19.429 30.857 120.571 11.429-22.286 41.714-38.571t65.143-16.286q69.143 0 123.429 39.143t84 107.714 29.714 154.286q0 65.143-34 122.286t-98.571 93.143-145.714 36q-60 0-112-16.571t-88.286-44-62.286-63.143-38.286-74-12.286-76.571q0-59.429 22.857-104.571t66.857-63.429q17.143-6.857 21.714 11.429 1.143 4 4.571 17.714t4.571 17.143q3.429 13.143-6.286 24.571-29.143 34.857-29.143 86.286 0 86.286 59.714 148.286t156.286 62q86.286 0 134.571-46.857t48.286-121.714q0-97.143-39.143-165.143t-100.286-68q-34.857 0-56 24.857t-13.143 59.714q4.571 20 15.143 53.429t17.143 58.857 6.571 43.143q0 28.571-15.429 47.429t-44 18.857q-35.429 0-60-32.571t-24.571-81.143q0-41.714 14.286-69.714l-56.571-238.857q-9.714-40-7.429-101.143-117.714 52-190.286 160.571t-72.571 241.714q0 119.429 58.857 220.286t159.714 159.714 220.286 58.857 220.286-58.857 159.714-159.714 58.857-220.286z" />
<glyph unicode="&#xf0d5;" glyph-name="google-plus" horiz-adv-x="1317" d="M821.143 429.143q0-118.857-49.714-211.714t-141.714-145.143-210.857-52.286q-85.143 0-162.857 33.143t-133.714 89.143-89.143 133.714-33.143 162.857 33.143 162.857 89.143 133.714 133.714 89.143 162.857 33.143q163.429 0 280.571-109.714l-113.714-109.143q-66.857 64.571-166.857 64.571-70.286 0-130-35.429t-94.571-96.286-34.857-132.857 34.857-132.857 94.571-96.286 130-35.429q47.429 0 87.143 13.143t65.429 32.857 44.857 44.857 28 47.429 12.286 42.286h-237.714v144h395.429q6.857-36 6.857-69.714zM1316.571 498.857v-120h-119.429v-119.429h-120v119.429h-119.429v120h119.429v119.429h120v-119.429h119.429z" />
<glyph unicode="&#xf0e1;" glyph-name="linkedin" horiz-adv-x="878" d="M199.429 593.714v-566.286h-188.571v566.286h188.571zM211.429 768.571q0.571-41.714-28.857-69.714t-77.429-28h-1.143q-46.857 0-75.429 28t-28.571 69.714q0 42.286 29.429 70t76.857 27.714 76-27.714 29.143-70zM877.714 352v-324.571h-188v302.857q0 60-23.143 94t-72.286 34q-36 0-60.286-19.714t-36.286-48.857q-6.286-17.143-6.286-46.286v-316h-188q1.143 228 1.143 369.714t-0.571 169.143l-0.571 27.429h188v-82.286h-1.143q11.429 18.286 23.429 32t32.286 29.714 49.714 24.857 65.429 8.857q97.714 0 157.143-64.857t59.429-190z" />
<glyph unicode="&#xf100;" glyph-name="angle-double-left" horiz-adv-x="603" d="M358.286 164.571q0-7.429-5.714-13.143l-28.571-28.571q-5.714-5.714-13.143-5.714t-13.143 5.714l-266.286 266.286q-5.714 5.714-5.714 13.143t5.714 13.143l266.286 266.286q5.714 5.714 13.143 5.714t13.143-5.714l28.571-28.571q5.714-5.714 5.714-13.143t-5.714-13.143l-224.571-224.571 224.571-224.571q5.714-5.714 5.714-13.143zM577.714 164.571q0-7.429-5.714-13.143l-28.571-28.571q-5.714-5.714-13.143-5.714t-13.143 5.714l-266.286 266.286q-5.714 5.714-5.714 13.143t5.714 13.143l266.286 266.286q5.714 5.714 13.143 5.714t13.143-5.714l28.571-28.571q5.714-5.714 5.714-13.143t-5.714-13.143l-224.571-224.571 224.571-224.571q5.714-5.714 5.714-13.143z" />
<glyph unicode="&#xf101;" glyph-name="angle-double-right" horiz-adv-x="567" d="M340 402.286q0-7.429-5.714-13.143l-266.286-266.286q-5.714-5.714-13.143-5.714t-13.143 5.714l-28.571 28.571q-5.714 5.714-5.714 13.143t5.714 13.143l224.571 224.571-224.571 224.571q-5.714 5.714-5.714 13.143t5.714 13.143l28.571 28.571q5.714 5.714 13.143 5.714t13.143-5.714l266.286-266.286q5.714-5.714 5.714-13.143zM559.429 402.286q0-7.429-5.714-13.143l-266.286-266.286q-5.714-5.714-13.143-5.714t-13.143 5.714l-28.571 28.571q-5.714 5.714-5.714 13.143t5.714 13.143l224.571 224.571-224.571 224.571q-5.714 5.714-5.714 13.143t5.714 13.143l28.571 28.571q5.714 5.714 13.143 5.714t13.143-5.714l266.286-266.286q5.714-5.714 5.714-13.143z" />
<glyph unicode="&#xf102;" glyph-name="angle-double-up" horiz-adv-x="658" d="M614.286 201.143q0-7.429-5.714-13.143l-28.571-28.571q-5.714-5.714-13.143-5.714t-13.143 5.714l-224.571 224.571-224.571-224.571q-5.714-5.714-13.143-5.714t-13.143 5.714l-28.571 28.571q-5.714 5.714-5.714 13.143t5.714 13.143l266.286 266.286q5.714 5.714 13.143 5.714t13.143-5.714l266.286-266.286q5.714-5.714 5.714-13.143zM614.286 420.571q0-7.429-5.714-13.143l-28.571-28.571q-5.714-5.714-13.143-5.714t-13.143 5.714l-224.571 224.571-224.571-224.571q-5.714-5.714-13.143-5.714t-13.143 5.714l-28.571 28.571q-5.714 5.714-5.714 13.143t5.714 13.143l266.286 266.286q5.714 5.714 13.143 5.714t13.143-5.714l266.286-266.286q5.714-5.714 5.714-13.143z" />
<glyph unicode="&#xf103;" glyph-name="angle-double-down" horiz-adv-x="658" d="M614.286 457.143q0-7.429-5.714-13.143l-266.286-266.286q-5.714-5.714-13.143-5.714t-13.143 5.714l-266.286 266.286q-5.714 5.714-5.714 13.143t5.714 13.143l28.571 28.571q5.714 5.714 13.143 5.714t13.143-5.714l224.571-224.571 224.571 224.571q5.714 5.714 13.143 5.714t13.143-5.714l28.571-28.571q5.714-5.714 5.714-13.143zM614.286 676.571q0-7.429-5.714-13.143l-266.286-266.286q-5.714-5.714-13.143-5.714t-13.143 5.714l-266.286 266.286q-5.714 5.714-5.714 13.143t5.714 13.143l28.571 28.571q5.714 5.714 13.143 5.714t13.143-5.714l224.571-224.571 224.571 224.571q5.714 5.714 13.143 5.714t13.143-5.714l28.571-28.571q5.714-5.714 5.714-13.143z" />
<glyph unicode="&#xf104;" glyph-name="angle-left" horiz-adv-x="384" d="M358.286 640q0-7.429-5.714-13.143l-224.571-224.571 224.571-224.571q5.714-5.714 5.714-13.143t-5.714-13.143l-28.571-28.571q-5.714-5.714-13.143-5.714t-13.143 5.714l-266.286 266.286q-5.714 5.714-5.714 13.143t5.714 13.143l266.286 266.286q5.714 5.714 13.143 5.714t13.143-5.714l28.571-28.571q5.714-5.714 5.714-13.143z" />
<glyph unicode="&#xf105;" glyph-name="angle-right" horiz-adv-x="347" d="M340 402.286q0-7.429-5.714-13.143l-266.286-266.286q-5.714-5.714-13.143-5.714t-13.143 5.714l-28.571 28.571q-5.714 5.714-5.714 13.143t5.714 13.143l224.571 224.571-224.571 224.571q-5.714 5.714-5.714 13.143t5.714 13.143l28.571 28.571q5.714 5.714 13.143 5.714t13.143-5.714l266.286-266.286q5.714-5.714 5.714-13.143z" />
<glyph unicode="&#xf106;" glyph-name="angle-up" horiz-adv-x="658" d="M614.286 274.286q0-7.429-5.714-13.143l-28.571-28.571q-5.714-5.714-13.143-5.714t-13.143 5.714l-224.571 224.571-224.571-224.571q-5.714-5.714-13.143-5.714t-13.143 5.714l-28.571 28.571q-5.714 5.714-5.714 13.143t5.714 13.143l266.286 266.286q5.714 5.714 13.143 5.714t13.143-5.714l266.286-266.286q5.714-5.714 5.714-13.143z" />
<glyph unicode="&#xf107;" glyph-name="angle-down" horiz-adv-x="658" d="M614.286 530.286q0-7.429-5.714-13.143l-266.286-266.286q-5.714-5.714-13.143-5.714t-13.143 5.714l-266.286 266.286q-5.714 5.714-5.714 13.143t5.714 13.143l28.571 28.571q5.714 5.714 13.143 5.714t13.143-5.714l224.571-224.571 224.571 224.571q5.714 5.714 13.143 5.714t13.143-5.714l28.571-28.571q5.714-5.714 5.714-13.143z" />
<glyph unicode="&#xf10c;" glyph-name="circle-o" horiz-adv-x="878" d="M438.857 749.714q-84.571 0-156-41.714t-113.143-113.143-41.714-156 41.714-156 113.143-113.143 156-41.714 156 41.714 113.143 113.143 41.714 156-41.714 156-113.143 113.143-156 41.714zM877.714 438.857q0-119.429-58.857-220.286t-159.714-159.714-220.286-58.857-220.286 58.857-159.714 159.714-58.857 220.286 58.857 220.286 159.714 159.714 220.286 58.857 220.286-58.857 159.714-159.714 58.857-220.286z" />
<glyph unicode="&#xf111;" glyph-name="circle" horiz-adv-x="878" d="M877.714 438.857q0-119.429-58.857-220.286t-159.714-159.714-220.286-58.857-220.286 58.857-159.714 159.714-58.857 220.286 58.857 220.286 159.714 159.714 220.286 58.857 220.286-58.857 159.714-159.714 58.857-220.286z" />
<glyph unicode="&#xf13e;" glyph-name="unlock-alt" horiz-adv-x="658" d="M603.429 512q22.857 0 38.857-16t16-38.857v-329.143q0-22.857-16-38.857t-38.857-16h-548.571q-22.857 0-38.857 16t-16 38.857v329.143q0 22.857 16 38.857t38.857 16h18.286v182.857q0 105.714 75.143 180.857t180.857 75.143 180.857-75.143 75.143-180.857q0-14.857-10.857-25.714t-25.714-10.857h-36.571q-14.857 0-25.714 10.857t-10.857 25.714q0 60.571-42.857 103.429t-103.429 42.857-103.429-42.857-42.857-103.429v-182.857h420.571z" />
<glyph unicode="&#xf141;" glyph-name="ellipsis-h" horiz-adv-x="805" d="M219.429 530.286v-109.714q0-22.857-16-38.857t-38.857-16h-109.714q-22.857 0-38.857 16t-16 38.857v109.714q0 22.857 16 38.857t38.857 16h109.714q22.857 0 38.857-16t16-38.857zM512 530.286v-109.714q0-22.857-16-38.857t-38.857-16h-109.714q-22.857 0-38.857 16t-16 38.857v109.714q0 22.857 16 38.857t38.857 16h109.714q22.857 0 38.857-16t16-38.857zM804.571 530.286v-109.714q0-22.857-16-38.857t-38.857-16h-109.714q-22.857 0-38.857 16t-16 38.857v109.714q0 22.857 16 38.857t38.857 16h109.714q22.857 0 38.857-16t16-38.857z" />
<glyph unicode="&#xf142;" glyph-name="ellipsis-v" horiz-adv-x="219" d="M219.429 237.714v-109.714q0-22.857-16-38.857t-38.857-16h-109.714q-22.857 0-38.857 16t-16 38.857v109.714q0 22.857 16 38.857t38.857 16h109.714q22.857 0 38.857-16t16-38.857zM219.429 530.286v-109.714q0-22.857-16-38.857t-38.857-16h-109.714q-22.857 0-38.857 16t-16 38.857v109.714q0 22.857 16 38.857t38.857 16h109.714q22.857 0 38.857-16t16-38.857zM219.429 822.857v-109.714q0-22.857-16-38.857t-38.857-16h-109.714q-22.857 0-38.857 16t-16 38.857v109.714q0 22.857 16 38.857t38.857 16h109.714q22.857 0 38.857-16t16-38.857z" />
<glyph unicode="&#xf16a;" glyph-name="youtube-play" d="M731.429 438.857q0 21.143-17.143 30.857l-292.571 182.857q-17.714 11.429-37.143 1.143-18.857-10.286-18.857-32v-365.714q0-21.714 18.857-32 9.143-4.571 17.714-4.571 11.429 0 19.429 5.714l292.571 182.857q17.143 9.714 17.143 30.857zM1024 438.857q0-54.857-0.571-85.714t-4.857-78-12.857-84.286q-9.143-41.714-39.429-70.286t-70.857-33.143q-126.857-14.286-383.429-14.286t-383.429 14.286q-40.571 4.571-71.143 33.143t-39.714 70.286q-8 37.143-12.286 84.286t-4.857 78-0.571 85.714 0.571 85.714 4.857 78 12.857 84.286q9.143 41.714 39.429 70.286t70.857 33.143q126.857 14.286 383.429 14.286t383.429-14.286q40.571-4.571 71.143-33.143t39.714-70.286q8-37.143 12.286-84.286t4.857-78 0.571-85.714z" />
<glyph unicode="&#xf16d;" glyph-name="instagram" horiz-adv-x="878" d="M585.143 438.857q0 60.571-42.857 103.429t-103.429 42.857-103.429-42.857-42.857-103.429 42.857-103.429 103.429-42.857 103.429 42.857 42.857 103.429zM664 438.857q0-93.714-65.714-159.429t-159.429-65.714-159.429 65.714-65.714 159.429 65.714 159.429 159.429 65.714 159.429-65.714 65.714-159.429zM725.714 673.143q0-21.714-15.429-37.143t-37.143-15.429-37.143 15.429-15.429 37.143 15.429 37.143 37.143 15.429 37.143-15.429 15.429-37.143zM438.857 798.857q-4 0-43.714 0.286t-60.286 0-55.143-1.714-58.857-5.714-40.857-10.571q-28.571-11.429-50.286-33.143t-33.143-50.286q-6.286-16.571-10.571-40.857t-5.714-58.857-1.714-55.143 0-60.286 0.286-43.714-0.286-43.714 0-60.286 1.714-55.143 5.714-58.857 10.571-40.857q11.429-28.571 33.143-50.286t50.286-33.143q16.571-6.286 40.857-10.571t58.857-5.714 55.143-1.714 60.286 0 43.714 0.286 43.714-0.286 60.286 0 55.143 1.714 58.857 5.714 40.857 10.571q28.571 11.429 50.286 33.143t33.143 50.286q6.286 16.571 10.571 40.857t5.714 58.857 1.714 55.143 0 60.286-0.286 43.714 0.286 43.714 0 60.286-1.714 55.143-5.714 58.857-10.571 40.857q-11.429 28.571-33.143 50.286t-50.286 33.143q-16.571 6.286-40.857 10.571t-58.857 5.714-55.143 1.714-60.286 0-43.714-0.286zM877.714 438.857q0-130.857-2.857-181.143-5.714-118.857-70.857-184t-184-70.857q-50.286-2.857-181.143-2.857t-181.143 2.857q-118.857 5.714-184 70.857t-70.857 184q-2.857 50.286-2.857 181.143t2.857 181.143q5.714 118.857 70.857 184t184 70.857q50.286 2.857 181.143 2.857t181.143-2.857q118.857-5.714 184-70.857t70.857-184q2.857-50.286 2.857-181.143z" />
<glyph unicode="&#xf16e;" glyph-name="flickr" horiz-adv-x="878" d="M713.143 877.714q68 0 116.286-48.286t48.286-116.286v-548.571q0-68-48.286-116.286t-116.286-48.286h-548.571q-68 0-116.286 48.286t-48.286 116.286v548.571q0 68 48.286 116.286t116.286 48.286h548.571zM398.857 438.857q0 50.286-35.429 85.714t-85.714 35.429-85.714-35.429-35.429-85.714 35.429-85.714 85.714-35.429 85.714 35.429 35.429 85.714zM721.143 438.857q0 50.286-35.429 85.714t-85.714 35.429-85.714-35.429-35.429-85.714 35.429-85.714 85.714-35.429 85.714 35.429 35.429 85.714z" />
<glyph unicode="&#xf173;" glyph-name="tumblr" horiz-adv-x="624" d="M539.429 191.428l45.714-135.429q-13.143-20-63.429-37.714t-101.143-18.286q-59.429-1.143-108.857 14.857t-81.429 42.286-54.286 60.571-31.714 68.571-9.429 67.429v310.857h-96v122.857q41.143 14.857 73.714 39.714t52 51.429 33.143 58.286 19.429 56.571 8.571 50.571q0.571 2.857 2.571 4.857t4.286 2h139.429v-242.286h190.286v-144h-190.857v-296q0-17.143 3.714-32t12.857-30 28.286-23.714 46.571-8q44.571 1.143 76.571 16.571z" />
<glyph unicode="&#xf19a;" glyph-name="wordpress" d="M72.571 438.857q0 93.143 38.286 178.857l209.714-574.286q-112 54.286-180 160.571t-68 234.857zM808.571 461.143q0-10.857-1.429-22t-5.714-28.286-6.571-25.143-10-33.714-10-33.143l-43.429-146.286-158.857 472q26.286 1.714 50.286 4.571 10.857 1.143 14.857 10.571t-1.429 17.714-16.286 7.714l-117.143-5.714q-42.857 0.571-115.429 5.714-6.857 0.571-11.714-2.857t-6.571-8.571-0.857-10.571 5.143-9.429 11.143-4.571l45.714-4.571 68.571-187.429-96-288-160 475.429q26.286 1.714 50.286 4.571 10.857 1.143 14.857 10.571t-1.429 17.714-16.286 7.714l-117.143-5.714q-4 0-13.143 0.286t-14.857 0.286q60 91.429 156.857 144.857t210 53.429q84 0 160.286-30.286t136.286-85.143h-5.714q-31.429 0-52.571-23.143t-21.143-54.571q0-6.857 1.143-13.714t2.286-12.286 4.571-13.143 5.143-12 6.857-12.857 7.143-12 8.286-13.714 8-13.143q36-61.143 36-121.143zM519.429 400.571l135.429-369.714q0.571-3.429 2.857-6.286-72-25.143-145.714-25.143-64 0-124 18.286zM897.143 649.714q54.286-99.429 54.286-210.857 0-119.429-59.429-220.286t-159.429-159.143l134.286 387.429q33.714 96.571 33.714 157.714 0 24-3.429 45.143zM512 950.857q104 0 198.857-40.571t163.429-109.143 109.143-163.429 40.571-198.857-40.571-198.857-109.143-163.429-163.429-109.143-198.857-40.571-198.857 40.571-163.429 109.143-109.143 163.429-40.571 198.857 40.571 198.857 109.143 163.429 163.429 109.143 198.857 40.571zM512-49.714q98.857 0 189.429 38.857t156 104.286 104.286 156 38.857 189.429-38.857 189.429-104.286 156-156 104.286-189.429 38.857-189.429-38.857-156-104.286-104.286-156-38.857-189.429 38.857-189.429 104.286-156 156-104.286 189.429-38.857z" />
<glyph unicode="&#xf1a0;" glyph-name="google" horiz-adv-x="860" d="M438.857 501.714h414.286q6.857-38.286 6.857-73.143 0-124-52-221.429t-148.286-152.286-220.857-54.857q-89.714 0-170.857 34.571t-140 93.429-93.429 140-34.571 170.857 34.571 170.857 93.429 140 140 93.429 170.857 34.571q171.429 0 294.286-114.857l-119.429-114.857q-70.286 68-174.857 68-73.714 0-136.286-37.143t-99.143-100.857-36.571-139.143 36.571-139.143 99.143-100.857 136.286-37.143q49.714 0 91.429 13.714t68.571 34.286 46.857 46.857 29.429 49.714 12.857 44.571h-249.143v150.857z" />
<glyph unicode="&#xf1ac;" glyph-name="fax" d="M164.571 731.428q37.714 0 64.571-26.857t26.857-64.571v-621.714q0-37.714-26.857-64.571t-64.571-26.857h-73.143q-37.714 0-64.571 26.857t-26.857 64.571v621.714q0 37.714 26.857 64.571t64.571 26.857h73.143zM950.857 638.286q33.143-19.429 53.143-53.143t20-73.143v-438.857q0-60.571-42.857-103.429t-103.429-42.857h-493.714q-37.714 0-64.571 26.857t-26.857 64.571v877.714q0 22.857 16 38.857t38.857 16h384q22.857 0 50.286-11.429t43.429-27.429l86.857-86.857q16-16 27.429-43.429t11.429-50.286v-93.143zM530.286 73.143v73.143q0 8-5.143 13.143t-13.143 5.143h-73.143q-8 0-13.143-5.143t-5.143-13.143v-73.143q0-8 5.143-13.143t13.143-5.143h73.143q8 0 13.143 5.143t5.143 13.143zM530.286 219.428v73.143q0 8-5.143 13.143t-13.143 5.143h-73.143q-8 0-13.143-5.143t-5.143-13.143v-73.143q0-8 5.143-13.143t13.143-5.143h73.143q8 0 13.143 5.143t5.143 13.143zM530.286 365.714v73.143q0 8-5.143 13.143t-13.143 5.143h-73.143q-8 0-13.143-5.143t-5.143-13.143v-73.143q0-8 5.143-13.143t13.143-5.143h73.143q8 0 13.143 5.143t5.143 13.143zM676.571 73.143v73.143q0 8-5.143 13.143t-13.143 5.143h-73.143q-8 0-13.143-5.143t-5.143-13.143v-73.143q0-8 5.143-13.143t13.143-5.143h73.143q8 0 13.143 5.143t5.143 13.143zM676.571 219.428v73.143q0 8-5.143 13.143t-13.143 5.143h-73.143q-8 0-13.143-5.143t-5.143-13.143v-73.143q0-8 5.143-13.143t13.143-5.143h73.143q8 0 13.143 5.143t5.143 13.143zM676.571 365.714v73.143q0 8-5.143 13.143t-13.143 5.143h-73.143q-8 0-13.143-5.143t-5.143-13.143v-73.143q0-8 5.143-13.143t13.143-5.143h73.143q8 0 13.143 5.143t5.143 13.143zM822.857 73.143v73.143q0 8-5.143 13.143t-13.143 5.143h-73.143q-8 0-13.143-5.143t-5.143-13.143v-73.143q0-8 5.143-13.143t13.143-5.143h73.143q8 0 13.143 5.143t5.143 13.143zM822.857 219.428v73.143q0 8-5.143 13.143t-13.143 5.143h-73.143q-8 0-13.143-5.143t-5.143-13.143v-73.143q0-8 5.143-13.143t13.143-5.143h73.143q8 0 13.143 5.143t5.143 13.143zM822.857 365.714v73.143q0 8-5.143 13.143t-13.143 5.143h-73.143q-8 0-13.143-5.143t-5.143-13.143v-73.143q0-8 5.143-13.143t13.143-5.143h73.143q8 0 13.143 5.143t5.143 13.143zM877.714 585.143v146.286h-91.429q-22.857 0-38.857 16t-16 38.857v91.429h-365.714v-292.571h512z" />
<glyph unicode="&#xf1ca;" glyph-name="vine" horiz-adv-x="878" d="M855.429 478.286v-113.143q-57.714-13.143-113.143-13.143-37.143-77.714-94.571-154.857t-103.714-123.143-73.143-60.857q-45.714-25.714-92.571 1.714-16 9.714-34.571 24.857t-48.571 47.714-58.571 73.429-61.429 105.143-60.286 139.429-52.286 179.714-40.286 222.857h161.714q14.857-124.571 40-227.714t59.714-181.143 69.429-134.571 80-111.429q96.571 96.571 164 232-81.143 41.143-127.429 125.714t-46.286 190.286q0 109.714 59.429 179.714t162.286 70q101.714 0 156-60.286t54.286-170q0-90.857-33.143-163.429-4-0.571-11.143-1.714t-26.286-1.143-36 3.429-35.429 14.571-28.857 29.429q17.714 58.857 17.714 105.143 0 49.714-16.571 75.429t-45.143 25.714q-30.286 0-48.571-28.286t-18.286-80.286q0-106.286 60-167.714t152.571-61.429q35.429 0 69.143 8z" />
<glyph unicode="&#xf1d7;" glyph-name="wechat, weixin" horiz-adv-x="1170" d="M331.429 687.428q0 23.429-14.286 37.714t-37.714 14.286q-24.571 0-43.429-14.571t-18.857-37.429q0-22.286 18.857-36.857t43.429-14.571q23.429 0 37.714 14t14.286 37.429zM756 397.714q0 16-14.571 28.571t-37.429 12.571q-15.429 0-28.286-12.857t-12.857-28.286q0-16 12.857-28.857t28.286-12.857q22.857 0 37.429 12.571t14.571 29.143zM621.143 687.428q0 23.429-14 37.714t-37.429 14.286q-24.571 0-43.429-14.571t-18.857-37.429q0-22.286 18.857-36.857t43.429-14.571q23.429 0 37.429 14t14 37.429zM984 397.714q0 16-14.857 28.571t-37.143 12.571q-15.429 0-28.286-12.857t-12.857-28.286q0-16 12.857-28.857t28.286-12.857q22.286 0 37.143 12.571t14.857 29.143zM832 624.571q-17.714 2.286-40 2.286-96.571 0-177.714-44t-127.714-119.143-46.571-164.286q0-44.571 13.143-86.857-20-1.714-38.857-1.714-14.857 0-28.571 0.857t-31.429 3.714-25.429 4-31.143 6-28.571 6l-144.571-72.571 41.143 124.571q-165.714 116-165.714 280 0 96.571 55.714 177.714t150.857 127.714 207.714 46.571q100.571 0 190-37.714t149.714-104.286 78-148.857zM1170.286 304q0-66.857-39.143-127.714t-106-110.571l31.429-103.429-113.714 62.286q-85.714-21.143-124.571-21.143-96.571 0-177.714 40.286t-127.714 109.429-46.571 150.857 46.571 150.857 127.714 109.429 177.714 40.286q92 0 173.143-40.286t130-109.714 48.857-150.571z" />
<glyph unicode="&#xf27d;" glyph-name="vimeo" horiz-adv-x="1032" d="M976.571 654.857q-5.714-134.857-189.714-372-190.286-246.286-321.143-246.286-81.143 0-137.143 150.286-25.143 91.429-75.429 275.429-41.143 149.714-89.714 149.714-10.286 0-72.571-43.429l-44 56q13.714 12 61.714 55.143t74.286 66q89.143 78.857 137.714 83.429 54.286 5.143 87.429-31.714t46.286-116.286q25.143-164 37.714-213.143 31.429-142.286 68.571-142.286 29.143 0 88 92 57.714 92 62.286 140.571 7.429 79.429-62.286 79.429-32.571 0-69.143-14.857 68.571 224.571 262.286 218.286 143.429-4.571 134.857-186.286z" />
</font>
</defs>
</svg>
